<svg width="86" height="43" viewBox="0 0 86 43" fill="none" xmlns="http://www.w3.org/2000/svg">
<g clip-path="url(#clip0)">
<path d="M21.6137 0C25.8886 2.90733e-08 30.0675 1.26109 33.6219 3.62379C37.1764 5.98649 39.9466 9.34468 41.5825 13.2737C43.2183 17.2027 43.6461 21.526 42.812 25.6969C41.9778 29.8678 39.919 33.6989 36.8961 36.7058C33.8731 39.7127 30.0216 41.7603 25.8288 42.5897C21.636 43.419 17.2901 42.9929 13.3408 41.3651C9.39141 39.7374 6.01599 36.9811 3.64134 33.4449C1.2667 29.9087 -0.000499724 25.7514 1.47831e-07 21.4987C0.000670386 15.7967 2.27812 10.3284 6.33141 6.29669C10.3847 2.26496 15.8818 -3.89822e-08 21.6137 0" fill="#EC2227"/>
<path d="M76.2698 31.3644C76.255 31.6111 76.2952 31.8579 76.3873 32.0874C76.4795 32.3169 76.6215 32.5233 76.803 32.6919C77.1167 32.9864 77.5294 33.154 77.9606 33.162C78.5688 33.162 79.2048 32.8528 79.8687 32.2343C80.5573 31.5791 81.1215 30.8058 81.5342 29.9514C81.9469 29.1919 82.1778 28.3479 82.209 27.485C82.209 26.7408 82.0498 26.2212 81.7313 25.9262C81.4795 25.6647 81.137 25.5082 80.7735 25.4888C80.1745 25.4888 79.5098 25.7804 78.8097 26.3637C78.0642 26.9834 77.4507 27.745 77.0052 28.6038C76.5311 29.4499 76.2782 30.4008 76.2698 31.3694V31.3644ZM73.4341 22.8212L72.6759 21.9966C73.3657 21.2583 74.1778 20.6435 75.0769 20.1788C75.834 19.7523 76.684 19.5151 77.5537 19.4874C77.9119 19.4869 78.2606 19.6025 78.5469 19.8168C78.8752 20.0731 79.124 20.4165 79.2647 20.8074C79.4568 21.3357 79.5476 21.8951 79.5326 22.4567C79.5277 22.8068 79.4412 23.1511 79.2798 23.4623C79.1113 23.7976 78.7095 24.5133 78.0743 25.6095C78.5901 25.0779 79.2104 24.6577 79.8965 24.375C80.5654 24.0992 81.2827 23.9582 82.0068 23.9602C82.6947 23.9548 83.3737 24.1153 83.9857 24.4278C84.5918 24.7407 85.0984 25.2151 85.449 25.798C85.8278 26.4422 86.0178 27.179 85.9975 27.925C85.9958 28.7492 85.8065 29.5623 85.444 30.3034C85.0603 31.0858 84.5192 31.7815 83.8543 32.3474C83.1567 32.9588 82.3512 33.4362 81.4786 33.7554C80.5575 34.0979 79.5807 34.2684 78.5974 34.2582C77.6145 34.2715 76.6404 34.0734 75.7416 33.6774C74.9371 33.3185 74.2517 32.7395 73.7652 32.008C73.2824 31.2587 73.0335 30.3838 73.05 29.4939C73.05 28.4178 73.4526 27.0769 74.258 25.4712C74.6927 24.6415 74.9834 24.0808 75.1375 23.7867C75.2917 23.4925 75.4231 23.2059 75.5394 22.9268C75.6442 22.7039 75.7059 22.4634 75.7213 22.2178C75.7237 22.1245 75.6936 22.0331 75.636 21.9594C75.5784 21.8856 75.4969 21.8339 75.4054 21.813H74.9227C74.3246 21.9685 73.7982 22.3235 73.4316 22.8187L73.4341 22.8212ZM60.5725 25.9262H64.9524L66.5547 19.8922H70.4569L67.4797 30.7082C67.4188 30.9549 67.3899 31.2084 67.3938 31.4625C67.3938 31.6686 67.5656 31.7717 67.9144 31.7717C68.2 31.7717 68.7939 31.2236 69.6835 30.1098L70.4417 30.7132C68.9254 33.0766 67.3778 34.2582 65.799 34.2582C65.2016 34.2622 64.6153 34.0974 64.1083 33.783C63.5902 33.4612 63.3324 32.9257 63.3324 32.1715C63.3561 31.6786 63.441 31.1905 63.5851 30.7183L64.5657 27.0073H60.2313L58.4243 33.856H54.5499L57.4487 23.0676C57.4571 23.0235 57.4707 22.9804 57.4892 22.9394C57.5081 22.8974 57.5225 22.8536 57.5321 22.8087V22.4391C57.4563 22.2505 57.2642 22.1525 56.9584 22.1525C56.7006 22.1582 56.4555 22.2648 56.2761 22.4491C55.9577 22.7683 55.6685 23.115 55.4117 23.485L54.6055 22.776C55.3248 21.8585 56.1474 21.0259 57.057 20.2945C57.6957 19.7784 58.4888 19.4882 59.3114 19.4698C59.8825 19.4585 60.4414 19.6353 60.9011 19.9727C61.3535 20.3121 61.5835 20.8803 61.5835 21.6898C61.5776 22.0577 61.518 22.4227 61.4065 22.7735L60.5725 25.9262ZM43.2173 27.1205C44.2813 26.9405 45.3005 26.559 46.2198 25.9966C46.9788 25.5409 47.6236 24.9193 48.1052 24.1789C48.497 23.5791 48.7131 22.8826 48.7294 22.1675C48.7294 21.099 48.3301 20.566 47.5239 20.566C46.9654 20.566 46.4068 20.8878 45.8508 21.5415C45.2363 22.282 44.7324 23.1067 44.3546 23.9903C43.9 25.0067 43.5199 26.0545 43.2173 27.1255V27.1205ZM50.2812 29.3883L51.1405 30.1274C50.1883 31.3449 49.0231 32.3814 47.7008 33.1872C46.5578 33.8776 45.247 34.2444 43.9098 34.2482C42.9707 34.2514 42.0447 34.0289 41.2106 33.5995C40.3603 33.1653 39.6486 32.5036 39.1559 31.6887C38.6161 30.7812 38.3437 29.741 38.3699 28.6868C38.3793 27.5373 38.6334 26.4028 39.1155 25.358C40.1356 23.0906 41.9541 21.2727 44.2283 20.2467C45.3661 19.7315 46.6023 19.4665 47.8525 19.4698C48.6938 19.4391 49.531 19.6017 50.2989 19.945C50.8495 20.1952 51.3152 20.5989 51.6395 21.1072C51.9639 21.6155 52.1329 22.2066 52.1262 22.8087C52.1322 23.3102 52.0184 23.806 51.7944 24.2553C51.5703 24.7046 51.2423 25.0946 50.8372 25.3932C49.8845 26.122 48.805 26.67 47.6528 27.0098C46.4043 27.4021 44.8677 27.7934 43.043 28.184C42.8977 28.674 42.8212 29.1816 42.8155 29.6925C42.7846 30.4179 43.002 31.1323 43.4322 31.7189C43.642 31.982 43.9121 32.1914 44.2199 32.3296C44.5276 32.4678 44.8641 32.5308 45.2013 32.5134C45.7314 32.5125 46.2555 32.4021 46.7404 32.1891C47.2318 31.9786 47.6959 31.7102 48.1229 31.3895C48.5422 31.0679 48.9406 30.7203 49.3158 30.3487C49.6898 29.9766 50.0133 29.6548 50.2863 29.3757L50.2812 29.3883ZM24.366 30.7459C24.366 31.6033 24.5859 32.1865 25.0256 32.5058C25.4362 32.8207 25.9402 32.9913 26.4586 32.9911C27.3887 32.9911 28.2631 32.3902 29.082 31.1985C29.9406 29.9085 30.5992 28.4973 31.0356 27.0124C31.5242 25.4184 31.7685 24.1412 31.7685 23.1808C31.7685 21.4326 31.1089 20.5576 29.7896 20.556C28.9682 20.556 28.1393 21.1216 27.2926 22.2606C26.3786 23.5211 25.6714 24.9179 25.1975 26.3989C24.6857 27.7901 24.4049 29.2549 24.366 30.7359V30.7459ZM25.4831 14.263L24.8563 14.6049L23.7569 12.7595C24.5387 12.1853 25.4229 11.7638 26.3626 11.5175C27.1923 11.3337 28.0399 11.2418 28.8899 11.2434C30.0939 11.2052 31.2869 11.4817 32.3498 12.0455C33.2984 12.5736 34.0953 13.3344 34.6649 14.2554C35.2819 15.2628 35.7196 16.3685 35.9588 17.5239C36.2446 18.8719 36.3827 20.2468 36.3708 21.6245C36.3931 23.4006 36.1286 25.1688 35.5873 26.8615C35.1245 28.3215 34.384 29.6794 33.4062 30.8616C32.5383 31.9151 31.4544 32.7722 30.2269 33.3757C29.0578 33.9449 27.7728 34.2391 26.4712 34.2356C25.3797 34.2414 24.3032 33.9825 23.3348 33.4813C22.3517 32.9832 21.5297 32.2192 20.9633 31.2773C20.3969 30.3354 20.109 29.2537 20.1327 28.1563C20.133 26.6503 20.5454 25.1728 21.3256 23.8822C22.1229 22.5458 23.2583 21.4406 24.6187 20.6766C26.0434 19.8655 27.6605 19.4488 29.3019 19.4698C30.4213 19.4584 31.5119 19.8224 32.3978 20.5032C32.6436 19.5223 32.7767 18.5169 32.7946 17.5063C32.8244 16.5142 32.6337 15.5278 32.2361 14.6175C31.9293 13.9035 31.4157 13.2967 30.7607 12.8744C30.1058 12.4521 29.3392 12.2336 28.5588 12.2466C27.847 12.2671 27.1518 12.4651 26.537 12.8223C25.8344 13.2045 25.4805 13.6897 25.4805 14.2856" fill="#231F20"/>
</g>
<defs>
<clipPath id="clip0">
<rect width="86" height="43" fill="white"/>
</clipPath>
</defs>
</svg>
