<svg width="200" height="100" viewBox="0 0 200 100" fill="none" xmlns="http://www.w3.org/2000/svg">
<g clip-path="url(#clip0)">
<path d="M50.2645 0C60.2061 6.76124e-08 69.9245 2.93277 78.1906 8.42742C86.4566 13.9221 92.8992 21.7318 96.7034 30.869C100.508 40.0062 101.503 50.0604 99.5627 59.7602C97.6228 69.4599 92.835 78.3696 85.8048 85.3624C78.7746 92.3552 69.8177 97.1171 60.067 99.0458C50.3163 100.975 40.2096 99.9834 31.025 96.1979C21.8405 92.4124 13.9907 86.0025 8.46824 77.7788C2.94581 69.5551 -0.00116215 59.887 3.43793e-07 49.9971C0.00155904 36.7365 5.29796 24.0196 14.7242 14.6435C24.1505 5.26735 36.9345 -9.06562e-08 50.2645 0" fill="#EC2227" fill-opacity="0.1"/>
<path d="M177.372 72.9406C177.337 73.5142 177.431 74.0884 177.645 74.622C177.859 75.1556 178.189 75.6356 178.612 76.0278C179.341 76.7126 180.301 77.1024 181.304 77.1211C182.718 77.1211 184.197 76.402 185.741 74.9636C187.343 73.44 188.655 71.6415 189.614 69.6546C190.574 67.8882 191.111 65.9254 191.184 63.9188C191.184 62.1881 190.813 60.9797 190.073 60.2937C189.487 59.6854 188.691 59.3216 187.845 59.2763C186.452 59.2763 184.907 59.9546 183.279 61.311C181.545 62.7521 180.118 64.5233 179.082 66.5207C177.979 68.4882 177.391 70.6997 177.372 72.9523V72.9406ZM170.777 53.0727L169.014 51.1549C170.618 49.4381 172.507 48.0082 174.597 46.9276C176.358 45.9358 178.335 45.384 180.357 45.3197C181.191 45.3184 182.001 45.5873 182.667 46.0857C183.431 46.6817 184.009 47.4803 184.336 48.3893C184.783 49.6179 184.995 50.9189 184.959 52.2249C184.948 53.0393 184.747 53.8399 184.372 54.5637C183.98 55.3433 183.045 57.0077 181.568 59.557C182.768 58.3209 184.21 57.3436 185.806 56.6861C187.362 56.0448 189.03 55.7169 190.714 55.7214C192.313 55.709 193.892 56.0822 195.316 56.8089C196.725 57.5367 197.903 58.64 198.719 59.9955C199.6 61.4936 200.041 63.207 199.994 64.942C199.99 66.8587 199.55 68.7497 198.707 70.4732C197.815 72.2927 196.556 73.9106 195.01 75.2267C193.388 76.6486 191.514 77.7588 189.485 78.501C187.343 79.2976 185.072 79.694 182.785 79.6704C180.499 79.7013 178.233 79.2406 176.143 78.3198C174.272 77.485 172.678 76.1386 171.547 74.4374C170.424 72.6947 169.845 70.6601 169.884 68.5905C169.884 66.088 170.82 62.9696 172.693 59.2354C173.704 57.3059 174.38 56.002 174.738 55.3179C175.097 54.6339 175.403 53.9673 175.673 53.3183C175.917 52.7999 176.06 52.2406 176.096 51.6695C176.102 51.4523 176.032 51.24 175.898 51.0684C175.764 50.8968 175.574 50.7766 175.361 50.7281H174.239C172.848 51.0896 171.624 51.9152 170.771 53.0669L170.777 53.0727ZM140.866 60.2937H151.052L154.778 46.2611H163.853L156.93 71.4145C156.788 71.9883 156.721 72.5778 156.73 73.1686C156.73 73.6481 157.129 73.8878 157.941 73.8878C158.605 73.8878 159.986 72.6132 162.055 70.023L163.818 71.4262C160.292 76.9223 156.693 79.6704 153.021 79.6704C151.632 79.6796 150.268 79.2964 149.089 78.5653C147.884 77.8169 147.285 76.5715 147.285 74.8174C147.34 73.6712 147.537 72.5361 147.872 71.4379L150.153 62.8079H140.073L135.87 78.7349H126.86L133.602 53.6457C133.621 53.543 133.653 53.4429 133.696 53.3475C133.74 53.2499 133.773 53.148 133.796 53.0435V52.184C133.619 51.7455 133.173 51.5174 132.462 51.5174C131.862 51.5309 131.292 51.7788 130.875 52.2074C130.134 52.9497 129.462 53.7558 128.864 54.6163L126.99 52.9675C128.662 50.8338 130.575 48.8976 132.691 47.1966C134.176 45.9963 136.02 45.3216 137.933 45.2788C139.262 45.2524 140.561 45.6635 141.63 46.4482C142.683 47.2375 143.217 48.5589 143.217 50.4416C143.204 51.297 143.065 52.1459 142.806 52.9616L140.866 60.2937ZM100.505 63.071C102.98 62.6525 105.35 61.7652 107.488 60.4574C109.253 59.3976 110.753 57.9519 111.873 56.2301C112.784 54.8352 113.286 53.2156 113.324 51.5525C113.324 49.0676 112.396 47.828 110.521 47.828C109.222 47.828 107.923 48.5764 106.63 50.0966C105.201 51.8186 104.029 53.7367 103.15 55.7915C102.093 58.1553 101.209 60.592 100.505 63.0827V63.071ZM116.933 68.3449L118.931 70.0639C116.717 72.8952 114.007 75.3057 110.932 77.1796C108.274 78.7851 105.226 79.6383 102.116 79.647C99.9319 79.6546 97.7784 79.1371 95.8387 78.1385C93.8611 77.1288 92.2062 75.5898 91.0603 73.6948C89.8049 71.5844 89.1715 69.1652 89.2324 66.7136C89.2543 64.0403 89.8452 61.4019 90.9663 58.9723C93.3386 53.6992 97.5676 49.4714 102.856 47.0855C105.503 45.8872 108.377 45.271 111.285 45.2788C113.242 45.2072 115.188 45.5854 116.974 46.3838C118.255 46.9656 119.338 47.9045 120.092 49.0867C120.846 50.2688 121.239 51.6434 121.224 53.0435C121.238 54.2098 120.973 55.3628 120.452 56.4077C119.931 57.4526 119.168 58.3596 118.226 59.0541C116.011 60.7489 113.5 62.0233 110.821 62.8137C107.917 63.7258 104.344 64.636 100.1 65.5442C99.7622 66.6838 99.5842 67.8643 99.571 69.0524C99.4991 70.7394 100.005 72.4008 101.005 73.765C101.493 74.3769 102.121 74.8639 102.837 75.1853C103.553 75.5067 104.335 75.6532 105.119 75.6126C106.352 75.6106 107.571 75.3537 108.699 74.8584C109.841 74.3689 110.921 73.7447 111.914 72.9991C112.889 72.2511 113.815 71.4426 114.688 70.5784C115.558 69.7131 116.31 68.9647 116.945 68.3157L116.933 68.3449ZM56.6651 71.5022C56.6651 73.496 57.1765 74.8525 58.1991 75.5951C59.1541 76.3273 60.326 76.7241 61.5317 76.7235C63.6946 76.7235 65.7282 75.3261 67.6326 72.5547C69.6293 69.5547 71.1609 66.2729 72.1759 62.8196C73.3122 59.1126 73.8804 56.1424 73.8804 53.9088C73.8804 49.8433 72.3463 47.8085 69.2783 47.8047C67.3681 47.8047 65.4402 49.1202 63.4713 51.7689C61.3457 54.7003 59.7011 57.9487 58.5988 61.3929C57.4087 64.6283 56.7556 68.0348 56.6651 71.4789V71.5022ZM59.263 33.1698L57.8054 33.965L55.2486 29.6733C57.0667 28.338 59.123 27.3579 61.3084 26.785C63.2379 26.3575 65.2091 26.1438 67.1859 26.1476C69.9858 26.0586 72.7602 26.7018 75.2322 28.0128C77.4381 29.241 79.2915 31.0103 80.616 33.1523C82.051 35.4949 83.069 38.0663 83.6253 40.7533C84.2899 43.8883 84.6111 47.0857 84.5833 50.2896C84.6352 54.4202 84.02 58.5322 82.7613 62.4687C81.6848 65.864 79.9629 69.022 77.689 71.7712C75.6705 74.2212 73.1498 76.2146 70.2951 77.6181C67.5763 78.9417 64.588 79.6259 61.5611 79.6178C59.0226 79.6313 56.5191 79.0292 54.2671 77.8637C51.9807 76.7051 50.0692 74.9286 48.7519 72.7381C47.4347 70.5475 46.7652 68.0319 46.8203 65.4799C46.821 61.9776 47.78 58.5415 49.5945 55.5401C51.4486 52.4322 54.0891 49.8619 57.2529 48.0853C60.5661 46.1989 64.3267 45.2298 68.1439 45.2788C70.7471 45.2522 73.2835 46.0988 75.3439 47.6819C75.9153 45.4009 76.2249 43.0627 76.2666 40.7123C76.3359 38.4051 75.8924 36.1112 74.9677 33.9942C74.2543 32.3339 73.0598 30.9227 71.5366 29.9406C70.0135 28.9586 68.2307 28.4503 66.4159 28.4806C64.7606 28.5283 63.1439 28.9887 61.7139 29.8195C60.08 30.7082 59.2571 31.8367 59.2571 33.2224" fill="#231F20" fill-opacity="0.1"/>
</g>
<defs>
<clipPath id="clip0">
<rect width="200" height="100" fill="white"/>
</clipPath>
</defs>
</svg>
