<svg width="352" height="176" viewBox="0 0 352 176" fill="none" xmlns="http://www.w3.org/2000/svg">
<g clip-path="url(#clip0)">
<path d="M88.4655 0C105.963 1.18998e-07 123.067 5.16167 137.615 14.8323C152.164 24.5028 163.503 38.248 170.198 54.3294C176.893 70.4109 178.645 88.1063 175.23 105.178C171.816 122.25 163.39 137.931 151.016 150.238C138.643 162.545 122.879 170.926 105.718 174.321C88.5566 177.715 70.7688 175.971 54.6041 169.308C38.4393 162.646 24.6236 151.364 14.9041 136.891C5.18463 122.417 -0.00204538 105.401 6.05076e-07 87.9949C0.00274391 64.6562 9.3244 42.2744 25.9146 25.7725C42.5048 9.27053 65.0048 -1.59555e-07 88.4655 0" fill="#EC2227" fill-opacity="0.1"/>
<path d="M312.174 128.375C312.114 129.385 312.278 130.395 312.655 131.335C313.032 132.274 313.613 133.119 314.357 133.809C315.64 135.014 317.329 135.7 319.094 135.733C321.584 135.733 324.187 134.467 326.904 131.936C329.723 129.254 332.032 126.089 333.721 122.592C335.41 119.483 336.356 116.028 336.483 112.497C336.483 109.451 335.832 107.324 334.528 106.117C333.498 105.046 332.096 104.406 330.608 104.326C328.156 104.326 325.435 105.52 322.57 107.907C319.519 110.444 317.008 113.561 315.184 117.076C313.244 120.539 312.208 124.431 312.174 128.396V128.375ZM300.567 93.4078L297.464 90.0325C300.287 87.0109 303.611 84.4943 307.291 82.5924C310.391 80.8468 313.869 79.8757 317.429 79.7625C318.895 79.7603 320.322 80.2335 321.494 81.1106C322.838 82.1596 323.857 83.5651 324.432 85.1651C325.218 87.3274 325.59 89.6171 325.529 91.9157C325.509 93.3489 325.154 94.758 324.494 96.0319C323.805 97.404 322.16 100.333 319.56 104.82C321.671 102.645 324.21 100.925 327.018 99.7674C329.756 98.6387 332.692 98.0616 335.656 98.0695C338.471 98.0477 341.25 98.7044 343.755 99.9835C346.236 101.264 348.31 103.206 349.745 105.592C351.295 108.229 352.073 111.244 351.99 114.298C351.983 117.671 351.208 120.999 349.724 124.033C348.154 127.235 345.939 130.082 343.218 132.399C340.362 134.901 337.065 136.855 333.494 138.162C329.724 139.564 325.726 140.261 321.701 140.22C317.678 140.274 313.691 139.463 310.012 137.843C306.719 136.373 303.914 134.004 301.923 131.01C299.946 127.942 298.928 124.362 298.995 120.719C298.995 116.315 300.643 110.826 303.94 104.254C305.719 100.858 306.909 98.5634 307.54 97.3594C308.171 96.1554 308.709 94.9823 309.184 93.84C309.613 92.9277 309.866 91.9433 309.929 90.9381C309.939 90.5559 309.815 90.1822 309.58 89.8802C309.344 89.5783 309.011 89.3667 308.636 89.2813H306.66C304.212 89.9176 302.058 91.3707 300.557 93.3975L300.567 93.4078ZM247.925 106.117H265.852L272.41 81.4193H288.382L276.196 125.689C275.947 126.699 275.828 127.737 275.844 128.777C275.844 129.62 276.548 130.042 277.975 130.042C279.144 130.042 281.575 127.799 285.216 123.24L288.32 125.71C282.113 135.383 275.779 140.22 269.317 140.22C266.872 140.236 264.472 139.562 262.397 138.275C260.276 136.958 259.221 134.766 259.221 131.679C259.318 129.661 259.666 127.663 260.255 125.731L264.269 110.542H246.528L239.132 138.573H223.274L235.139 94.4163C235.173 94.2355 235.229 94.0594 235.305 93.8915C235.382 93.7197 235.441 93.5404 235.48 93.3564V91.8437C235.17 91.0719 234.384 90.6705 233.132 90.6705C232.077 90.6942 231.073 91.1305 230.339 91.8848C229.036 93.1913 227.852 94.6101 226.801 96.1246L223.502 93.2226C226.446 89.4673 229.812 86.0595 233.536 83.0658C236.15 80.9533 239.396 79.7658 242.763 79.6905C245.101 79.6441 247.388 80.3677 249.27 81.7486C251.121 83.1378 252.062 85.4635 252.062 88.7771C252.039 90.2826 251.795 91.7767 251.338 93.2123L247.925 106.117ZM176.89 111.005C181.244 110.268 185.416 108.707 189.179 106.405C192.285 104.54 194.924 101.995 196.896 98.9647C198.499 96.5098 199.384 93.6592 199.451 90.7323C199.451 86.3588 197.816 84.1772 194.516 84.1772C192.23 84.1772 189.944 85.4944 187.668 88.1699C185.153 91.2006 183.091 94.5764 181.545 98.193C179.684 102.353 178.128 106.642 176.89 111.025V111.005ZM205.802 120.287L209.319 123.312C205.422 128.295 200.653 132.538 195.241 135.836C190.562 138.662 185.197 140.163 179.724 140.179C175.88 140.192 172.09 139.281 168.676 137.524C165.195 135.746 162.283 133.038 160.266 129.703C158.057 125.988 156.942 121.731 157.049 117.416C157.087 112.711 158.128 108.067 160.101 103.791C164.276 94.5105 171.719 87.0695 181.027 82.8703C185.685 80.7614 190.744 79.6768 195.861 79.6905C199.305 79.5645 202.731 80.23 205.875 81.6354C208.128 82.6592 210.034 84.3118 211.362 86.3923C212.689 88.4729 213.381 90.8922 213.354 93.3564C213.378 95.4091 212.913 97.4383 211.996 99.2773C211.078 101.116 209.736 102.713 208.078 103.935C204.178 106.918 199.76 109.161 195.044 110.552C189.934 112.157 183.644 113.759 176.176 115.358C175.581 117.363 175.268 119.441 175.245 121.532C175.118 124.501 176.008 127.425 177.769 129.826C178.628 130.903 179.733 131.76 180.993 132.326C182.252 132.892 183.63 133.149 185.01 133.078C187.18 133.074 189.325 132.622 191.31 131.751C193.321 130.889 195.22 129.79 196.968 128.478C198.684 127.162 200.315 125.739 201.851 124.218C203.382 122.695 204.706 121.378 205.823 120.235L205.802 120.287ZM99.7305 125.844C99.7305 129.353 100.63 131.74 102.43 133.047C104.111 134.336 106.174 135.034 108.296 135.033C112.102 135.033 115.682 132.574 119.033 127.696C122.547 122.416 125.243 116.64 127.029 110.562C129.029 104.038 130.029 98.8104 130.029 94.8794C130.029 87.724 127.329 84.1429 121.93 84.136C118.568 84.136 115.175 86.4514 111.709 91.113C107.968 96.2724 105.074 101.99 103.134 108.051C101.039 113.746 99.8898 119.741 99.7305 125.803V125.844ZM104.303 58.3787L101.737 59.7782L97.2375 52.2249C100.437 49.8747 104.056 48.1496 107.903 47.1413C111.299 46.389 114.768 46.0128 118.247 46.0197C123.175 45.863 128.058 46.9949 132.409 49.3024C136.291 51.4641 139.553 54.5779 141.884 58.3478C144.41 62.4709 146.201 66.9965 147.18 71.7256C148.35 77.2432 148.915 82.8707 148.867 88.5095C148.958 95.7793 147.875 103.017 145.66 109.945C143.765 115.921 140.735 121.479 136.733 126.317C133.18 130.629 128.743 134.137 123.719 136.608C118.934 138.937 113.675 140.141 108.347 140.127C103.88 140.151 99.4734 139.091 95.51 137.04C91.486 135.001 88.1216 131.874 85.8033 128.019C83.4849 124.164 82.3066 119.736 82.4036 115.244C82.4049 109.08 84.0928 103.033 87.2862 97.7505C90.5495 92.2805 95.1968 87.7567 100.765 84.63C106.596 81.3099 113.215 79.6043 119.933 79.6905C124.515 79.6438 128.979 81.1337 132.605 83.9199C133.611 79.9053 134.156 75.7902 134.229 71.6535C134.351 67.5929 133.571 63.5555 131.943 59.8296C130.687 56.9075 128.585 54.4237 125.904 52.6953C123.224 50.9669 120.086 50.0723 116.892 50.1256C113.979 50.2097 111.133 51.0199 108.616 52.4822C105.741 54.0463 104.292 56.0324 104.292 58.4713" fill="#231F20" fill-opacity="0.1"/>
</g>
<defs>
<clipPath id="clip0">
<rect width="352" height="176" fill="white"/>
</clipPath>
</defs>
</svg>
