<svg width="92" height="46" viewBox="0 0 92 46" fill="none" xmlns="http://www.w3.org/2000/svg">
<path d="M23.1217 0C27.6948 3.11017e-08 32.1653 1.34907 35.9677 3.87661C39.7701 6.40415 42.7336 9.99663 44.4836 14.1997C46.2335 18.4028 46.6912 23.0278 45.7989 27.4897C44.9065 31.9516 42.7041 36.05 39.4702 39.2667C36.2363 42.4834 32.1162 44.6739 27.6308 45.5611C23.1455 46.4483 18.4964 45.9924 14.2715 44.2511C10.0466 42.5097 6.43571 39.5612 3.89539 35.7783C1.35507 31.9954 -0.000534588 27.548 1.58145e-07 22.9987C0.000717157 16.8988 2.43706 11.049 6.77314 6.73599C11.1092 2.42298 16.9899 -4.17019e-08 23.1217 0" fill="#EC2227"/>
<path d="M81.5909 33.5524C81.5751 33.8163 81.6181 34.0804 81.7167 34.3259C81.8153 34.5713 81.9671 34.7921 82.1614 34.9725C82.4969 35.2875 82.9384 35.4669 83.3997 35.4755C84.0503 35.4755 84.7307 35.1447 85.4409 34.483C86.1776 33.7821 86.7811 32.9548 87.2226 32.0409C87.6641 31.2283 87.9111 30.3254 87.9445 29.4024C87.9445 28.6063 87.7742 28.0504 87.4335 27.7348C87.1641 27.455 86.7977 27.2877 86.4088 27.2669C85.7681 27.2669 85.057 27.5788 84.3081 28.2028C83.5105 28.8657 82.8542 29.6805 82.3777 30.5993C81.8705 31.5043 81.5999 32.5216 81.5909 33.5578V33.5524ZM78.5574 24.4132L77.7463 23.531C78.4842 22.7413 79.353 22.0835 80.3148 21.5865C81.1248 21.1302 82.034 20.8764 82.9644 20.8468C83.3476 20.8462 83.7206 20.9699 84.0269 21.1992C84.3781 21.4733 84.6443 21.8407 84.7947 22.2588C85.0003 22.824 85.0975 23.4224 85.0813 24.0232C85.0761 24.3978 84.9836 24.7661 84.811 25.0991C84.6307 25.4577 84.2008 26.2233 83.5213 27.396C84.0731 26.8273 84.7367 26.3778 85.4707 26.0754C86.1863 25.7804 86.9536 25.6295 87.7282 25.6316C88.4641 25.6259 89.1905 25.7975 89.8452 26.1319C90.4935 26.4666 91.0355 26.9741 91.4106 27.5977C91.8158 28.2868 92.019 29.075 91.9973 29.8731C91.9954 30.7548 91.793 31.6246 91.4052 32.4174C90.9947 33.2544 90.4159 33.9986 89.7046 34.604C88.9583 35.2581 88.0966 35.7688 87.1631 36.1102C86.1778 36.4766 85.1329 36.659 84.081 36.6481C83.0295 36.6624 81.9873 36.4504 81.0258 36.0268C80.1652 35.6428 79.432 35.0235 78.9116 34.241C78.3951 33.4393 78.1288 32.5034 78.1465 31.5514C78.1465 30.4002 78.5772 28.9658 79.4388 27.248C79.9038 26.3605 80.2147 25.7607 80.3797 25.446C80.5446 25.1313 80.6852 24.8247 80.8096 24.5262C80.9216 24.2877 80.9877 24.0304 81.0042 23.7677C81.0067 23.6678 80.9745 23.5701 80.9129 23.4912C80.8513 23.4123 80.7642 23.357 80.6663 23.3347H80.1499C79.51 23.501 78.9469 23.8808 78.5547 24.4105L78.5574 24.4132ZM64.7985 27.7348H69.4839L71.1981 21.2798H75.3725L72.1876 32.8504C72.1224 33.1144 72.0915 33.3855 72.0957 33.6573C72.0957 33.8779 72.2795 33.9881 72.6526 33.9881C72.9581 33.9881 73.5935 33.4018 74.5452 32.2103L75.3563 32.8558C73.7341 35.384 72.0785 36.6481 70.3897 36.6481C69.7505 36.6524 69.1233 36.4761 68.5809 36.1398C68.0267 35.7955 67.7509 35.2227 67.7509 34.4158C67.7763 33.8885 67.8671 33.3663 68.0213 32.8612L69.0703 28.8914H64.4335L62.5004 36.2178H58.3557L61.4568 24.6768C61.4658 24.6295 61.4803 24.5835 61.5 24.5396C61.5202 24.4947 61.5356 24.4479 61.546 24.3998V24.0044C61.4649 23.8027 61.2594 23.6978 60.9323 23.6978C60.6565 23.704 60.3942 23.818 60.2023 24.0151C59.8618 24.3566 59.5523 24.7274 59.2776 25.1233L58.4152 24.3648C59.1847 23.3833 60.0646 22.4926 61.0377 21.7102C61.7209 21.158 62.5694 20.8477 63.4494 20.828C64.0604 20.8159 64.6582 21.005 65.15 21.3659C65.6339 21.729 65.88 22.3368 65.88 23.2029C65.8737 23.5964 65.81 23.9869 65.6907 24.3621L64.7985 27.7348ZM46.2325 29.0124C47.3706 28.8199 48.461 28.4118 49.4444 27.8102C50.2564 27.3226 50.9461 26.6576 51.4614 25.8656C51.8805 25.224 52.1117 24.4789 52.1292 23.7139C52.1292 22.5708 51.702 22.0006 50.8395 22.0006C50.242 22.0006 49.6445 22.3449 49.0497 23.0442C48.3923 23.8363 47.8533 24.7186 47.4491 25.6639C46.9628 26.7512 46.5562 27.8721 46.2325 29.0178V29.0124ZM53.7892 31.4384L54.7085 32.2291C53.6898 33.5315 52.4433 34.6404 51.0288 35.5024C49.806 36.2409 48.4038 36.6334 46.9733 36.6374C45.9687 36.6409 44.978 36.4028 44.0858 35.9435C43.1761 35.479 42.4148 34.771 41.8877 33.8994C41.3102 32.9286 41.0189 31.8157 41.0469 30.688C41.0569 29.4583 41.3288 28.2446 41.8445 27.127C42.9357 24.7014 44.8811 22.7566 47.314 21.6591C48.5312 21.1079 49.8536 20.8244 51.191 20.828C52.0911 20.7951 52.9866 20.969 53.8081 21.3363C54.3971 21.6039 54.8953 22.0358 55.2423 22.5796C55.5893 23.1234 55.7701 23.7557 55.7629 24.3998C55.7693 24.9363 55.6476 25.4666 55.4079 25.9473C55.1682 26.4279 54.8173 26.8451 54.384 27.1647C53.3648 27.9442 52.21 28.5305 50.9774 28.8941C49.6418 29.3136 47.998 29.7323 46.0459 30.1501C45.8906 30.6743 45.8087 31.2174 45.8026 31.7638C45.7696 32.5399 46.0021 33.3041 46.4623 33.9317C46.6868 34.2131 46.9757 34.4371 47.3049 34.585C47.6342 34.7328 47.9941 34.8002 48.3549 34.7816C48.9219 34.7806 49.4826 34.6625 50.0014 34.4346C50.527 34.2094 51.0235 33.9223 51.4803 33.5793C51.9288 33.2352 52.355 32.8633 52.7564 32.4658C53.1566 32.0678 53.5026 31.7235 53.7946 31.425L53.7892 31.4384ZM26.0659 32.8908C26.0659 33.8079 26.3011 34.4319 26.7716 34.7735C27.2109 35.1103 27.7499 35.2929 28.3046 35.2926C29.2995 35.2926 30.235 34.6498 31.1109 33.3749C32.0294 31.9949 32.734 30.4853 33.2009 28.8967C33.7236 27.1915 33.9849 25.8252 33.9849 24.7978C33.9849 22.9277 33.2793 21.9917 31.868 21.9899C30.9893 21.9899 30.1025 22.595 29.1968 23.8134C28.219 25.1619 27.4625 26.6562 26.9554 28.2405C26.408 29.7288 26.1076 31.2958 26.0659 32.88V32.8908ZM27.2609 15.2579L26.5904 15.6236L25.4143 13.6495C26.2507 13.0352 27.1966 12.5844 28.2018 12.3208C29.0894 12.1242 29.9961 12.0259 30.9055 12.0277C32.1934 11.9867 33.4697 12.2826 34.6068 12.8856C35.6215 13.4506 36.4741 14.2645 37.0833 15.2498C37.7434 16.3274 38.2117 17.5103 38.4676 18.7462C38.7733 20.1884 38.9211 21.6592 38.9083 23.133C38.9321 25.033 38.6492 26.9246 38.0702 28.7354C37.575 30.2972 36.7829 31.7499 35.7369 33.0145C34.8084 34.1415 33.6489 35.0585 32.3357 35.7041C31.0851 36.3129 29.7104 36.6277 28.3181 36.6239C27.1504 36.6301 25.9987 36.3532 24.9628 35.817C23.9111 35.2841 23.0318 34.4669 22.4259 33.4593C21.8199 32.4516 21.512 31.2944 21.5373 30.1205C21.5377 28.5094 21.9788 26.9288 22.8134 25.5482C23.6663 24.1186 24.881 22.9362 26.3363 22.119C27.8604 21.2512 29.5903 20.8055 31.3462 20.828C32.5437 20.8158 33.7104 21.2052 34.6581 21.9334C34.921 20.8841 35.0634 19.8086 35.0826 18.7274C35.1145 17.6661 34.9105 16.6109 34.4851 15.6371C34.1569 14.8733 33.6075 14.2242 32.9068 13.7724C32.2062 13.3207 31.3861 13.0869 30.5513 13.1008C29.7899 13.1228 29.0462 13.3346 28.3884 13.7167C27.6368 14.1255 27.2582 14.6446 27.2582 15.2821" fill="white"/>
</svg>
