<svg width="79" height="40" viewBox="0 0 79 40" fill="none" xmlns="http://www.w3.org/2000/svg">
<path fill-rule="evenodd" clip-rule="evenodd" d="M72.427 36.3332V36.3329C72.6083 36.1495 72.6083 35.8501 72.427 35.667L71.7635 34.9997L72.427 34.3333C72.6083 34.1502 72.6083 33.8505 72.427 33.6668C72.2429 33.4838 71.9447 33.4838 71.7635 33.6668L71.1 34.3333L70.4364 33.6671C70.2552 33.4838 69.9571 33.4838 69.7729 33.6671C69.5917 33.8508 69.5917 34.1505 69.7729 34.3333L70.4364 34.9997L69.7729 35.6665C69.5917 35.8501 69.5917 36.1495 69.7729 36.3329C69.9571 36.5163 70.2552 36.5163 70.4364 36.3329L71.1 35.6665L71.7635 36.3332C71.9447 36.5165 72.2429 36.5165 72.427 36.3332Z" fill="#141111"/>
<path fill-rule="evenodd" clip-rule="evenodd" d="M75.3508 39.835V39.8346C75.535 39.6149 75.535 39.2552 75.3508 39.0352L74.69 38.235L75.3508 37.4352C75.535 37.2155 75.535 36.8558 75.3508 36.6354V36.6351C75.1695 36.4158 74.8713 36.4158 74.69 36.6351L74.0263 37.4352L73.3626 36.6358C73.1814 36.4157 72.8831 36.4157 72.6989 36.6358C72.5177 36.8558 72.5177 37.2155 72.6989 37.4352L73.3626 38.235L72.6989 39.0348C72.5177 39.2549 72.5177 39.6146 72.6989 39.8346C72.8831 40.0547 73.1814 40.0547 73.3626 39.8346L74.0263 39.0348L74.69 39.835C74.8713 40.055 75.1695 40.055 75.3508 39.835Z" fill="#141111"/>
<path fill-rule="evenodd" clip-rule="evenodd" d="M69.5011 33.3918C69.6824 33.2084 69.6824 32.9086 69.5011 32.7256L68.8374 32.0587L69.5011 31.3916C69.6824 31.2086 69.6824 30.9091 69.5011 30.7257V30.7254C69.3198 30.5424 69.0216 30.5424 68.8374 30.7254L68.1737 31.3922L67.51 30.7257C67.3288 30.5427 67.0305 30.5427 66.8493 30.7257C66.6651 30.9091 66.6651 31.2089 66.8493 31.3922L67.51 32.0587L66.8493 32.725C66.6651 32.9086 66.6651 33.2081 66.8493 33.3915C67.0305 33.5749 67.3288 33.5749 67.51 33.3915L68.1737 32.725L68.8374 33.3918C69.0216 33.5751 69.3198 33.5751 69.5011 33.3918Z" fill="#E92D22"/>
<path fill-rule="evenodd" clip-rule="evenodd" d="M69.5011 36.3332V36.3329C69.6824 36.1495 69.6824 35.8501 69.5011 35.667L68.8374 34.9997L69.5011 34.3333C69.6824 34.1502 69.6824 33.8505 69.5011 33.6668C69.3198 33.4838 69.0216 33.4838 68.8374 33.6668L68.1737 34.3333L67.51 33.6671C67.3288 33.4838 67.0305 33.4838 66.8493 33.6671C66.6651 33.8508 66.6651 34.1505 66.8493 34.3333L67.51 34.9997L66.8493 35.6665C66.6651 35.8501 66.6651 36.1495 66.8493 36.3329C67.0305 36.5163 67.3288 36.5163 67.51 36.3329L68.1737 35.6665L68.8374 36.3332C69.0216 36.5165 69.3198 36.5165 69.5011 36.3332Z" fill="#E92D22"/>
<path fill-rule="evenodd" clip-rule="evenodd" d="M78.8342 36.3332V36.3329C79.0553 36.1495 79.0553 35.8501 78.8342 35.667L78.0378 34.9997L78.8342 34.3333C79.0553 34.1502 79.0553 33.8505 78.8342 33.6668C78.6167 33.4838 78.2588 33.4838 78.0378 33.6668L77.2414 34.3333L76.4485 33.6671C76.2274 33.4838 75.8696 33.4838 75.652 33.6671C75.4345 33.8508 75.4345 34.1505 75.652 34.3333L76.4485 34.9997L75.652 35.6665C75.4345 35.8501 75.4345 36.1495 75.652 36.3329C75.8696 36.5163 76.2274 36.5163 76.4485 36.3329L77.2414 35.6665L78.0378 36.3332C78.2588 36.5165 78.6167 36.5165 78.8342 36.3332Z" fill="#E92D22"/>
<path fill-rule="evenodd" clip-rule="evenodd" d="M69.5011 39.835V39.8346C69.6824 39.6149 69.6824 39.2552 69.5011 39.0352L68.8374 38.235L69.5011 37.4352C69.6824 37.2155 69.6824 36.8558 69.5011 36.6354V36.6351C69.3198 36.4158 69.0216 36.4158 68.8374 36.6351L68.1737 37.4352L67.51 36.6358C67.3288 36.4157 67.0305 36.4157 66.8493 36.6358C66.6651 36.8558 66.6651 37.2155 66.8493 37.4352L67.51 38.235L66.8493 39.0348C66.6651 39.2549 66.6651 39.6146 66.8493 39.8346C67.0305 40.0547 67.3288 40.0547 67.51 39.8346L68.1737 39.0348L68.8374 39.835C69.0216 40.055 69.3198 40.055 69.5011 39.835Z" fill="#E92D22"/>
<path fill-rule="evenodd" clip-rule="evenodd" d="M78.8342 39.835V39.8346C79.0553 39.6149 79.0553 39.2552 78.8342 39.0352L78.0378 38.235L78.8342 37.4352C79.0553 37.2155 79.0553 36.8558 78.8342 36.6354V36.6351C78.6167 36.4158 78.2588 36.4158 78.0378 36.6351L77.2414 37.4352L76.4485 36.6358C76.2274 36.4157 75.8696 36.4157 75.652 36.6358C75.4345 36.8558 75.4345 37.2155 75.652 37.4352L76.4485 38.235L75.652 39.0348C75.4345 39.2549 75.4345 39.6146 75.652 39.8346C75.8696 40.0547 76.2274 40.0547 76.4485 39.8346L77.2414 39.0348L78.0378 39.835C78.2588 40.055 78.6167 40.055 78.8342 39.835Z" fill="#E92D22"/>
<path fill-rule="evenodd" clip-rule="evenodd" d="M42.8551 6.60844H42.8557C43.0381 6.42477 43.336 6.42477 43.5184 6.60844L44.1814 7.27525L44.8449 6.60844C45.0271 6.42477 45.3249 6.42477 45.5073 6.60844H45.5076C45.69 6.79182 45.69 7.0913 45.5076 7.27497L44.8443 7.94175L45.5073 8.60796C45.6895 8.79134 45.6895 9.09081 45.5073 9.27449V9.27477C45.3249 9.45756 45.0267 9.45756 44.8443 9.27477L44.1814 8.60796L43.519 9.27477C43.336 9.45756 43.0381 9.45756 42.8557 9.27477V9.27449C42.6733 9.09081 42.6733 8.79134 42.8557 8.60796L43.519 7.94175L42.8551 7.27497C42.673 7.0913 42.673 6.79182 42.8551 6.60844Z" fill="#141111"/>
<path fill-rule="evenodd" clip-rule="evenodd" d="M36.4185 6.60844C36.6009 6.42477 36.8985 6.42477 37.081 6.60844L37.7446 7.27525L38.4076 6.60844C38.59 6.42477 38.8885 6.42477 39.0706 6.60844C39.253 6.79182 39.253 7.0913 39.0706 7.27497L38.4076 7.94175L39.0703 8.60796C39.2527 8.79134 39.2527 9.09081 39.0703 9.27449V9.27477C38.8879 9.45756 38.59 9.45756 38.4076 9.27477L37.7446 8.60796L37.0815 9.27477C36.8991 9.45756 36.6009 9.45756 36.4185 9.27477V9.27449C36.2364 9.09081 36.2364 8.79134 36.4185 8.60796L37.0815 7.94175L36.4185 7.27497C36.2358 7.0913 36.2358 6.79182 36.4185 6.60844Z" fill="#141111"/>
<path fill-rule="evenodd" clip-rule="evenodd" d="M30.5662 6.60844C30.7487 6.42477 31.0472 6.42477 31.2296 6.60844L31.8927 7.27525L32.5564 6.60844C32.7382 6.42477 33.0364 6.42477 33.2189 6.60844H33.2192C33.401 6.79182 33.401 7.0913 33.2192 7.27497L32.5558 7.94175L33.2189 8.60796C33.401 8.79134 33.401 9.09081 33.2189 9.27449V9.27477C33.0364 9.45756 32.7382 9.45756 32.5558 9.27477L31.8927 8.60796L31.2302 9.27477C31.0472 9.45756 30.7487 9.45756 30.5662 9.27477V9.27449C30.3841 9.09081 30.3841 8.79134 30.5662 8.60796L31.2302 7.94175L30.5662 7.27497C30.3841 7.0913 30.3841 6.79182 30.5662 6.60844Z" fill="#141111"/>
<path fill-rule="evenodd" clip-rule="evenodd" d="M24.1294 6.60844C24.3115 6.42477 24.61 6.42477 24.7921 6.60844L25.4554 7.27525L26.1187 6.60844C26.3011 6.42477 26.599 6.42477 26.7814 6.60844H26.7817C26.9641 6.79182 26.9641 7.0913 26.7817 7.27497L26.1182 7.94175L26.7814 8.60796C26.9639 8.79134 26.9639 9.09081 26.7814 9.27449V9.27477C26.599 9.45756 26.3006 9.45756 26.1182 9.27477L25.4554 8.60796L24.7927 9.27477C24.61 9.45756 24.3121 9.45756 24.1297 9.27477V9.27449C23.9473 9.09081 23.9473 8.79134 24.1297 8.60796L24.7927 7.94175L24.1294 7.27497C23.947 7.0913 23.947 6.79182 24.1294 6.60844Z" fill="#141111"/>
<path fill-rule="evenodd" clip-rule="evenodd" d="M18.278 6.60844C18.4601 6.42477 18.7583 6.42477 18.9407 6.60844L19.6039 7.27525L20.2669 6.60844C20.4493 6.42477 20.7469 6.42477 20.9299 6.60844C21.1123 6.79182 21.1123 7.0913 20.9299 7.27497L20.2669 7.94175L20.9293 8.60796C21.1117 8.79134 21.1117 9.09081 20.9293 9.27449V9.27477C20.7469 9.45756 20.4493 9.45756 20.2669 9.27477L19.6039 8.60796L18.941 9.27477C18.7585 9.45756 18.4601 9.45756 18.278 9.27477V9.27449C18.0956 9.09081 18.0956 8.79134 18.278 8.60796L18.941 7.94175L18.278 7.27497C18.095 7.0913 18.095 6.79182 18.278 6.60844Z" fill="#141111"/>
<path fill-rule="evenodd" clip-rule="evenodd" d="M11.8405 6.60844C12.0229 6.42477 12.3213 6.42477 12.5032 6.60844L13.1667 7.27525L13.83 6.60844C14.0118 6.42477 14.3102 6.42477 14.4926 6.60844H14.4932C14.6751 6.79182 14.6751 7.0913 14.4932 7.27497L13.8294 7.94175L14.4926 8.60796C14.675 8.79134 14.675 9.09081 14.4926 9.27449V9.27477C14.3099 9.45756 14.0118 9.45756 13.8294 9.27477L13.1667 8.60796L12.5034 9.27477C12.3213 9.45756 12.0229 9.45756 11.8405 9.27477V9.27449C11.6581 9.09081 11.6581 8.79134 11.8405 8.60796L12.5034 7.94175L11.8405 7.27497C11.6581 7.0913 11.6581 6.79182 11.8405 6.60844Z" fill="#141111"/>
<path fill-rule="evenodd" clip-rule="evenodd" d="M5.98868 6.60844C6.17111 6.42477 6.46932 6.42477 6.65174 6.60844L7.31476 7.27525L7.97839 6.60844C8.16023 6.42477 8.45839 6.42477 8.64082 6.60844H8.64142C8.82325 6.79182 8.82325 7.0913 8.64142 7.27497L7.97808 7.94175L8.64082 8.60796C8.82324 8.79134 8.82324 9.09081 8.64082 9.27449V9.27477C8.45839 9.45756 8.16021 9.45756 7.97808 9.27477L7.31476 8.60796L6.65202 9.27477C6.46931 9.45756 6.17141 9.45756 5.98928 9.27477V9.27449C5.80686 9.09081 5.80686 8.79134 5.98928 8.60796L6.65202 7.94175L5.98868 7.27497C5.80626 7.0913 5.80626 6.79182 5.98868 6.60844Z" fill="#141111"/>
<path fill-rule="evenodd" clip-rule="evenodd" d="M27.0832 9.54918C27.3017 9.36608 27.6595 9.36608 27.878 9.54918L28.674 10.2163L29.4698 9.54918C29.6887 9.36608 30.0469 9.36608 30.2657 9.54918C30.4843 9.73258 30.4843 10.0326 30.2657 10.2157L29.4698 10.8826L30.265 11.5492C30.4839 11.7323 30.4839 12.0321 30.265 12.2155C30.0461 12.3989 29.6887 12.3989 29.4698 12.2155L28.674 11.5492L27.8788 12.2155C27.6599 12.3989 27.3017 12.3989 27.0832 12.2155C26.8643 12.0321 26.8643 11.7323 27.0832 11.5492L27.8788 10.8826L27.0832 10.2157C26.8636 10.0326 26.8636 9.73258 27.0832 9.54918Z" fill="#E92D22"/>
<path fill-rule="evenodd" clip-rule="evenodd" d="M27.0832 0.137743C27.3017 -0.045934 27.6595 -0.045934 27.878 0.137743L28.674 0.804549L29.4698 0.137743C29.6887 -0.045934 30.0469 -0.045934 30.2657 0.137743C30.4843 0.320832 30.4843 0.620584 30.2657 0.804261L29.4698 1.4711L30.265 2.13733C30.4839 2.32042 30.4839 2.62046 30.265 2.80385C30.0461 2.98693 29.6887 2.98693 29.4698 2.80385L28.674 2.13733L27.8788 2.80385C27.6599 2.98693 27.3017 2.98693 27.0832 2.80385C26.8643 2.62046 26.8643 2.32042 27.0832 2.13733L27.8788 1.4711L27.0832 0.804261C26.8636 0.620584 26.8636 0.320832 27.0832 0.137743Z" fill="#E92D22"/>
<path fill-rule="evenodd" clip-rule="evenodd" d="M5.98868 0.137743C6.17111 -0.045934 6.46932 -0.045934 6.65174 0.137743L7.31476 0.804549L7.97839 0.137743C8.16023 -0.045934 8.45839 -0.045934 8.64082 0.137743H8.64142C8.82325 0.320832 8.82325 0.620584 8.64142 0.804261L7.97808 1.4711L8.64082 2.13733C8.82324 2.32042 8.82324 2.62046 8.64082 2.80385C8.45839 2.98693 8.16021 2.98693 7.97808 2.80385L7.31476 2.13733L6.65202 2.80385C6.46931 2.98693 6.17141 2.98693 5.98928 2.80385C5.80686 2.62046 5.80686 2.32042 5.98928 2.13733L6.65202 1.4711L5.98868 0.804261C5.80626 0.620584 5.80626 0.320832 5.98868 0.137743Z" fill="#E92D22"/>
<path fill-rule="evenodd" clip-rule="evenodd" d="M39.3713 3.10633C39.5902 2.88628 39.9484 2.88628 40.1673 3.10633L40.9629 3.90651L41.7592 3.10633C41.9774 2.88628 42.3356 2.88628 42.5545 3.10633H42.5549C42.7731 3.32674 42.7731 3.68611 42.5549 3.90616L41.7585 4.7063L42.5545 5.50613C42.7731 5.72583 42.7731 6.08553 42.5545 6.30558V6.30593C42.3356 6.52563 41.9774 6.52563 41.7585 6.30593L40.9629 5.50613L40.1673 6.30593C39.9484 6.52563 39.5909 6.52563 39.3713 6.30593V6.30558C39.1528 6.08553 39.1528 5.72583 39.3713 5.50613L40.1673 4.7063L39.3713 3.90616C39.1528 3.68611 39.1528 3.32674 39.3713 3.10633Z" fill="#141111"/>
<path fill-rule="evenodd" clip-rule="evenodd" d="M33.4923 3.10633H33.4926C33.6745 2.88628 33.9726 2.88628 34.1551 3.10633L34.8186 3.90651L35.4819 3.10633C35.6643 2.88628 35.9619 2.88628 36.1444 3.10633H36.1446C36.3271 3.32674 36.3271 3.68611 36.1446 3.90616L35.4814 4.7063L36.1444 5.50613C36.3265 5.72583 36.3265 6.08553 36.1444 6.30558V6.30593C35.9619 6.52563 35.6638 6.52563 35.4814 6.30593L34.8186 5.50613L34.1556 6.30593C33.9726 6.52563 33.675 6.52563 33.4926 6.30593V6.30558C33.3102 6.08553 33.3102 5.72583 33.4926 5.50613L34.1556 4.7063L33.4923 3.90616C33.3099 3.68611 33.3099 3.32674 33.4923 3.10633Z" fill="#141111"/>
<path fill-rule="evenodd" clip-rule="evenodd" d="M27.0832 3.10633C27.3017 2.88628 27.6595 2.88628 27.878 3.10633L28.674 3.90651L29.4698 3.10633C29.6887 2.88628 30.0469 2.88628 30.2657 3.10633C30.4843 3.32674 30.4843 3.68611 30.2657 3.90616L29.4698 4.7063L30.265 5.50613C30.4839 5.72583 30.4839 6.08553 30.265 6.30558V6.30593C30.0461 6.52563 29.6887 6.52563 29.4698 6.30593L28.674 5.50613L27.8788 6.30593C27.6599 6.52563 27.3017 6.52563 27.0832 6.30593V6.30558C26.8643 6.08553 26.8643 5.72583 27.0832 5.50613L27.8788 4.7063L27.0832 3.90616C26.8636 3.68611 26.8636 3.32674 27.0832 3.10633Z" fill="#141111"/>
<path fill-rule="evenodd" clip-rule="evenodd" d="M21.2035 3.10633C21.3856 2.88628 21.6841 2.88628 21.8663 3.10633L22.5296 3.90651L23.193 3.10633C23.3749 2.88628 23.6734 2.88628 23.8558 3.10633H23.8564C24.038 3.32674 24.038 3.68611 23.8564 3.90616L23.1924 4.7063L23.8558 5.50613C24.038 5.72583 24.038 6.08553 23.8558 6.30558V6.30593C23.6731 6.52563 23.3749 6.52563 23.1924 6.30593L22.5296 5.50613L21.8663 6.30593C21.6841 6.52563 21.3856 6.52563 21.2035 6.30593V6.30558C21.021 6.08553 21.021 5.72583 21.2035 5.50613L21.8663 4.7063L21.2035 3.90616C21.021 3.68611 21.021 3.32674 21.2035 3.10633Z" fill="#141111"/>
<path fill-rule="evenodd" clip-rule="evenodd" d="M14.7938 3.10633C15.0127 2.88628 15.3709 2.88628 15.5894 3.10633L16.3851 3.90651L17.1814 3.10633C17.3996 2.88628 17.7575 2.88628 17.9764 3.10633H17.9771C18.1953 3.32674 18.1953 3.68611 17.9771 3.90616L17.1811 4.7063L17.9764 5.50613C18.1953 5.72583 18.1953 6.08553 17.9764 6.30558V6.30593C17.7575 6.52563 17.3996 6.52563 17.1811 6.30593L16.3851 5.50613L15.5902 6.30593C15.3709 6.52563 15.0131 6.52563 14.7945 6.30593V6.30558C14.5756 6.08553 14.5756 5.72583 14.7945 5.50613L15.5902 4.7063L14.7938 3.90616C14.5749 3.68611 14.5749 3.32674 14.7938 3.10633Z" fill="#141111"/>
<path fill-rule="evenodd" clip-rule="evenodd" d="M8.91457 3.10633H8.91517C9.09727 2.88628 9.39513 2.88628 9.57752 3.10633L10.241 3.90651L10.9037 3.10633C11.0861 2.88628 11.3842 2.88628 11.5669 3.10633C11.7493 3.32674 11.7493 3.68611 11.5669 3.90616L10.9037 4.7063L11.5663 5.50613C11.7487 5.72583 11.7487 6.08553 11.5663 6.30558V6.30593C11.3842 6.52563 11.0861 6.52563 10.9037 6.30593L10.241 5.50613L9.57781 6.30593C9.3957 6.52563 9.09727 6.52563 8.91517 6.30593V6.30558C8.73277 6.08553 8.73277 5.72583 8.91517 5.50613L9.57781 4.7063L8.91457 3.90616C8.73217 3.68611 8.73217 3.32674 8.91457 3.10633Z" fill="#141111"/>
<path fill-rule="evenodd" clip-rule="evenodd" d="M3.06273 3.10633C3.24516 2.88628 3.54307 2.88628 3.7255 3.10633L4.38888 3.90651L5.05223 3.10633C5.23437 2.88628 5.53287 2.88628 5.71501 3.10633C5.89744 3.32674 5.89744 3.68611 5.71501 3.90616L5.05223 4.7063L5.71501 5.50613C5.89685 5.72583 5.89685 6.08553 5.71501 6.30558V6.30593C5.53228 6.52563 5.23437 6.52563 5.05223 6.30593L4.38888 5.50613L3.72579 6.30593C3.54365 6.52563 3.24516 6.52563 3.06273 6.30593V6.30558C2.8803 6.08553 2.8803 5.72583 3.06273 5.50613L3.72579 4.7063L3.06273 3.90616C2.8803 3.68611 2.8803 3.32674 3.06273 3.10633Z" fill="#141111"/>
<path fill-rule="evenodd" clip-rule="evenodd" d="M45.7813 9.54918C45.9638 9.36608 46.2618 9.36608 46.4443 9.54918L47.1079 10.2163L47.7714 9.54918C47.9539 9.36608 48.2522 9.36608 48.4344 9.54918C48.6157 9.73258 48.6157 10.0326 48.4344 10.2157L47.7714 10.8826L48.4341 11.5492C48.6157 11.7323 48.6157 12.0321 48.4341 12.2155C48.2516 12.3989 47.9539 12.3989 47.7714 12.2155L47.1079 11.5492L46.4446 12.2155C46.2621 12.3989 45.9638 12.3989 45.7813 12.2155C45.5988 12.0321 45.5988 11.7323 45.7813 11.5492L46.4446 10.8826L45.7813 10.2157C45.5988 10.0326 45.5988 9.73258 45.7813 9.54918Z" fill="#E92D22"/>
<path fill-rule="evenodd" clip-rule="evenodd" d="M24.1294 9.54918C24.3115 9.36608 24.61 9.36608 24.7921 9.54918L25.4554 10.2163L26.1187 9.54918C26.3011 9.36608 26.599 9.36608 26.7814 9.54918H26.7817C26.9641 9.73258 26.9641 10.0326 26.7817 10.2157L26.1182 10.8826L26.7814 11.5492C26.9639 11.7323 26.9639 12.0321 26.7814 12.2155C26.599 12.3989 26.3006 12.3989 26.1182 12.2155L25.4554 11.5492L24.7927 12.2155C24.61 12.3989 24.3121 12.3989 24.1297 12.2155C23.9473 12.0321 23.9473 11.7323 24.1297 11.5492L24.7927 10.8826L24.1294 10.2157C23.947 10.0326 23.947 9.73258 24.1294 9.54918Z" fill="#E92D22"/>
<path fill-rule="evenodd" clip-rule="evenodd" d="M24.1294 0.137743C24.3115 -0.045934 24.61 -0.045934 24.7921 0.137743L25.4554 0.804549L26.1187 0.137743C26.3011 -0.045934 26.599 -0.045934 26.7814 0.137743H26.7817C26.9641 0.320832 26.9641 0.620584 26.7817 0.804261L26.1182 1.4711L26.7814 2.13733C26.9639 2.32042 26.9639 2.62046 26.7814 2.80385C26.599 2.98693 26.3006 2.98693 26.1182 2.80385L25.4554 2.13733L24.7927 2.80385C24.61 2.98693 24.3121 2.98693 24.1297 2.80385C23.9473 2.62046 23.9473 2.32042 24.1297 2.13733L24.7927 1.4711L24.1294 0.804261C23.947 0.620584 23.947 0.320832 24.1294 0.137743Z" fill="#E92D22"/>
<path fill-rule="evenodd" clip-rule="evenodd" d="M3.06273 0.137743C3.24516 -0.045934 3.54307 -0.045934 3.7255 0.137743L4.38888 0.804549L5.05223 0.137743C5.23437 -0.045934 5.53287 -0.045934 5.71501 0.137743C5.89744 0.320832 5.89744 0.620584 5.71501 0.804261L5.05223 1.4711L5.71501 2.13733C5.89685 2.32042 5.89685 2.62046 5.71501 2.80385C5.53228 2.98693 5.23437 2.98693 5.05223 2.80385L4.38888 2.13733L3.72579 2.80385C3.54365 2.98693 3.24516 2.98693 3.06273 2.80385C2.8803 2.62046 2.8803 2.32042 3.06273 2.13733L3.72579 1.4711L3.06273 0.804261C2.8803 0.620584 2.8803 0.320832 3.06273 0.137743Z" fill="#E92D22"/>
<path fill-rule="evenodd" clip-rule="evenodd" d="M42.8551 9.54918H42.8557C43.0381 9.36608 43.336 9.36608 43.5184 9.54918L44.1814 10.2163L44.8449 9.54918C45.0271 9.36608 45.3249 9.36608 45.5073 9.54918H45.5076C45.69 9.73258 45.69 10.0326 45.5076 10.2157L44.8443 10.8826L45.5073 11.5492C45.6895 11.7323 45.6895 12.0321 45.5073 12.2155C45.3249 12.3989 45.0267 12.3989 44.8443 12.2155L44.1814 11.5492L43.519 12.2155C43.336 12.3989 43.0381 12.3989 42.8557 12.2155C42.6733 12.0321 42.6733 11.7323 42.8557 11.5492L43.519 10.8826L42.8551 10.2157C42.673 10.0326 42.673 9.73258 42.8551 9.54918Z" fill="#E92D22"/>
<path fill-rule="evenodd" clip-rule="evenodd" d="M42.8551 0.137743H42.8557C43.0381 -0.045934 43.336 -0.045934 43.5184 0.137743L44.1814 0.804549L44.8449 0.137743C45.0271 -0.045934 45.3249 -0.045934 45.5073 0.137743H45.5076C45.69 0.320832 45.69 0.620584 45.5076 0.804261L44.8443 1.4711L45.5073 2.13733C45.6895 2.32042 45.6895 2.62046 45.5073 2.80385C45.3249 2.98693 45.0267 2.98693 44.8443 2.80385L44.1814 2.13733L43.519 2.80385C43.336 2.98693 43.0381 2.98693 42.8557 2.80385C42.6733 2.62046 42.6733 2.32042 42.8557 2.13733L43.519 1.4711L42.8551 0.804261C42.673 0.620584 42.673 0.320832 42.8551 0.137743Z" fill="#E92D22"/>
<path fill-rule="evenodd" clip-rule="evenodd" d="M21.2035 9.54918C21.3856 9.36608 21.6841 9.36608 21.8663 9.54918L22.5296 10.2163L23.193 9.54918C23.3749 9.36608 23.6734 9.36608 23.8558 9.54918H23.8564C24.038 9.73258 24.038 10.0326 23.8564 10.2157L23.1924 10.8826L23.8558 11.5492C24.038 11.7323 24.038 12.0321 23.8558 12.2155C23.6731 12.3989 23.3749 12.3989 23.1924 12.2155L22.5296 11.5492L21.8663 12.2155C21.6841 12.3989 21.3856 12.3989 21.2035 12.2155C21.021 12.0321 21.021 11.7323 21.2035 11.5492L21.8663 10.8826L21.2035 10.2157C21.021 10.0326 21.021 9.73258 21.2035 9.54918Z" fill="#E92D22"/>
<path fill-rule="evenodd" clip-rule="evenodd" d="M21.2035 0.137743C21.3856 -0.045934 21.6841 -0.045934 21.8663 0.137743L22.5296 0.804549L23.193 0.137743C23.3749 -0.045934 23.6734 -0.045934 23.8558 0.137743H23.8564C24.038 0.320832 24.038 0.620584 23.8564 0.804261L23.1924 1.4711L23.8558 2.13733C24.038 2.32042 24.038 2.62046 23.8558 2.80385C23.6731 2.98693 23.3749 2.98693 23.1924 2.80385L22.5296 2.13733L21.8663 2.80385C21.6841 2.98693 21.3856 2.98693 21.2035 2.80385C21.021 2.62046 21.021 2.32042 21.2035 2.13733L21.8663 1.4711L21.2035 0.804261C21.021 0.620584 21.021 0.320832 21.2035 0.137743Z" fill="#E92D22"/>
<path fill-rule="evenodd" clip-rule="evenodd" d="M0.136574 0.137743H0.137173C0.319564 -0.045934 0.617408 -0.045934 0.799799 0.137743L1.46302 0.804549L2.12622 0.137743C2.30832 -0.045934 2.60645 -0.045934 2.78913 0.137743C2.97152 0.320832 2.97152 0.620584 2.78913 0.804261L2.12622 1.4711L2.78885 2.13733C2.97095 2.32042 2.97095 2.62046 2.78885 2.80385C2.60646 2.98693 2.30803 2.98693 2.12622 2.80385L1.46302 2.13733L0.80037 2.80385C0.617395 2.98693 0.319564 2.98693 0.137173 2.80385C-0.0452175 2.62046 -0.0452175 2.32042 0.137173 2.13733L0.80037 1.4711L0.136574 0.804261C-0.0455246 0.620584 -0.0455246 0.320832 0.136574 0.137743Z" fill="#E92D22"/>
<path fill-rule="evenodd" clip-rule="evenodd" d="M39.3713 9.54918C39.5902 9.36608 39.9484 9.36608 40.1673 9.54918L40.9629 10.2163L41.7592 9.54918C41.9774 9.36608 42.3356 9.36608 42.5545 9.54918H42.5549C42.7731 9.73258 42.7731 10.0326 42.5549 10.2157L41.7585 10.8826L42.5545 11.5492C42.7731 11.7323 42.7731 12.0321 42.5545 12.2155C42.3356 12.3989 41.9774 12.3989 41.7585 12.2155L40.9629 11.5492L40.1673 12.2155C39.9484 12.3989 39.5909 12.3989 39.3713 12.2155C39.1528 12.0321 39.1528 11.7323 39.3713 11.5492L40.1673 10.8826L39.3713 10.2157C39.1528 10.0326 39.1528 9.73258 39.3713 9.54918Z" fill="#E92D22"/>
<path fill-rule="evenodd" clip-rule="evenodd" d="M39.3713 0.137743C39.5902 -0.045934 39.9484 -0.045934 40.1673 0.137743L40.9629 0.804549L41.7592 0.137743C41.9774 -0.045934 42.3356 -0.045934 42.5545 0.137743H42.5549C42.7731 0.320832 42.7731 0.620584 42.5549 0.804261L41.7585 1.4711L42.5545 2.13733C42.7731 2.32042 42.7731 2.62046 42.5545 2.80385C42.3356 2.98693 41.9774 2.98693 41.7585 2.80385L40.9629 2.13733L40.1673 2.80385C39.9484 2.98693 39.5909 2.98693 39.3713 2.80385C39.1528 2.62046 39.1528 2.32042 39.3713 2.13733L40.1673 1.4711L39.3713 0.804261C39.1528 0.620584 39.1528 0.320832 39.3713 0.137743Z" fill="#E92D22"/>
<path fill-rule="evenodd" clip-rule="evenodd" d="M18.278 9.54918C18.4601 9.36608 18.7583 9.36608 18.9407 9.54918L19.6039 10.2163L20.2669 9.54918C20.4493 9.36608 20.7469 9.36608 20.9299 9.54918C21.1123 9.73258 21.1123 10.0326 20.9299 10.2157L20.2669 10.8826L20.9293 11.5492C21.1117 11.7323 21.1117 12.0321 20.9293 12.2155C20.7469 12.3989 20.4493 12.3989 20.2669 12.2155L19.6039 11.5492L18.941 12.2155C18.7585 12.3989 18.4601 12.3989 18.278 12.2155C18.0956 12.0321 18.0956 11.7323 18.278 11.5492L18.941 10.8826L18.278 10.2157C18.095 10.0326 18.095 9.73258 18.278 9.54918Z" fill="#E92D22"/>
<path fill-rule="evenodd" clip-rule="evenodd" d="M18.278 0.137743C18.4601 -0.045934 18.7583 -0.045934 18.9407 0.137743L19.6039 0.804549L20.2669 0.137743C20.4493 -0.045934 20.7469 -0.045934 20.9299 0.137743C21.1123 0.320832 21.1123 0.620584 20.9299 0.804261L20.2669 1.4711L20.9293 2.13733C21.1117 2.32042 21.1117 2.62046 20.9293 2.80385C20.7469 2.98693 20.4493 2.98693 20.2669 2.80385L19.6039 2.13733L18.941 2.80385C18.7585 2.98693 18.4601 2.98693 18.278 2.80385C18.0956 2.62046 18.0956 2.32042 18.278 2.13733L18.941 1.4711L18.278 0.804261C18.095 0.620584 18.095 0.320832 18.278 0.137743Z" fill="#E92D22"/>
<path fill-rule="evenodd" clip-rule="evenodd" d="M36.4185 9.54918C36.6009 9.36608 36.8985 9.36608 37.081 9.54918L37.7446 10.2163L38.4076 9.54918C38.59 9.36608 38.8885 9.36608 39.0706 9.54918C39.253 9.73258 39.253 10.0326 39.0706 10.2157L38.4076 10.8826L39.0703 11.5492C39.2527 11.7323 39.2527 12.0321 39.0703 12.2155C38.8879 12.3989 38.59 12.3989 38.4076 12.2155L37.7446 11.5492L37.0815 12.2155C36.8991 12.3989 36.6009 12.3989 36.4185 12.2155C36.2364 12.0321 36.2364 11.7323 36.4185 11.5492L37.0815 10.8826L36.4185 10.2157C36.2358 10.0326 36.2358 9.73258 36.4185 9.54918Z" fill="#E92D22"/>
<path fill-rule="evenodd" clip-rule="evenodd" d="M36.4185 0.137743C36.6009 -0.045934 36.8985 -0.045934 37.081 0.137743L37.7446 0.804549L38.4076 0.137743C38.59 -0.045934 38.8885 -0.045934 39.0706 0.137743C39.253 0.320832 39.253 0.620584 39.0706 0.804261L38.4076 1.4711L39.0703 2.13733C39.2527 2.32042 39.2527 2.62046 39.0703 2.80385C38.8879 2.98693 38.59 2.98693 38.4076 2.80385L37.7446 2.13733L37.0815 2.80385C36.8991 2.98693 36.6009 2.98693 36.4185 2.80385C36.2364 2.62046 36.2364 2.32042 36.4185 2.13733L37.0815 1.4711L36.4185 0.804261C36.2358 0.620584 36.2358 0.320832 36.4185 0.137743Z" fill="#E92D22"/>
<path fill-rule="evenodd" clip-rule="evenodd" d="M14.7938 9.54918C15.0127 9.36608 15.3709 9.36608 15.5894 9.54918L16.3851 10.2163L17.1814 9.54918C17.3996 9.36608 17.7575 9.36608 17.9764 9.54918H17.9771C18.1953 9.73258 18.1953 10.0326 17.9771 10.2157L17.1811 10.8826L17.9764 11.5492C18.1953 11.7323 18.1953 12.0321 17.9764 12.2155C17.7575 12.3989 17.3996 12.3989 17.1811 12.2155L16.3851 11.5492L15.5902 12.2155C15.3709 12.3989 15.0131 12.3989 14.7945 12.2155C14.5756 12.0321 14.5756 11.7323 14.7945 11.5492L15.5902 10.8826L14.7938 10.2157C14.5749 10.0326 14.5749 9.73258 14.7938 9.54918Z" fill="#E92D22"/>
<path fill-rule="evenodd" clip-rule="evenodd" d="M14.7938 0.137743C15.0127 -0.045934 15.3709 -0.045934 15.5894 0.137743L16.3851 0.804549L17.1814 0.137743C17.3996 -0.045934 17.7575 -0.045934 17.9764 0.137743H17.9771C18.1953 0.320832 18.1953 0.620584 17.9771 0.804261L17.1811 1.4711L17.9764 2.13733C18.1953 2.32042 18.1953 2.62046 17.9764 2.80385C17.7575 2.98693 17.3996 2.98693 17.1811 2.80385L16.3851 2.13733L15.5902 2.80385C15.3709 2.98693 15.0131 2.98693 14.7945 2.80385C14.5756 2.62046 14.5756 2.32042 14.7945 2.13733L15.5902 1.4711L14.7938 0.804261C14.5749 0.620584 14.5749 0.320832 14.7938 0.137743Z" fill="#E92D22"/>
<path fill-rule="evenodd" clip-rule="evenodd" d="M33.4923 9.54918H33.4926C33.6745 9.36608 33.9726 9.36608 34.1551 9.54918L34.8186 10.2163L35.4819 9.54918C35.6643 9.36608 35.9619 9.36608 36.1444 9.54918H36.1446C36.3271 9.73258 36.3271 10.0326 36.1446 10.2157L35.4814 10.8826L36.1444 11.5492C36.3265 11.7323 36.3265 12.0321 36.1444 12.2155C35.9619 12.3989 35.6638 12.3989 35.4814 12.2155L34.8186 11.5492L34.1556 12.2155C33.9726 12.3989 33.675 12.3989 33.4926 12.2155C33.3102 12.0321 33.3102 11.7323 33.4926 11.5492L34.1556 10.8826L33.4923 10.2157C33.3099 10.0326 33.3099 9.73258 33.4923 9.54918Z" fill="#E92D22"/>
<path fill-rule="evenodd" clip-rule="evenodd" d="M33.4923 0.137743H33.4926C33.6745 -0.045934 33.9726 -0.045934 34.1551 0.137743L34.8186 0.804549L35.4819 0.137743C35.6643 -0.045934 35.9619 -0.045934 36.1444 0.137743H36.1446C36.3271 0.320832 36.3271 0.620584 36.1446 0.804261L35.4814 1.4711L36.1444 2.13733C36.3265 2.32042 36.3265 2.62046 36.1444 2.80385C35.9619 2.98693 35.6638 2.98693 35.4814 2.80385L34.8186 2.13733L34.1556 2.80385C33.9726 2.98693 33.675 2.98693 33.4926 2.80385C33.3102 2.62046 33.3102 2.32042 33.4926 2.13733L34.1556 1.4711L33.4923 0.804261C33.3099 0.620584 33.3099 0.320832 33.4923 0.137743Z" fill="#E92D22"/>
<path fill-rule="evenodd" clip-rule="evenodd" d="M11.8405 9.54918C12.0229 9.36608 12.3213 9.36608 12.5032 9.54918L13.1667 10.2163L13.83 9.54918C14.0118 9.36608 14.3102 9.36608 14.4926 9.54918H14.4932C14.6751 9.73258 14.6751 10.0326 14.4932 10.2157L13.8294 10.8826L14.4926 11.5492C14.675 11.7323 14.675 12.0321 14.4926 12.2155C14.3099 12.3989 14.0118 12.3989 13.8294 12.2155L13.1667 11.5492L12.5034 12.2155C12.3213 12.3989 12.0229 12.3989 11.8405 12.2155C11.6581 12.0321 11.6581 11.7323 11.8405 11.5492L12.5034 10.8826L11.8405 10.2157C11.6581 10.0326 11.6581 9.73258 11.8405 9.54918Z" fill="#E92D22"/>
<path fill-rule="evenodd" clip-rule="evenodd" d="M11.8405 0.137743C12.0229 -0.045934 12.3213 -0.045934 12.5032 0.137743L13.1667 0.804549L13.83 0.137743C14.0118 -0.045934 14.3102 -0.045934 14.4926 0.137743H14.4932C14.6751 0.320832 14.6751 0.620584 14.4932 0.804261L13.8294 1.4711L14.4926 2.13733C14.675 2.32042 14.675 2.62046 14.4926 2.80385C14.3099 2.98693 14.0118 2.98693 13.8294 2.80385L13.1667 2.13733L12.5034 2.80385C12.3213 2.98693 12.0229 2.98693 11.8405 2.80385C11.6581 2.62046 11.6581 2.32042 11.8405 2.13733L12.5034 1.4711L11.8405 0.804261C11.6581 0.620584 11.6581 0.320832 11.8405 0.137743Z" fill="#E92D22"/>
<path fill-rule="evenodd" clip-rule="evenodd" d="M30.5662 9.54918C30.7487 9.36608 31.0472 9.36608 31.2296 9.54918L31.8927 10.2163L32.5564 9.54918C32.7382 9.36608 33.0364 9.36608 33.2189 9.54918H33.2192C33.401 9.73258 33.401 10.0326 33.2192 10.2157L32.5558 10.8826L33.2189 11.5492C33.401 11.7323 33.401 12.0321 33.2189 12.2155C33.0364 12.3989 32.7382 12.3989 32.5558 12.2155L31.8927 11.5492L31.2302 12.2155C31.0472 12.3989 30.7487 12.3989 30.5662 12.2155C30.3841 12.0321 30.3841 11.7323 30.5662 11.5492L31.2302 10.8826L30.5662 10.2157C30.3841 10.0326 30.3841 9.73258 30.5662 9.54918Z" fill="#E92D22"/>
<path fill-rule="evenodd" clip-rule="evenodd" d="M30.5662 0.137743C30.7487 -0.045934 31.0472 -0.045934 31.2296 0.137743L31.8927 0.804549L32.5564 0.137743C32.7382 -0.045934 33.0364 -0.045934 33.2189 0.137743H33.2192C33.401 0.320832 33.401 0.620584 33.2192 0.804261L32.5558 1.4711L33.2189 2.13733C33.401 2.32042 33.401 2.62046 33.2189 2.80385C33.0364 2.98693 32.7382 2.98693 32.5558 2.80385L31.8927 2.13733L31.2302 2.80385C31.0472 2.98693 30.7487 2.98693 30.5662 2.80385C30.3841 2.62046 30.3841 2.32042 30.5662 2.13733L31.2302 1.4711L30.5662 0.804261C30.3841 0.620584 30.3841 0.320832 30.5662 0.137743Z" fill="#E92D22"/>
<path fill-rule="evenodd" clip-rule="evenodd" d="M8.91457 9.54918H8.91517C9.09727 9.36608 9.39513 9.36608 9.57752 9.54918L10.241 10.2163L10.9037 9.54918C11.0861 9.36608 11.3842 9.36608 11.5669 9.54918C11.7493 9.73258 11.7493 10.0326 11.5669 10.2157L10.9037 10.8826L11.5663 11.5492C11.7487 11.7323 11.7487 12.0321 11.5663 12.2155C11.3842 12.3989 11.0861 12.3989 10.9037 12.2155L10.241 11.5492L9.57781 12.2155C9.3957 12.3989 9.09727 12.3989 8.91517 12.2155C8.73277 12.0321 8.73277 11.7323 8.91517 11.5492L9.57781 10.8826L8.91457 10.2157C8.73217 10.0326 8.73217 9.73258 8.91457 9.54918Z" fill="#E92D22"/>
<path fill-rule="evenodd" clip-rule="evenodd" d="M8.91457 0.137743H8.91517C9.09727 -0.045934 9.39513 -0.045934 9.57752 0.137743L10.241 0.804549L10.9037 0.137743C11.0861 -0.045934 11.3842 -0.045934 11.5669 0.137743C11.7493 0.320832 11.7493 0.620584 11.5669 0.804261L10.9037 1.4711L11.5663 2.13733C11.7487 2.32042 11.7487 2.62046 11.5663 2.80385C11.3842 2.98693 11.0861 2.98693 10.9037 2.80385L10.241 2.13733L9.57781 2.80385C9.3957 2.98693 9.09727 2.98693 8.91517 2.80385C8.73277 2.62046 8.73277 2.32042 8.91517 2.13733L9.57781 1.4711L8.91457 0.804261C8.73217 0.620584 8.73217 0.320832 8.91457 0.137743Z" fill="#E92D22"/>
<path fill-rule="evenodd" clip-rule="evenodd" d="M66.5751 18.098V18.0978C66.7564 17.9144 66.7564 17.6146 66.5751 17.4318L65.9114 16.7647L66.5751 16.0979C66.7564 15.9145 66.7564 15.6151 66.5751 15.4317C66.3939 15.2483 66.0956 15.2483 65.9114 15.4317L65.2477 16.0985L64.5841 15.432C64.4028 15.2483 64.1046 15.2483 63.9233 15.432C63.7391 15.6151 63.7391 15.9148 63.9233 16.0985L64.5841 16.7647L63.9233 17.4312C63.7391 17.6146 63.7391 17.9144 63.9233 18.0978C64.1046 18.2811 64.4028 18.2811 64.5841 18.0978L65.2477 17.4312L65.9114 18.098C66.0956 18.2811 66.3939 18.2811 66.5751 18.098Z" fill="#141111"/>
<path fill-rule="evenodd" clip-rule="evenodd" d="M57.5113 18.098V18.0978C57.2938 17.9144 57.2938 17.6146 57.5113 17.4318L58.3077 16.7647L57.5113 16.0979C57.2938 15.9145 57.2938 15.6151 57.5113 15.4317C57.7288 15.2483 58.0867 15.2483 58.3077 15.4317L59.1041 16.0985L59.9006 15.432C60.1181 15.2483 60.476 15.2483 60.6935 15.432C60.9145 15.6151 60.9145 15.9148 60.6935 16.0985L59.9006 16.7647L60.6935 17.4312C60.9145 17.6146 60.9145 17.9144 60.6935 18.0978C60.476 18.2811 60.1181 18.2811 59.9006 18.0978L59.1041 17.4312L58.3077 18.098C58.0867 18.2811 57.7288 18.2811 57.5113 18.098Z" fill="#141111"/>
<path fill-rule="evenodd" clip-rule="evenodd" d="M63.6471 18.098V18.0978C63.8312 17.9144 63.8312 17.6146 63.6471 17.4318L62.9839 16.7647L63.6471 16.0979C63.8312 15.9145 63.8312 15.6151 63.6471 15.4317C63.466 15.2483 63.168 15.2483 62.9839 15.4317L62.3207 16.0985L61.6605 15.432C61.4764 15.2483 61.1784 15.2483 60.9973 15.432C60.8132 15.6151 60.8132 15.9148 60.9973 16.0985L61.6605 16.7647L60.9973 17.4312C60.8132 17.6146 60.8132 17.9144 60.9973 18.0978C61.1784 18.2811 61.4764 18.2811 61.6605 18.0978L62.3207 17.4312L62.9839 18.098C63.168 18.2811 63.466 18.2811 63.6471 18.098Z" fill="#E92D22"/>
<path fill-rule="evenodd" clip-rule="evenodd" d="M78.8342 18.098V18.0978C79.0553 17.9144 79.0553 17.6146 78.8342 17.4318L78.0378 16.7647L78.8342 16.0979C79.0553 15.9145 79.0553 15.6151 78.8342 15.4317C78.6167 15.2483 78.2588 15.2483 78.0378 15.4317L77.2414 16.0985L76.4485 15.432C76.2274 15.2483 75.8696 15.2483 75.652 15.432C75.4345 15.6151 75.4345 15.9148 75.652 16.0985L76.4485 16.7647L75.652 17.4312C75.4345 17.6146 75.4345 17.9144 75.652 18.0978C75.8696 18.2811 76.2274 18.2811 76.4485 18.0978L77.2414 17.4312L78.0378 18.098C78.2588 18.2811 78.6167 18.2811 78.8342 18.098Z" fill="#141111"/>
<path fill-rule="evenodd" clip-rule="evenodd" d="M45.7813 18.098V18.0978C45.5988 17.9144 45.5988 17.6146 45.7813 17.4318L46.4446 16.7647L45.7813 16.0979C45.5988 15.9145 45.5988 15.6151 45.7813 15.4317C45.9638 15.2483 46.2621 15.2483 46.4446 15.4317L47.1079 16.0985L47.7714 15.432C47.9539 15.2483 48.2522 15.2483 48.4344 15.432C48.6157 15.6151 48.6157 15.9148 48.4344 16.0985L47.7714 16.7647L48.4344 17.4312C48.6157 17.6146 48.6157 17.9144 48.4344 18.0978C48.2522 18.2811 47.9539 18.2811 47.7714 18.0978L47.1079 17.4312L46.4446 18.098C46.2621 18.2811 45.9638 18.2811 45.7813 18.098Z" fill="#141111"/>
<path fill-rule="evenodd" clip-rule="evenodd" d="M75.3508 18.098V18.0978C75.535 17.9144 75.535 17.6146 75.3508 17.4318L74.69 16.7647L75.3508 16.0979C75.535 15.9145 75.535 15.6151 75.3508 15.4317C75.1695 15.2483 74.8713 15.2483 74.69 15.4317L74.0263 16.0985L73.3626 15.432C73.1814 15.2483 72.8831 15.2483 72.6989 15.432C72.5177 15.6151 72.5177 15.9148 72.6989 16.0985L73.3626 16.7647L72.6989 17.4312C72.5177 17.6146 72.5177 17.9144 72.6989 18.0978C72.8831 18.2811 73.1814 18.2811 73.3626 18.0978L74.0263 17.4312L74.69 18.098C74.8713 18.2811 75.1695 18.2811 75.3508 18.098Z" fill="#E92D22"/>
<path fill-rule="evenodd" clip-rule="evenodd" d="M48.7055 18.098V18.0978C48.5253 17.9144 48.5253 17.6146 48.7055 17.4318L49.3721 16.7647L48.7055 16.0979C48.5253 15.9145 48.5253 15.6151 48.7055 15.4317C48.8897 15.2483 49.1879 15.2483 49.3692 15.4317L50.0329 16.0985L50.6966 15.432C50.8779 15.2483 51.1761 15.2483 51.3603 15.432C51.5416 15.6151 51.5416 15.9148 51.3603 16.0985L50.6966 16.7647L51.3603 17.4312C51.5416 17.6146 51.5416 17.9144 51.3603 18.0978C51.1761 18.2811 50.8779 18.2811 50.6966 18.0978L50.0329 17.4312L49.3692 18.098C49.1879 18.2811 48.8897 18.2811 48.7055 18.098Z" fill="#E92D22"/>
<path fill-rule="evenodd" clip-rule="evenodd" d="M66.5751 21.5996V21.5993C66.7564 21.3792 66.7564 21.0199 66.5751 20.7999L65.9114 19.9998L66.5751 19.1997C66.7564 18.98 66.7564 18.6204 66.5751 18.4C66.3939 18.1803 66.0956 18.1803 65.9114 18.4L65.2477 19.2004L64.5841 18.4003C64.4028 18.1807 64.1046 18.1807 63.9233 18.4003C63.7391 18.6207 63.7391 18.9804 63.9233 19.2004L64.5841 19.9998L63.9233 20.7996C63.7391 21.0196 63.7391 21.3793 63.9233 21.5989C64.1046 21.8193 64.4028 21.8193 64.5841 21.5989L65.2477 20.7996L65.9114 21.5996C66.0956 21.8197 66.3939 21.8197 66.5751 21.5996Z" fill="#E92D22"/>
<path fill-rule="evenodd" clip-rule="evenodd" d="M66.5751 12.4903V12.4906C66.7564 12.674 66.7564 12.9738 66.5751 13.1568L65.9114 13.8236L66.5751 14.4907C66.7564 14.6738 66.7564 14.9735 66.5751 15.1566V15.1569C66.3939 15.34 66.0956 15.34 65.9114 15.1569L65.2477 14.4901L64.5841 15.1566C64.4028 15.34 64.1046 15.34 63.9233 15.1566C63.7391 14.9732 63.7391 14.6735 63.9233 14.4901L64.5841 13.8236L63.9233 13.1571C63.7391 12.9737 63.7391 12.674 63.9233 12.4909C64.1046 12.3073 64.4028 12.3073 64.5841 12.4909L65.2477 13.1571L65.9114 12.4903C66.0956 12.3072 66.3939 12.3072 66.5751 12.4903Z" fill="#E92D22"/>
<path fill-rule="evenodd" clip-rule="evenodd" d="M57.5113 21.5996V21.5993C57.2938 21.3792 57.2938 21.0199 57.5113 20.7999L58.3077 19.9998L57.5113 19.1997C57.2938 18.98 57.2938 18.6204 57.5113 18.4C57.7288 18.1803 58.0867 18.1803 58.3077 18.4L59.1041 19.2004L59.9006 18.4003C60.1181 18.1807 60.476 18.1807 60.6935 18.4003C60.9145 18.6207 60.9145 18.9804 60.6935 19.2004L59.9006 19.9998L60.6935 20.7996C60.9145 21.0196 60.9145 21.3793 60.6935 21.5989C60.476 21.8193 60.1181 21.8193 59.9006 21.5989L59.1041 20.7996L58.3077 21.5996C58.0867 21.8197 57.7288 21.8197 57.5113 21.5996Z" fill="#E92D22"/>
<path fill-rule="evenodd" clip-rule="evenodd" d="M57.5113 12.4903V12.4906C57.2938 12.674 57.2938 12.9738 57.5113 13.1568L58.3077 13.8236L57.5113 14.4907C57.2938 14.6738 57.2938 14.9735 57.5113 15.1566V15.1569C57.7288 15.34 58.0867 15.34 58.3077 15.1569L59.1041 14.4901L59.9006 15.1566C60.1181 15.34 60.476 15.34 60.6935 15.1566C60.9145 14.9732 60.9145 14.6735 60.6935 14.4901L59.9006 13.8236L60.6935 13.1571C60.9145 12.9737 60.9145 12.674 60.6935 12.4909C60.476 12.3073 60.1181 12.3073 59.9006 12.4909L59.1041 13.1571L58.3077 12.4903C58.0867 12.3072 57.7288 12.3072 57.5113 12.4903Z" fill="#E92D22"/>
<path fill-rule="evenodd" clip-rule="evenodd" d="M63.6471 21.5996V21.5993C63.8312 21.3792 63.8312 21.0199 63.6471 20.7999L62.9839 19.9998L63.6471 19.1997C63.8312 18.98 63.8312 18.6204 63.6471 18.4C63.466 18.1803 63.168 18.1803 62.9839 18.4L62.3207 19.2004L61.6605 18.4003C61.4764 18.1807 61.1784 18.1807 60.9973 18.4003C60.8132 18.6207 60.8132 18.9804 60.9973 19.2004L61.6605 19.9998L60.9973 20.7996C60.8132 21.0196 60.8132 21.3793 60.9973 21.5989C61.1784 21.8193 61.4764 21.8193 61.6605 21.5989L62.3207 20.7996L62.9839 21.5996C63.168 21.8197 63.466 21.8197 63.6471 21.5996Z" fill="#141111"/>
<path fill-rule="evenodd" clip-rule="evenodd" d="M63.6471 12.4903V12.4906C63.8312 12.674 63.8312 12.9738 63.6471 13.1568L62.9839 13.8236L63.6471 14.4907C63.8312 14.6738 63.8312 14.9735 63.6471 15.1566V15.1569C63.466 15.34 63.168 15.34 62.9839 15.1569L62.3207 14.4901L61.6605 15.1566C61.4764 15.34 61.1784 15.34 60.9973 15.1566C60.8132 14.9732 60.8132 14.6735 60.9973 14.4901L61.6605 13.8236L60.9973 13.1571C60.8132 12.9737 60.8132 12.674 60.9973 12.4909C61.1784 12.3073 61.4764 12.3073 61.6605 12.4909L62.3207 13.1571L62.9839 12.4903C63.168 12.3072 63.466 12.3072 63.6471 12.4903Z" fill="#141111"/>
<path fill-rule="evenodd" clip-rule="evenodd" d="M75.3508 21.5996V21.5993C75.535 21.3792 75.535 21.0199 75.3508 20.7999L74.69 19.9998L75.3508 19.1997C75.535 18.98 75.535 18.6204 75.3508 18.4C75.1695 18.1803 74.8713 18.1803 74.69 18.4L74.0263 19.2004L73.3626 18.4003C73.1814 18.1807 72.8831 18.1807 72.6989 18.4003C72.5177 18.6207 72.5177 18.9804 72.6989 19.2004L73.3626 19.9998L72.6989 20.7996C72.5177 21.0196 72.5177 21.3793 72.6989 21.5989C72.8831 21.8193 73.1814 21.8193 73.3626 21.5989L74.0263 20.7996L74.69 21.5996C74.8713 21.8197 75.1695 21.8197 75.3508 21.5996Z" fill="#141111"/>
<path fill-rule="evenodd" clip-rule="evenodd" d="M75.3508 12.4903V12.4906C75.535 12.674 75.535 12.9738 75.3508 13.1568L74.69 13.8236L75.3508 14.4907C75.535 14.6738 75.535 14.9735 75.3508 15.1566V15.1569C75.1695 15.34 74.8713 15.34 74.69 15.1569L74.0263 14.4901L73.3626 15.1566C73.1814 15.34 72.8831 15.34 72.6989 15.1566C72.5177 14.9732 72.5177 14.6735 72.6989 14.4901L73.3626 13.8236L72.6989 13.1571C72.5177 12.9737 72.5177 12.674 72.6989 12.4909C72.8831 12.3073 73.1814 12.3073 73.3626 12.4909L74.0263 13.1571L74.69 12.4903C74.8713 12.3072 75.1695 12.3072 75.3508 12.4903Z" fill="#141111"/>
<path fill-rule="evenodd" clip-rule="evenodd" d="M48.7055 21.5996V21.5993C48.5253 21.3792 48.5253 21.0199 48.7055 20.7999L49.3721 19.9998L48.7055 19.1997C48.5253 18.98 48.5253 18.6204 48.7055 18.4C48.8897 18.1803 49.1879 18.1803 49.3692 18.4L50.0329 19.2004L50.6966 18.4003C50.8779 18.1807 51.1761 18.1807 51.3603 18.4003C51.5416 18.6207 51.5416 18.9804 51.3603 19.2004L50.6966 19.9998L51.3603 20.7996C51.5416 21.0196 51.5416 21.3793 51.3603 21.5989C51.1761 21.8193 50.8779 21.8193 50.6966 21.5989L50.0329 20.7996L49.3692 21.5996C49.1879 21.8197 48.8897 21.8197 48.7055 21.5996Z" fill="#141111"/>
<path fill-rule="evenodd" clip-rule="evenodd" d="M48.7055 12.4903V12.4906C48.5253 12.674 48.5253 12.9738 48.7055 13.1568L49.3721 13.8236L48.7055 14.4907C48.5253 14.6738 48.5253 14.9735 48.7055 15.1566V15.1569C48.8897 15.34 49.1879 15.34 49.3692 15.1569L50.0329 14.4901L50.6966 15.1566C50.8779 15.34 51.1761 15.34 51.3603 15.1566C51.5416 14.9732 51.5416 14.6735 51.3603 14.4901L50.6966 13.8236L51.3603 13.1571C51.5416 12.9737 51.5416 12.674 51.3603 12.4909C51.1761 12.3073 50.8779 12.3073 50.6966 12.4909L50.0329 13.1571L49.3692 12.4903C49.1879 12.3072 48.8897 12.3072 48.7055 12.4903Z" fill="#141111"/>
<path fill-rule="evenodd" clip-rule="evenodd" d="M72.4248 21.5996V21.5993C72.609 21.3792 72.609 21.0199 72.4248 20.7999L71.764 19.9998L72.4248 19.1997C72.609 18.98 72.609 18.6204 72.4248 18.4C72.2435 18.1803 71.9453 18.1803 71.764 18.4L71.1003 19.2004L70.4366 18.4003C70.2554 18.1807 69.9572 18.1807 69.773 18.4003C69.5917 18.6207 69.5917 18.9804 69.773 19.2004L70.4366 19.9998L69.773 20.7996C69.5917 21.0196 69.5917 21.3793 69.773 21.5989C69.9572 21.8193 70.2554 21.8193 70.4366 21.5989L71.1003 20.7996L71.764 21.5996C71.9453 21.8197 72.2435 21.8197 72.4248 21.5996Z" fill="#E92D22"/>
<path fill-rule="evenodd" clip-rule="evenodd" d="M72.4248 12.4903V12.4906C72.609 12.674 72.609 12.9738 72.4248 13.1568L71.764 13.8236L72.4248 14.4907C72.609 14.6738 72.609 14.9735 72.4248 15.1566V15.1569C72.2435 15.34 71.9453 15.34 71.764 15.1569L71.1003 14.4901L70.4366 15.1566C70.2554 15.34 69.9572 15.34 69.773 15.1566C69.5917 14.9732 69.5917 14.6735 69.773 14.4901L70.4366 13.8236L69.773 13.1571C69.5917 12.9737 69.5917 12.674 69.773 12.4909C69.9572 12.3073 70.2554 12.3073 70.4366 12.4909L71.1003 13.1571L71.764 12.4903C71.9453 12.3072 72.2435 12.3072 72.4248 12.4903Z" fill="#E92D22"/>
<path fill-rule="evenodd" clip-rule="evenodd" d="M51.6322 21.5996V21.5993C51.451 21.3792 51.451 21.0199 51.6322 20.7999L52.2957 19.9998L51.6322 19.1997C51.451 18.98 51.451 18.6204 51.6322 18.4C51.8163 18.1803 52.1145 18.1803 52.2957 18.4L52.9592 19.2004L53.6228 18.4003C53.804 18.1807 54.1021 18.1807 54.2863 18.4003C54.4675 18.6207 54.4675 18.9804 54.2863 19.2004L53.6228 19.9998L54.2863 20.7996C54.4675 21.0196 54.4675 21.3793 54.2863 21.5989C54.1021 21.8193 53.804 21.8193 53.6228 21.5989L52.9592 20.7996L52.2957 21.5996C52.1145 21.8197 51.8163 21.8197 51.6322 21.5996Z" fill="#E92D22"/>
<path fill-rule="evenodd" clip-rule="evenodd" d="M51.6322 12.4903V12.4906C51.451 12.674 51.451 12.9738 51.6322 13.1568L52.2957 13.8236L51.6322 14.4907C51.451 14.6738 51.451 14.9735 51.6322 15.1566V15.1569C51.8163 15.34 52.1145 15.34 52.2957 15.1569L52.9592 14.4901L53.6228 15.1566C53.804 15.34 54.1021 15.34 54.2863 15.1566C54.4675 14.9732 54.4675 14.6735 54.2863 14.4901L53.6228 13.8236L54.2863 13.1571C54.4675 12.9737 54.4675 12.674 54.2863 12.4909C54.1021 12.3073 53.804 12.3073 53.6228 12.4909L52.9592 13.1571L52.2957 12.4903C52.1145 12.3072 51.8163 12.3072 51.6322 12.4903Z" fill="#E92D22"/>
<path fill-rule="evenodd" clip-rule="evenodd" d="M69.5011 24.5683V24.568C69.6824 24.3846 69.6824 24.0849 69.5011 23.9019L68.8374 23.2351L69.5011 22.5687C69.6824 22.3853 69.6824 22.0856 69.5011 21.9022V21.9019C69.3169 21.7189 69.0187 21.7189 68.8374 21.9019L68.1737 22.5687L67.51 21.9025C67.3288 21.7191 67.0305 21.7191 66.8493 21.9025C66.6651 22.0859 66.6651 22.3853 66.8493 22.5687L67.51 23.2351L66.8493 23.9016C66.6651 24.0846 66.6651 24.3846 66.8493 24.568C67.0305 24.7514 67.3288 24.7514 67.51 24.568L68.1737 23.9016L68.8374 24.5683C69.0187 24.7517 69.3169 24.7517 69.5011 24.5683Z" fill="#E92D22"/>
<path fill-rule="evenodd" clip-rule="evenodd" d="M69.5011 9.54895V9.54924C69.6824 9.73263 69.6824 10.0324 69.5011 10.2155L68.8374 10.8824L69.5011 11.5492C69.6824 11.7326 69.6824 12.0324 69.5011 12.2155C69.3169 12.3989 69.0187 12.3989 68.8374 12.2155L68.1737 11.5489L67.51 12.2155C67.3288 12.3986 67.0305 12.3986 66.8493 12.2155C66.6651 12.0321 66.6651 11.7323 66.8493 11.5489L67.51 10.8824L66.8493 10.2158C66.6651 10.0327 66.6651 9.73293 66.8493 9.54924C67.0305 9.36614 67.3288 9.36614 67.51 9.54924L68.1737 10.2158L68.8374 9.54895C69.0187 9.36615 69.3169 9.36615 69.5011 9.54895Z" fill="#E92D22"/>
<path fill-rule="evenodd" clip-rule="evenodd" d="M54.5582 24.5683V24.568C54.3769 24.3846 54.3769 24.0849 54.5582 23.9019L55.2217 23.2351L54.5582 22.5687C54.3769 22.3853 54.3769 22.0856 54.5582 21.9022V21.9019C54.7423 21.7189 55.0405 21.7189 55.2217 21.9019L55.8852 22.5687L56.5487 21.9025C56.7299 21.7191 57.0281 21.7191 57.2122 21.9025C57.3935 22.0859 57.3935 22.3853 57.2122 22.5687L56.5487 23.2351L57.2122 23.9016C57.3935 24.0846 57.3935 24.3846 57.2122 24.568C57.0281 24.7514 56.7299 24.7514 56.5487 24.568L55.8852 23.9016L55.2217 24.5683C55.0405 24.7517 54.7423 24.7517 54.5582 24.5683Z" fill="#E92D22"/>
<path fill-rule="evenodd" clip-rule="evenodd" d="M54.5582 9.54895V9.54924C54.3769 9.73263 54.3769 10.0324 54.5582 10.2155L55.2217 10.8824L54.5582 11.5492C54.3769 11.7326 54.3769 12.0324 54.5582 12.2155C54.7423 12.3989 55.0405 12.3989 55.2217 12.2155L55.8852 11.5489L56.5487 12.2155C56.7299 12.3986 57.0281 12.3986 57.2122 12.2155C57.3935 12.0321 57.3935 11.7323 57.2122 11.5489L56.5487 10.8824L57.2122 10.2158C57.3935 10.0327 57.3935 9.73293 57.2122 9.54924C57.0281 9.36614 56.7299 9.36614 56.5487 9.54924L55.8852 10.2158L55.2217 9.54895C55.0405 9.36615 54.7423 9.36615 54.5582 9.54895Z" fill="#E92D22"/>
<path fill-rule="evenodd" clip-rule="evenodd" d="M72.4248 24.5683V24.568C72.609 24.3846 72.609 24.0849 72.4248 23.9019L71.764 23.2351L72.4248 22.5687C72.609 22.3853 72.609 22.0856 72.4248 21.9022V21.9019C72.2435 21.7189 71.9453 21.7189 71.764 21.9019L71.1003 22.5687L70.4366 21.9025C70.2554 21.7191 69.9572 21.7191 69.773 21.9025C69.5917 22.0859 69.5917 22.3853 69.773 22.5687L70.4366 23.2351L69.773 23.9016C69.5917 24.0846 69.5917 24.3846 69.773 24.568C69.9572 24.7514 70.2554 24.7514 70.4366 24.568L71.1003 23.9016L71.764 24.5683C71.9453 24.7517 72.2435 24.7517 72.4248 24.5683Z" fill="#141111"/>
<path fill-rule="evenodd" clip-rule="evenodd" d="M72.4248 9.54895V9.54924C72.609 9.73263 72.609 10.0324 72.4248 10.2155L71.764 10.8824L72.4248 11.5492C72.609 11.7326 72.609 12.0324 72.4248 12.2155C72.2435 12.3989 71.9453 12.3989 71.764 12.2155L71.1003 11.5489L70.4366 12.2155C70.2554 12.3986 69.9572 12.3986 69.773 12.2155C69.5917 12.0321 69.5917 11.7323 69.773 11.5489L70.4366 10.8824L69.773 10.2158C69.5917 10.0327 69.5917 9.73293 69.773 9.54924C69.9572 9.36614 70.2554 9.36614 70.4366 9.54924L71.1003 10.2158L71.764 9.54895C71.9453 9.36615 72.2435 9.36615 72.4248 9.54895Z" fill="#141111"/>
<path fill-rule="evenodd" clip-rule="evenodd" d="M51.6322 24.5683V24.568C51.451 24.3846 51.451 24.0849 51.6322 23.9019L52.2957 23.2351L51.6322 22.5687C51.451 22.3853 51.451 22.0856 51.6322 21.9022V21.9019C51.8163 21.7189 52.1145 21.7189 52.2957 21.9019L52.9592 22.5687L53.6228 21.9025C53.804 21.7191 54.1021 21.7191 54.2863 21.9025C54.4675 22.0859 54.4675 22.3853 54.2863 22.5687L53.6228 23.2351L54.2863 23.9016C54.4675 24.0846 54.4675 24.3846 54.2863 24.568C54.1021 24.7514 53.804 24.7514 53.6228 24.568L52.9592 23.9016L52.2957 24.5683C52.1145 24.7517 51.8163 24.7517 51.6322 24.5683Z" fill="#141111"/>
<path fill-rule="evenodd" clip-rule="evenodd" d="M51.6322 9.54895V9.54924C51.451 9.73263 51.451 10.0324 51.6322 10.2155L52.2957 10.8824L51.6322 11.5492C51.451 11.7326 51.451 12.0324 51.6322 12.2155C51.8163 12.3989 52.1145 12.3989 52.2957 12.2155L52.9592 11.5489L53.6228 12.2155C53.804 12.3986 54.1021 12.3986 54.2863 12.2155C54.4675 12.0321 54.4675 11.7323 54.2863 11.5489L53.6228 10.8824L54.2863 10.2158C54.4675 10.0327 54.4675 9.73293 54.2863 9.54924C54.1021 9.36614 53.804 9.36614 53.6228 9.54924L52.9592 10.2158L52.2957 9.54895C52.1145 9.36615 51.8163 9.36615 51.6322 9.54895Z" fill="#141111"/>
<path fill-rule="evenodd" clip-rule="evenodd" d="M69.5011 27.5095C69.6824 27.3261 69.6824 27.0263 69.5011 26.843L68.8374 26.1762L69.5011 25.5098C69.6824 25.3264 69.6824 25.0267 69.5011 24.8433C69.3169 24.66 69.0187 24.66 68.8374 24.8433L68.1737 25.5101L67.51 24.8436C67.3288 24.6602 67.0305 24.6602 66.8493 24.8436C66.6651 25.027 66.6651 25.3267 66.8493 25.5101L67.51 26.1762L66.8493 26.843C66.6651 27.026 66.6651 27.3258 66.8493 27.5091C67.0305 27.6925 67.3288 27.6925 67.51 27.5091L68.1737 26.843L68.8374 27.5095C69.0187 27.6928 69.3169 27.6928 69.5011 27.5095Z" fill="#141111"/>
<path fill-rule="evenodd" clip-rule="evenodd" d="M69.5011 6.60798V6.60827C69.6824 6.79163 69.6824 7.09134 69.5011 7.2744L68.8374 7.94113L69.5011 8.60784C69.6824 8.7909 69.6824 9.09061 69.5011 9.27397V9.27457C69.3169 9.45763 69.0187 9.45763 68.8374 9.27457L68.1737 8.60784L67.51 9.27397C67.3288 9.45732 67.0305 9.45732 66.8493 9.27397C66.6651 9.09061 66.6651 8.7909 66.8493 8.60784L67.51 7.94113L66.8493 7.27469C66.6651 7.09133 66.6651 6.79163 66.8493 6.60827C67.0305 6.42492 67.3288 6.42492 67.51 6.60827L68.1737 7.27469L68.8374 6.60798C69.0187 6.42492 69.3169 6.42492 69.5011 6.60798Z" fill="#141111"/>
<path fill-rule="evenodd" clip-rule="evenodd" d="M54.5582 27.5095C54.3769 27.3261 54.3769 27.0263 54.5582 26.843L55.2217 26.1762L54.5582 25.5098C54.3769 25.3264 54.3769 25.0267 54.5582 24.8433C54.7423 24.66 55.0405 24.66 55.2217 24.8433L55.8852 25.5101L56.5487 24.8436C56.7299 24.6602 57.0281 24.6602 57.2122 24.8436C57.3935 25.027 57.3935 25.3267 57.2122 25.5101L56.5487 26.1762L57.2122 26.843C57.3935 27.026 57.3935 27.3258 57.2122 27.5091C57.0281 27.6925 56.7299 27.6925 56.5487 27.5091L55.8852 26.843L55.2217 27.5095C55.0405 27.6928 54.7423 27.6928 54.5582 27.5095Z" fill="#141111"/>
<path fill-rule="evenodd" clip-rule="evenodd" d="M54.5582 6.60798V6.60827C54.3769 6.79163 54.3769 7.09134 54.5582 7.2744L55.2217 7.94113L54.5582 8.60784C54.3769 8.7909 54.3769 9.09061 54.5582 9.27397V9.27457C54.7423 9.45763 55.0405 9.45763 55.2217 9.27457L55.8852 8.60784L56.5487 9.27397C56.7299 9.45732 57.0281 9.45732 57.2122 9.27397C57.3935 9.09061 57.3935 8.7909 57.2122 8.60784L56.5487 7.94113L57.2122 7.27469C57.3935 7.09133 57.3935 6.79163 57.2122 6.60827C57.0281 6.42492 56.7299 6.42492 56.5487 6.60827L55.8852 7.27469L55.2217 6.60798C55.0405 6.42492 54.7423 6.42492 54.5582 6.60798Z" fill="#141111"/>
<path fill-rule="evenodd" clip-rule="evenodd" d="M66.5751 27.5095C66.7564 27.3261 66.7564 27.0263 66.5751 26.843L65.9114 26.1762L66.5751 25.5098C66.7564 25.3264 66.7564 25.0267 66.5751 24.8433C66.3939 24.66 66.0956 24.66 65.9114 24.8433L65.2477 25.5101L64.5841 24.8436C64.4028 24.6602 64.1046 24.6602 63.9233 24.8436C63.7391 25.027 63.7391 25.3267 63.9233 25.5101L64.5841 26.1762L63.9233 26.843C63.7391 27.026 63.7391 27.3258 63.9233 27.5091C64.1046 27.6925 64.4028 27.6925 64.5841 27.5091L65.2477 26.843L65.9114 27.5095C66.0956 27.6928 66.3939 27.6928 66.5751 27.5095Z" fill="#E92D22"/>
<path fill-rule="evenodd" clip-rule="evenodd" d="M66.5751 6.60798V6.60827C66.7564 6.79163 66.7564 7.09134 66.5751 7.2744L65.9114 7.94113L66.5751 8.60784C66.7564 8.7909 66.7564 9.09061 66.5751 9.27397V9.27457C66.3939 9.45763 66.0956 9.45763 65.9114 9.27457L65.2477 8.60784L64.5841 9.27397C64.4028 9.45732 64.1046 9.45732 63.9233 9.27397C63.7391 9.09061 63.7391 8.7909 63.9233 8.60784L64.5841 7.94113L63.9233 7.27469C63.7391 7.09133 63.7391 6.79163 63.9233 6.60827C64.1046 6.42492 64.4028 6.42492 64.5841 6.60827L65.2477 7.27469L65.9114 6.60798C66.0956 6.42492 66.3939 6.42492 66.5751 6.60798Z" fill="#E92D22"/>
<path fill-rule="evenodd" clip-rule="evenodd" d="M57.5113 27.5095C57.2938 27.3261 57.2938 27.0263 57.5113 26.843L58.3077 26.1762L57.5113 25.5098C57.2938 25.3264 57.2938 25.0267 57.5113 24.8433C57.7288 24.66 58.0867 24.66 58.3077 24.8433L59.1041 25.5101L59.9006 24.8436C60.1181 24.6602 60.476 24.6602 60.6935 24.8436C60.9145 25.027 60.9145 25.3267 60.6935 25.5101L59.9006 26.1762L60.6935 26.843C60.9145 27.026 60.9145 27.3258 60.6935 27.5091C60.476 27.6925 60.1181 27.6925 59.9006 27.5091L59.1041 26.843L58.3077 27.5095C58.0867 27.6928 57.7288 27.6928 57.5113 27.5095Z" fill="#E92D22"/>
<path fill-rule="evenodd" clip-rule="evenodd" d="M57.5113 6.60798V6.60827C57.2938 6.79163 57.2938 7.09134 57.5113 7.2744L58.3077 7.94113L57.5113 8.60784C57.2938 8.7909 57.2938 9.09061 57.5113 9.27397V9.27457C57.7288 9.45763 58.0867 9.45763 58.3077 9.27457L59.1041 8.60784L59.9006 9.27397C60.1181 9.45732 60.476 9.45732 60.6935 9.27397C60.9145 9.09061 60.9145 8.7909 60.6935 8.60784L59.9006 7.94113L60.6935 7.27469C60.9145 7.09133 60.9145 6.79163 60.6935 6.60827C60.476 6.42492 60.1181 6.42492 59.9006 6.60827L59.1041 7.27469L58.3077 6.60798C58.0867 6.42492 57.7288 6.42492 57.5113 6.60798Z" fill="#E92D22"/>
<path fill-rule="evenodd" clip-rule="evenodd" d="M72.4248 27.5095C72.609 27.3261 72.609 27.0263 72.4248 26.843L71.764 26.1762L72.4248 25.5098C72.609 25.3264 72.609 25.0267 72.4248 24.8433C72.2435 24.66 71.9453 24.66 71.764 24.8433L71.1003 25.5101L70.4366 24.8436C70.2554 24.6602 69.9572 24.6602 69.773 24.8436C69.5917 25.027 69.5917 25.3267 69.773 25.5101L70.4366 26.1762L69.773 26.843C69.5917 27.026 69.5917 27.3258 69.773 27.5091C69.9572 27.6925 70.2554 27.6925 70.4366 27.5091L71.1003 26.843L71.764 27.5095C71.9453 27.6928 72.2435 27.6928 72.4248 27.5095Z" fill="#E92D22"/>
<path fill-rule="evenodd" clip-rule="evenodd" d="M72.4248 6.60798V6.60827C72.609 6.79163 72.609 7.09134 72.4248 7.2744L71.764 7.94113L72.4248 8.60784C72.609 8.7909 72.609 9.09061 72.4248 9.27397V9.27457C72.2435 9.45763 71.9453 9.45763 71.764 9.27457L71.1003 8.60784L70.4366 9.27397C70.2554 9.45732 69.9572 9.45732 69.773 9.27397C69.5917 9.09061 69.5917 8.7909 69.773 8.60784L70.4366 7.94113L69.773 7.27469C69.5917 7.09133 69.5917 6.79163 69.773 6.60827C69.9572 6.42492 70.2554 6.42492 70.4366 6.60827L71.1003 7.27469L71.764 6.60798C71.9453 6.42492 72.2435 6.42492 72.4248 6.60798Z" fill="#E92D22"/>
<path fill-rule="evenodd" clip-rule="evenodd" d="M51.6322 27.5095C51.451 27.3261 51.451 27.0263 51.6322 26.843L52.2957 26.1762L51.6322 25.5098C51.451 25.3264 51.451 25.0267 51.6322 24.8433C51.8163 24.66 52.1145 24.66 52.2957 24.8433L52.9592 25.5101L53.6228 24.8436C53.804 24.6602 54.1021 24.6602 54.2863 24.8436C54.4675 25.027 54.4675 25.3267 54.2863 25.5101L53.6228 26.1762L54.2863 26.843C54.4675 27.026 54.4675 27.3258 54.2863 27.5091C54.1021 27.6925 53.804 27.6925 53.6228 27.5091L52.9592 26.843L52.2957 27.5095C52.1145 27.6928 51.8163 27.6928 51.6322 27.5095Z" fill="#E92D22"/>
<path fill-rule="evenodd" clip-rule="evenodd" d="M51.6322 6.60798V6.60827C51.451 6.79163 51.451 7.09134 51.6322 7.2744L52.2957 7.94113L51.6322 8.60784C51.451 8.7909 51.451 9.09061 51.6322 9.27397V9.27457C51.8163 9.45763 52.1145 9.45763 52.2957 9.27457L52.9592 8.60784L53.6228 9.27397C53.804 9.45732 54.1021 9.45732 54.2863 9.27397C54.4675 9.09061 54.4675 8.7909 54.2863 8.60784L53.6228 7.94113L54.2863 7.27469C54.4675 7.09133 54.4675 6.79163 54.2863 6.60827C54.1021 6.42492 53.804 6.42492 53.6228 6.60827L52.9592 7.27469L52.2957 6.60798C52.1145 6.42492 51.8163 6.42492 51.6322 6.60798Z" fill="#E92D22"/>
<path fill-rule="evenodd" clip-rule="evenodd" d="M66.5751 30.4506C66.7564 30.2672 66.7564 29.9675 66.5751 29.7845L65.9114 29.1177L66.5751 28.4506C66.7564 28.2676 66.7564 27.9678 66.5751 27.7848V27.7845C66.3939 27.6011 66.0956 27.6011 65.9114 27.7845L65.2477 28.4512L64.5841 27.7848C64.4028 27.6014 64.1046 27.6014 63.9233 27.7848C63.7391 27.9678 63.7391 28.2676 63.9233 28.4512L64.5841 29.1177L63.9233 29.7841C63.7391 29.9672 63.7391 30.267 63.9233 30.4506C64.1046 30.6334 64.4028 30.6334 64.5841 30.4506L65.2477 29.7841L65.9114 30.4506C66.0956 30.634 66.3939 30.634 66.5751 30.4506Z" fill="#141111"/>
<path fill-rule="evenodd" clip-rule="evenodd" d="M66.5751 3.10605V3.1064C66.7564 3.32643 66.7564 3.6861 66.5751 3.90578L65.9114 4.70588L66.5751 5.50595C66.7564 5.72563 66.7564 6.0853 66.5751 6.30533V6.30568C66.3939 6.52571 66.0956 6.52571 65.9114 6.30568L65.2477 5.50561L64.5841 6.30499C64.4028 6.52538 64.1046 6.52538 63.9233 6.30499C63.7391 6.08496 63.7391 5.72564 63.9233 5.50561L64.5841 4.70588L63.9233 3.9065C63.7391 3.68611 63.7391 3.32677 63.9233 3.10674C64.1046 2.88635 64.4028 2.88635 64.5841 3.10674L65.2477 3.9065L65.9114 3.10605C66.0956 2.88637 66.3939 2.88637 66.5751 3.10605Z" fill="#141111"/>
<path fill-rule="evenodd" clip-rule="evenodd" d="M57.5113 30.4506C57.2938 30.2672 57.2938 29.9675 57.5113 29.7845L58.3077 29.1177L57.5113 28.4506C57.2938 28.2676 57.2938 27.9678 57.5113 27.7848V27.7845C57.7288 27.6011 58.0867 27.6011 58.3077 27.7845L59.1041 28.4512L59.9006 27.7848C60.1181 27.6014 60.476 27.6014 60.6935 27.7848C60.9145 27.9678 60.9145 28.2676 60.6935 28.4512L59.9006 29.1177L60.6935 29.7841C60.9145 29.9672 60.9145 30.267 60.6935 30.4506C60.476 30.6334 60.1181 30.6334 59.9006 30.4506L59.1041 29.7841L58.3077 30.4506C58.0867 30.634 57.7288 30.634 57.5113 30.4506Z" fill="#141111"/>
<path fill-rule="evenodd" clip-rule="evenodd" d="M57.5113 3.10605V3.1064C57.2938 3.32643 57.2938 3.6861 57.5113 3.90578L58.3077 4.70588L57.5113 5.50595C57.2938 5.72563 57.2938 6.0853 57.5113 6.30533V6.30568C57.7288 6.52571 58.0867 6.52571 58.3077 6.30568L59.1041 5.50561L59.9006 6.30499C60.1181 6.52538 60.476 6.52538 60.6935 6.30499C60.9145 6.08496 60.9145 5.72564 60.6935 5.50561L59.9006 4.70588L60.6935 3.9065C60.9145 3.68611 60.9145 3.32677 60.6935 3.10674C60.476 2.88635 60.1181 2.88635 59.9006 3.10674L59.1041 3.9065L58.3077 3.10605C58.0867 2.88637 57.7288 2.88637 57.5113 3.10605Z" fill="#141111"/>
<path fill-rule="evenodd" clip-rule="evenodd" d="M63.6471 30.4506C63.8312 30.2672 63.8312 29.9675 63.6471 29.7845L62.9839 29.1177L63.6471 28.4506C63.8312 28.2676 63.8312 27.9678 63.6471 27.7848V27.7845C63.466 27.6011 63.168 27.6011 62.9839 27.7845L62.3207 28.4512L61.6605 27.7848C61.4764 27.6014 61.1784 27.6014 60.9973 27.7848C60.8132 27.9678 60.8132 28.2676 60.9973 28.4512L61.6605 29.1177L60.9973 29.7841C60.8132 29.9672 60.8132 30.267 60.9973 30.4506C61.1784 30.6334 61.4764 30.6334 61.6605 30.4506L62.3207 29.7841L62.9839 30.4506C63.168 30.634 63.466 30.634 63.6471 30.4506Z" fill="#E92D22"/>
<path fill-rule="evenodd" clip-rule="evenodd" d="M63.6471 3.10605V3.1064C63.8312 3.32643 63.8312 3.6861 63.6471 3.90578L62.9839 4.70588L63.6471 5.50595C63.8312 5.72563 63.8312 6.0853 63.6471 6.30533V6.30568C63.466 6.52571 63.168 6.52571 62.9839 6.30568L62.3207 5.50561L61.6605 6.30499C61.4764 6.52538 61.1784 6.52538 60.9973 6.30499C60.8132 6.08496 60.8132 5.72564 60.9973 5.50561L61.6605 4.70588L60.9973 3.9065C60.8132 3.68611 60.8132 3.32677 60.9973 3.10674C61.1784 2.88635 61.4764 2.88635 61.6605 3.10674L62.3207 3.9065L62.9839 3.10605C63.168 2.88637 63.466 2.88637 63.6471 3.10605Z" fill="#E92D22"/>
<path fill-rule="evenodd" clip-rule="evenodd" d="M78.8342 30.4506C79.0553 30.2672 79.0553 29.9675 78.8342 29.7845L78.0378 29.1177L78.8342 28.4506C79.0553 28.2676 79.0553 27.9678 78.8342 27.7848V27.7845C78.6167 27.6011 78.2588 27.6011 78.0378 27.7845L77.2414 28.4512L76.4485 27.7848C76.2274 27.6014 75.8696 27.6014 75.652 27.7848C75.4345 27.9678 75.4345 28.2676 75.652 28.4512L76.4485 29.1177L75.652 29.7841C75.4345 29.9672 75.4345 30.267 75.652 30.4506C75.8696 30.6334 76.2274 30.6334 76.4485 30.4506L77.2414 29.7841L78.0378 30.4506C78.2588 30.634 78.6167 30.634 78.8342 30.4506Z" fill="#141111"/>
<path fill-rule="evenodd" clip-rule="evenodd" d="M78.8342 3.10605V3.1064C79.0553 3.32643 79.0553 3.6861 78.8342 3.90578L78.0378 4.70588L78.8342 5.50595C79.0553 5.72563 79.0553 6.0853 78.8342 6.30533V6.30568C78.6167 6.52571 78.2588 6.52571 78.0378 6.30568L77.2414 5.50561L76.4485 6.30499C76.2274 6.52538 75.8696 6.52538 75.652 6.30499C75.4345 6.08496 75.4345 5.72564 75.652 5.50561L76.4485 4.70588L75.652 3.9065C75.4345 3.68611 75.4345 3.32677 75.652 3.10674C75.8696 2.88635 76.2274 2.88635 76.4485 3.10674L77.2414 3.9065L78.0378 3.10605C78.2588 2.88637 78.6167 2.88637 78.8342 3.10605Z" fill="#141111"/>
<path fill-rule="evenodd" clip-rule="evenodd" d="M45.7813 30.4506C45.5988 30.2672 45.5988 29.9675 45.7813 29.7845L46.4446 29.1177L45.7813 28.4506C45.5988 28.2676 45.5988 27.9678 45.7813 27.7848V27.7845C45.9638 27.6011 46.2621 27.6011 46.4446 27.7845L47.1079 28.4512L47.7714 27.7848C47.9539 27.6014 48.2522 27.6014 48.4344 27.7848C48.6157 27.9678 48.6157 28.2676 48.4344 28.4512L47.7714 29.1177L48.4344 29.7841C48.6157 29.9672 48.6157 30.267 48.4344 30.4506C48.2522 30.6334 47.9539 30.6334 47.7714 30.4506L47.1079 29.7841L46.4446 30.4506C46.2621 30.634 45.9638 30.634 45.7813 30.4506Z" fill="#141111"/>
<path fill-rule="evenodd" clip-rule="evenodd" d="M45.7813 3.10605V3.1064C45.5988 3.32643 45.5988 3.6861 45.7813 3.90578L46.4446 4.70588L45.7813 5.50595C45.5988 5.72563 45.5988 6.0853 45.7813 6.30533V6.30568C45.9638 6.52571 46.2621 6.52571 46.4446 6.30568L47.1079 5.50561L47.7714 6.30499C47.9539 6.52538 48.2522 6.52538 48.4344 6.30499C48.6157 6.08496 48.6157 5.72564 48.4344 5.50561L47.7714 4.70588L48.4344 3.9065C48.6157 3.68611 48.6157 3.32677 48.4344 3.10674C48.2522 2.88635 47.9539 2.88635 47.7714 3.10674L47.1079 3.9065L46.4446 3.10605C46.2621 2.88637 45.9638 2.88637 45.7813 3.10605Z" fill="#141111"/>
<path fill-rule="evenodd" clip-rule="evenodd" d="M75.3508 30.4506C75.535 30.2672 75.535 29.9675 75.3508 29.7845L74.69 29.1177L75.3508 28.4506C75.535 28.2676 75.535 27.9678 75.3508 27.7848V27.7845C75.1695 27.6011 74.8713 27.6011 74.69 27.7845L74.0263 28.4512L73.3626 27.7848C73.1814 27.6014 72.8831 27.6014 72.6989 27.7848C72.5177 27.9678 72.5177 28.2676 72.6989 28.4512L73.3626 29.1177L72.6989 29.7841C72.5177 29.9672 72.5177 30.267 72.6989 30.4506C72.8831 30.6334 73.1814 30.6334 73.3626 30.4506L74.0263 29.7841L74.69 30.4506C74.8713 30.634 75.1695 30.634 75.3508 30.4506Z" fill="#E92D22"/>
<path fill-rule="evenodd" clip-rule="evenodd" d="M75.3508 3.10605V3.1064C75.535 3.32643 75.535 3.6861 75.3508 3.90578L74.69 4.70588L75.3508 5.50595C75.535 5.72563 75.535 6.0853 75.3508 6.30533V6.30568C75.1695 6.52571 74.8713 6.52571 74.69 6.30568L74.0263 5.50561L73.3626 6.30499C73.1814 6.52538 72.8831 6.52538 72.6989 6.30499C72.5177 6.08496 72.5177 5.72564 72.6989 5.50561L73.3626 4.70588L72.6989 3.9065C72.5177 3.68611 72.5177 3.32677 72.6989 3.10674C72.8831 2.88635 73.1814 2.88635 73.3626 3.10674L74.0263 3.9065L74.69 3.10605C74.8713 2.88637 75.1695 2.88637 75.3508 3.10605Z" fill="#E92D22"/>
<path fill-rule="evenodd" clip-rule="evenodd" d="M48.7055 30.4506C48.5253 30.2672 48.5253 29.9675 48.7055 29.7845L49.3721 29.1177L48.7055 28.4506C48.5253 28.2676 48.5253 27.9678 48.7055 27.7848V27.7845C48.8897 27.6011 49.1879 27.6011 49.3692 27.7845L50.0329 28.4512L50.6966 27.7848C50.8779 27.6014 51.1761 27.6014 51.3603 27.7848C51.5416 27.9678 51.5416 28.2676 51.3603 28.4512L50.6966 29.1177L51.3603 29.7841C51.5416 29.9672 51.5416 30.267 51.3603 30.4506C51.1761 30.6334 50.8779 30.6334 50.6966 30.4506L50.0329 29.7841L49.3692 30.4506C49.1879 30.634 48.8897 30.634 48.7055 30.4506Z" fill="#E92D22"/>
<path fill-rule="evenodd" clip-rule="evenodd" d="M48.7055 3.10605V3.1064C48.5253 3.32643 48.5253 3.6861 48.7055 3.90578L49.3721 4.70588L48.7055 5.50595C48.5253 5.72563 48.5253 6.0853 48.7055 6.30533V6.30568C48.8897 6.52571 49.1879 6.52571 49.3692 6.30568L50.0329 5.50561L50.6966 6.30499C50.8779 6.52538 51.1761 6.52538 51.3603 6.30499C51.5416 6.08496 51.5416 5.72564 51.3603 5.50561L50.6966 4.70588L51.3603 3.9065C51.5416 3.68611 51.5416 3.32677 51.3603 3.10674C51.1761 2.88635 50.8779 2.88635 50.6966 3.10674L50.0329 3.9065L49.3692 3.10605C49.1879 2.88637 48.8897 2.88637 48.7055 3.10605Z" fill="#E92D22"/>
<path fill-rule="evenodd" clip-rule="evenodd" d="M63.6471 33.3918C63.8312 33.2084 63.8312 32.9086 63.6471 32.7256L62.9839 32.0587L63.6471 31.3916C63.8312 31.2086 63.8312 30.9091 63.6471 30.7257V30.7254C63.466 30.5424 63.168 30.5424 62.9839 30.7254L62.3207 31.3922L61.6605 30.7257C61.4764 30.5427 61.1784 30.5427 60.9973 30.7257C60.8132 30.9091 60.8132 31.2089 60.9973 31.3922L61.6605 32.0587L60.9973 32.725C60.8132 32.9086 60.8132 33.2081 60.9973 33.3915C61.1784 33.5749 61.4764 33.5749 61.6605 33.3915L62.3207 32.725L62.9839 33.3918C63.168 33.5751 63.466 33.5751 63.6471 33.3918Z" fill="#141111"/>
<path fill-rule="evenodd" clip-rule="evenodd" d="M63.6471 0.137506V0.137793C63.8312 0.320861 63.8312 0.620583 63.6471 0.803945L62.9839 1.47067L63.6471 2.13742C63.8312 2.32049 63.8312 2.62021 63.6471 2.80357V2.80386C63.466 2.98693 63.168 2.98693 62.9839 2.80386L62.3207 2.13714L61.6605 2.80357C61.4764 2.98664 61.1784 2.98664 60.9973 2.80357C60.8132 2.62021 60.8132 2.3202 60.9973 2.13714L61.6605 1.47067L60.9973 0.804231C60.8132 0.620576 60.8132 0.321148 60.9973 0.13808C61.1784 -0.0455747 61.4764 -0.0455747 61.6605 0.13808L62.3207 0.804231L62.9839 0.137506C63.168 -0.0458548 63.466 -0.0458548 63.6471 0.137506Z" fill="#141111"/>
<path fill-rule="evenodd" clip-rule="evenodd" d="M75.3508 33.3918C75.535 33.2084 75.535 32.9086 75.3508 32.7256L74.69 32.0587L75.3508 31.3916C75.535 31.2086 75.535 30.9091 75.3508 30.7257V30.7254C75.1695 30.5424 74.8713 30.5424 74.69 30.7254L74.0263 31.3922L73.3626 30.7257C73.1814 30.5427 72.8831 30.5427 72.6989 30.7257C72.5177 30.9091 72.5177 31.2089 72.6989 31.3922L73.3626 32.0587L72.6989 32.725C72.5177 32.9086 72.5177 33.2081 72.6989 33.3915C72.8831 33.5749 73.1814 33.5749 73.3626 33.3915L74.0263 32.725L74.69 33.3918C74.8713 33.5751 75.1695 33.5751 75.3508 33.3918Z" fill="#141111"/>
<path fill-rule="evenodd" clip-rule="evenodd" d="M75.3508 0.137506V0.137793C75.535 0.320861 75.535 0.620583 75.3508 0.803945L74.69 1.47067L75.3508 2.13742C75.535 2.32049 75.535 2.62021 75.3508 2.80357V2.80386C75.1695 2.98693 74.8713 2.98693 74.69 2.80386L74.0263 2.13714L73.3626 2.80357C73.1814 2.98664 72.8831 2.98664 72.6989 2.80357C72.5177 2.62021 72.5177 2.3202 72.6989 2.13714L73.3626 1.47067L72.6989 0.804231C72.5177 0.620576 72.5177 0.321148 72.6989 0.13808C72.8831 -0.0455747 73.1814 -0.0455747 73.3626 0.13808L74.0263 0.804231L74.69 0.137506C74.8713 -0.0458548 75.1695 -0.0458548 75.3508 0.137506Z" fill="#141111"/>
<path fill-rule="evenodd" clip-rule="evenodd" d="M48.7055 33.3918C48.5253 33.2084 48.5253 32.9086 48.7055 32.7256L49.3721 32.0587L48.7055 31.3916C48.5253 31.2086 48.5253 30.9091 48.7055 30.7257V30.7254C48.8897 30.5424 49.1879 30.5424 49.3692 30.7254L50.0329 31.3922L50.6966 30.7257C50.8779 30.5427 51.1761 30.5427 51.3603 30.7257C51.5416 30.9091 51.5416 31.2089 51.3603 31.3922L50.6966 32.0587L51.3603 32.725C51.5416 32.9086 51.5416 33.2081 51.3603 33.3915C51.1761 33.5749 50.8779 33.5749 50.6966 33.3915L50.0329 32.725L49.3692 33.3918C49.1879 33.5751 48.8897 33.5751 48.7055 33.3918Z" fill="#141111"/>
<path fill-rule="evenodd" clip-rule="evenodd" d="M48.7055 0.137506V0.137793C48.5253 0.320861 48.5253 0.620583 48.7055 0.803945L49.3721 1.47067L48.7055 2.13742C48.5253 2.32049 48.5253 2.62021 48.7055 2.80357V2.80386C48.8897 2.98693 49.1879 2.98693 49.3692 2.80386L50.0329 2.13714L50.6966 2.80357C50.8779 2.98664 51.1761 2.98664 51.3603 2.80357C51.5416 2.62021 51.5416 2.3202 51.3603 2.13714L50.6966 1.47067L51.3603 0.804231C51.5416 0.620576 51.5416 0.321148 51.3603 0.13808C51.1761 -0.0455747 50.8779 -0.0455747 50.6966 0.13808L50.0329 0.804231L49.3692 0.137506C49.1879 -0.0458548 48.8897 -0.0458548 48.7055 0.137506Z" fill="#141111"/>
</svg>
