<svg width="79" height="40" viewBox="0 0 79 40" fill="none" xmlns="http://www.w3.org/2000/svg">
<path fill-rule="evenodd" clip-rule="evenodd" d="M6.57297 3.66682L6.57297 3.6671C6.39174 3.85047 6.39174 4.1499 6.57297 4.33297L7.2365 5.0003L6.57297 5.66674C6.39174 5.8498 6.39174 6.14952 6.57297 6.33317C6.75712 6.51624 7.05527 6.51624 7.2365 6.33317L7.90003 5.66674L8.56356 6.33289C8.74478 6.51625 9.04291 6.51625 9.22706 6.33289C9.40828 6.14923 9.40828 5.84951 9.22706 5.66674L8.56356 5.0003L9.22706 4.33354C9.40828 4.14989 9.40828 3.85047 9.22706 3.6671C9.04291 3.48374 8.74478 3.48374 8.56356 3.6671L7.90003 4.33354L7.2365 3.66682C7.05527 3.48346 6.75712 3.48346 6.57297 3.66682Z" fill="#141111"/>
<path fill-rule="evenodd" clip-rule="evenodd" d="M3.64926 0.165037L3.64926 0.165382C3.46507 0.385079 3.46507 0.744773 3.64926 0.964823L4.31004 1.76495L3.64926 2.56477C3.46507 2.78447 3.46507 3.14416 3.64926 3.36456L3.64926 3.3649C3.83053 3.58425 4.12877 3.58425 4.31004 3.3649L4.9737 2.56477L5.6374 3.36421C5.81867 3.58426 6.11689 3.58426 6.30109 3.36421C6.48236 3.14416 6.48236 2.78447 6.30109 2.56477L5.6374 1.76495L6.30109 0.965167C6.48236 0.745117 6.48236 0.385432 6.30109 0.165382C6.11689 -0.0546681 5.81867 -0.0546681 5.6374 0.165382L4.9737 0.965167L4.31004 0.165037C4.12877 -0.0550127 3.83053 -0.0550127 3.64926 0.165037Z" fill="#141111"/>
<path fill-rule="evenodd" clip-rule="evenodd" d="M9.49891 6.60824C9.31764 6.79161 9.31764 7.09136 9.49891 7.27445L10.1626 7.94126L9.49891 8.60836C9.31763 8.79144 9.31763 9.09087 9.49891 9.27425L9.49891 9.27457C9.68018 9.45765 9.97838 9.45765 10.1626 9.27457L10.8263 8.60775L11.49 9.27425C11.6712 9.45733 11.9695 9.45733 12.1507 9.27425C12.3349 9.09087 12.3349 8.79113 12.1507 8.60775L11.49 7.94126L12.1507 7.27505C12.3349 7.09138 12.3349 6.7919 12.1507 6.60852C11.9695 6.42515 11.6712 6.42515 11.49 6.60852L10.8263 7.27505L10.1626 6.60824C9.97838 6.42486 9.68018 6.42486 9.49891 6.60824Z" fill="#E92D22"/>
<path fill-rule="evenodd" clip-rule="evenodd" d="M9.49891 3.66682L9.49891 3.6671C9.31764 3.85047 9.31764 4.1499 9.49891 4.33297L10.1626 5.0003L9.49891 5.66674C9.31763 5.8498 9.31763 6.14952 9.49891 6.33317C9.68018 6.51624 9.97838 6.51624 10.1626 6.33317L10.8263 5.66674L11.49 6.33289C11.6712 6.51625 11.9695 6.51625 12.1507 6.33289C12.3349 6.14923 12.3349 5.84951 12.1507 5.66674L11.49 5.0003L12.1507 4.33354C12.3349 4.14989 12.3349 3.85047 12.1507 3.6671C11.9695 3.48374 11.6712 3.48374 11.49 3.6671L10.8263 4.33354L10.1626 3.66682C9.97838 3.48346 9.68018 3.48346 9.49891 3.66682Z" fill="#E92D22"/>
<path fill-rule="evenodd" clip-rule="evenodd" d="M0.165775 3.66682L0.165775 3.6671C-0.0552585 3.85047 -0.0552586 4.1499 0.165775 4.33297L0.962205 5.0003L0.165775 5.66674C-0.0552587 5.8498 -0.0552587 6.14952 0.165775 6.33317C0.3833 6.51624 0.741171 6.51624 0.962204 6.33317L1.7586 5.66674L2.55153 6.33289C2.77257 6.51625 3.13044 6.51625 3.34796 6.33289C3.56549 6.14923 3.56549 5.84951 3.34796 5.66674L2.55153 5.0003L3.34796 4.33354C3.56549 4.14989 3.56549 3.85047 3.34796 3.6671C3.13044 3.48374 2.77257 3.48374 2.55153 3.6671L1.7586 4.33354L0.962205 3.66682C0.741171 3.48346 0.3833 3.48346 0.165775 3.66682Z" fill="#E92D22"/>
<path fill-rule="evenodd" clip-rule="evenodd" d="M9.49891 0.165037L9.49891 0.165382C9.31764 0.385079 9.31763 0.744773 9.49891 0.964823L10.1626 1.76495L9.49891 2.56477C9.31763 2.78447 9.31763 3.14416 9.49891 3.36456L9.49891 3.3649C9.68018 3.58425 9.97838 3.58425 10.1626 3.3649L10.8263 2.56477L11.49 3.36421C11.6712 3.58426 11.9695 3.58426 12.1507 3.36421C12.3349 3.14416 12.3349 2.78447 12.1507 2.56477L11.49 1.76495L12.1507 0.965167C12.3349 0.745117 12.3349 0.385432 12.1507 0.165382C11.9695 -0.0546681 11.6712 -0.0546681 11.49 0.165382L10.8263 0.965167L10.1626 0.165037C9.97838 -0.0550127 9.68018 -0.0550127 9.49891 0.165037Z" fill="#E92D22"/>
<path fill-rule="evenodd" clip-rule="evenodd" d="M0.165775 0.165037L0.165775 0.165381C-0.0552585 0.385079 -0.0552586 0.744773 0.165775 0.964823L0.962205 1.76495L0.165775 2.56477C-0.0552588 2.78447 -0.0552588 3.14416 0.165775 3.36456L0.165775 3.3649C0.3833 3.58425 0.741171 3.58425 0.962204 3.3649L1.7586 2.56477L2.55153 3.36421C2.77257 3.58426 3.13044 3.58426 3.34796 3.36421C3.56549 3.14416 3.56549 2.78447 3.34796 2.56477L2.55153 1.76495L3.34796 0.965167C3.56549 0.745117 3.56549 0.385432 3.34796 0.165382C3.13044 -0.0546681 2.77257 -0.0546681 2.55153 0.165382L1.7586 0.965167L0.962205 0.165037C0.741171 -0.0550127 0.3833 -0.0550127 0.165775 0.165037Z" fill="#E92D22"/>
<path fill-rule="evenodd" clip-rule="evenodd" d="M36.1449 33.3916L36.1443 33.3916C35.9619 33.5752 35.664 33.5752 35.4816 33.3916L34.8186 32.7247L34.1551 33.3916C33.9729 33.5752 33.6751 33.5752 33.4927 33.3916L33.4924 33.3916C33.31 33.2082 33.31 32.9087 33.4924 32.725L34.1557 32.0582L33.4927 31.392C33.3105 31.2087 33.3105 30.9092 33.4927 30.7255L33.4927 30.7252C33.6751 30.5424 33.9733 30.5424 34.1557 30.7252L34.8186 31.392L35.481 30.7252C35.664 30.5424 35.9619 30.5424 36.1443 30.7252L36.1443 30.7255C36.3267 30.9092 36.3267 31.2087 36.1443 31.392L35.481 32.0582L36.1449 32.725C36.327 32.9087 36.327 33.2082 36.1449 33.3916Z" fill="#141111"/>
<path fill-rule="evenodd" clip-rule="evenodd" d="M42.5815 33.3916C42.3991 33.5752 42.1015 33.5752 41.919 33.3916L41.2554 32.7247L40.5924 33.3916C40.41 33.5752 40.1115 33.5752 39.9294 33.3916C39.747 33.2082 39.747 32.9087 39.9294 32.725L40.5924 32.0582L39.9297 31.392C39.7473 31.2087 39.7473 30.9092 39.9297 30.7255L39.9297 30.7252C40.1121 30.5424 40.41 30.5424 40.5924 30.7252L41.2554 31.392L41.9185 30.7252C42.1009 30.5424 42.3991 30.5424 42.5815 30.7252L42.5815 30.7255C42.7636 30.9092 42.7636 31.2087 42.5815 31.392L41.9185 32.0582L42.5815 32.725C42.7642 32.9087 42.7642 33.2082 42.5815 33.3916Z" fill="#141111"/>
<path fill-rule="evenodd" clip-rule="evenodd" d="M48.4338 33.3916C48.2513 33.5752 47.9528 33.5752 47.7704 33.3916L47.1073 32.7247L46.4436 33.3916C46.2618 33.5752 45.9636 33.5752 45.7811 33.3916L45.7808 33.3916C45.599 33.2082 45.599 32.9087 45.7808 32.725L46.4442 32.0582L45.7811 31.392C45.599 31.2087 45.599 30.9092 45.7811 30.7255L45.7811 30.7252C45.9636 30.5424 46.2618 30.5424 46.4442 30.7252L47.1073 31.392L47.7698 30.7252C47.9528 30.5424 48.2513 30.5424 48.4338 30.7252L48.4338 30.7255C48.6159 30.9092 48.6159 31.2087 48.4338 31.392L47.7698 32.0582L48.4338 32.725C48.6159 32.9087 48.6159 33.2082 48.4338 33.3916Z" fill="#141111"/>
<path fill-rule="evenodd" clip-rule="evenodd" d="M54.8706 33.3916C54.6885 33.5752 54.39 33.5752 54.2079 33.3916L53.5446 32.7247L52.8813 33.3916C52.6989 33.5752 52.401 33.5752 52.2186 33.3916L52.2183 33.3916C52.0359 33.2082 52.0359 32.9087 52.2183 32.725L52.8819 32.0582L52.2186 31.392C52.0362 31.2087 52.0362 30.9092 52.2186 30.7255L52.2186 30.7252C52.401 30.5424 52.6995 30.5424 52.8819 30.7252L53.5446 31.392L54.2073 30.7252C54.39 30.5424 54.6879 30.5424 54.8703 30.7252L54.8703 30.7255C55.0527 30.9092 55.0527 31.2087 54.8703 31.392L54.2073 32.0582L54.8706 32.725C55.053 32.9087 55.053 33.2082 54.8706 33.3916Z" fill="#141111"/>
<path fill-rule="evenodd" clip-rule="evenodd" d="M60.722 33.3916C60.5399 33.5752 60.2417 33.5752 60.0593 33.3916L59.3961 32.7247L58.7331 33.3916C58.5507 33.5752 58.2531 33.5752 58.0701 33.3916C57.8877 33.2082 57.8877 32.9087 58.0701 32.725L58.7331 32.0582L58.0707 31.392C57.8883 31.2087 57.8883 30.9092 58.0707 30.7255L58.0707 30.7252C58.2531 30.5424 58.5507 30.5424 58.7331 30.7252L59.3961 31.392L60.059 30.7252C60.2415 30.5424 60.5399 30.5424 60.722 30.7252L60.722 30.7255C60.9044 30.9092 60.9044 31.2087 60.722 31.392L60.059 32.0582L60.722 32.725C60.905 32.9087 60.905 33.2082 60.722 33.3916Z" fill="#141111"/>
<path fill-rule="evenodd" clip-rule="evenodd" d="M67.1595 33.3916C66.9771 33.5752 66.6786 33.5752 66.4968 33.3916L65.8333 32.7247L65.17 33.3916C64.9882 33.5752 64.6897 33.5752 64.5073 33.3916L64.5067 33.3916C64.3249 33.2082 64.3249 32.9087 64.5067 32.725L65.1706 32.0582L64.5073 31.392C64.3249 31.2087 64.3249 30.9092 64.5073 30.7255L64.5073 30.7252C64.69 30.5424 64.9882 30.5424 65.1706 30.7252L65.8333 31.392L66.4965 30.7252C66.6786 30.5424 66.9771 30.5424 67.1595 30.7252L67.1595 30.7255C67.3419 30.9092 67.3419 31.2087 67.1595 31.392L66.4965 32.0582L67.1595 32.725C67.3419 32.9087 67.3419 33.2082 67.1595 33.3916Z" fill="#141111"/>
<path fill-rule="evenodd" clip-rule="evenodd" d="M73.0113 33.3916C72.8289 33.5752 72.5307 33.5752 72.3483 33.3916L71.6853 32.7247L71.0216 33.3916C70.8398 33.5752 70.5416 33.5752 70.3592 33.3916L70.3586 33.3916C70.1768 33.2082 70.1768 32.9087 70.3586 32.725L71.022 32.0582L70.3592 31.392C70.1768 31.2087 70.1768 30.9092 70.3592 30.7255L70.3592 30.7252C70.5416 30.5424 70.8398 30.5424 71.022 30.7252L71.6853 31.392L72.348 30.7252C72.5307 30.5424 72.8286 30.5424 73.0107 30.7252L73.0107 30.7255C73.1932 30.9092 73.1932 31.2087 73.0107 31.392L72.348 32.0582L73.0113 32.725C73.1938 32.9087 73.1938 33.2082 73.0113 33.3916Z" fill="#141111"/>
<path fill-rule="evenodd" clip-rule="evenodd" d="M51.9168 30.4508C51.6983 30.6339 51.3405 30.6339 51.122 30.4508L50.326 29.7837L49.5302 30.4508C49.3113 30.6339 48.9531 30.6339 48.7343 30.4508C48.5157 30.2674 48.5157 29.9674 48.7343 29.7843L49.5302 29.1174L48.735 28.4508C48.5161 28.2677 48.5161 27.9679 48.735 27.7845C48.9539 27.6011 49.3113 27.6011 49.5302 27.7845L50.326 28.4508L51.1212 27.7845C51.3401 27.6011 51.6983 27.6011 51.9168 27.7845C52.1357 27.9679 52.1357 28.2677 51.9168 28.4508L51.1212 29.1174L51.9168 29.7843C52.1364 29.9674 52.1364 30.2674 51.9168 30.4508Z" fill="#E92D22"/>
<path fill-rule="evenodd" clip-rule="evenodd" d="M51.9168 39.8623C51.6983 40.0459 51.3405 40.0459 51.122 39.8623L50.326 39.1955L49.5302 39.8623C49.3113 40.0459 48.9531 40.0459 48.7343 39.8623C48.5157 39.6792 48.5157 39.3794 48.7343 39.1957L49.5302 38.5289L48.735 37.8627C48.5161 37.6796 48.5161 37.3795 48.735 37.1962C48.9539 37.0131 49.3113 37.0131 49.5302 37.1962L50.326 37.8627L51.1212 37.1962C51.3401 37.0131 51.6983 37.0131 51.9168 37.1962C52.1357 37.3795 52.1357 37.6796 51.9168 37.8627L51.1212 38.5289L51.9168 39.1957C52.1364 39.3794 52.1364 39.6792 51.9168 39.8623Z" fill="#E92D22"/>
<path fill-rule="evenodd" clip-rule="evenodd" d="M73.0113 39.8623C72.8289 40.0459 72.5307 40.0459 72.3483 39.8623L71.6853 39.1955L71.0216 39.8623C70.8398 40.0459 70.5416 40.0459 70.3592 39.8623L70.3586 39.8623C70.1768 39.6792 70.1768 39.3794 70.3586 39.1957L71.022 38.5289L70.3592 37.8627C70.1768 37.6796 70.1768 37.3795 70.3592 37.1962C70.5416 37.0131 70.8398 37.0131 71.022 37.1962L71.6853 37.8627L72.348 37.1962C72.5307 37.0131 72.8286 37.0131 73.0107 37.1962C73.1932 37.3795 73.1932 37.6796 73.0107 37.8627L72.348 38.5289L73.0113 39.1957C73.1938 39.3794 73.1938 39.6792 73.0113 39.8623Z" fill="#E92D22"/>
<path fill-rule="evenodd" clip-rule="evenodd" d="M39.6287 36.8937C39.4098 37.1137 39.0516 37.1137 38.8327 36.8937L38.0371 36.0935L37.2408 36.8937C37.0226 37.1137 36.6644 37.1137 36.4455 36.8937L36.4451 36.8937C36.2269 36.6733 36.2269 36.3139 36.4451 36.0938L37.2415 35.2937L36.4455 34.4939C36.2269 34.2742 36.2269 33.9145 36.4455 33.6944L36.4455 33.6941C36.6644 33.4744 37.0226 33.4744 37.2415 33.6941L38.0371 34.4939L38.8327 33.6941C39.0516 33.4744 39.4091 33.4744 39.6287 33.6941L39.6287 33.6944C39.8472 33.9145 39.8472 34.2742 39.6287 34.4939L38.8327 35.2937L39.6287 36.0938C39.8472 36.3139 39.8472 36.6733 39.6287 36.8937Z" fill="#141111"/>
<path fill-rule="evenodd" clip-rule="evenodd" d="M45.5076 36.8937L45.5073 36.8937C45.3255 37.1137 45.0273 37.1137 44.8449 36.8937L44.1813 36.0935L43.518 36.8937C43.3356 37.1137 43.038 37.1137 42.8556 36.8937L42.8553 36.8937C42.6729 36.6733 42.6729 36.3139 42.8553 36.0938L43.5186 35.2937L42.8556 34.4939C42.6735 34.2742 42.6735 33.9145 42.8556 33.6944L42.8556 33.6941C43.038 33.4744 43.3362 33.4744 43.5186 33.6941L44.1813 34.4939L44.8443 33.6941C45.0273 33.4744 45.3249 33.4744 45.5073 33.6941L45.5073 33.6944C45.6898 33.9145 45.6898 34.2742 45.5073 34.4939L44.8443 35.2937L45.5076 36.0938C45.69 36.3139 45.69 36.6733 45.5076 36.8937Z" fill="#141111"/>
<path fill-rule="evenodd" clip-rule="evenodd" d="M51.9168 36.8937C51.6983 37.1137 51.3405 37.1137 51.122 36.8937L50.326 36.0935L49.5302 36.8937C49.3113 37.1137 48.9531 37.1137 48.7343 36.8937C48.5157 36.6733 48.5157 36.3139 48.7343 36.0938L49.5302 35.2937L48.735 34.4939C48.5161 34.2742 48.5161 33.9145 48.735 33.6944L48.735 33.6941C48.9539 33.4744 49.3113 33.4744 49.5302 33.6941L50.326 34.4939L51.1212 33.6941C51.3401 33.4744 51.6983 33.4744 51.9168 33.6941L51.9168 33.6944C52.1357 33.9145 52.1357 34.2742 51.9168 34.4939L51.1212 35.2937L51.9168 36.0938C52.1364 36.3139 52.1364 36.6733 51.9168 36.8937Z" fill="#141111"/>
<path fill-rule="evenodd" clip-rule="evenodd" d="M57.7965 36.8937C57.6143 37.1137 57.3158 37.1137 57.1337 36.8937L56.4703 36.0935L55.8069 36.8937C55.6251 37.1137 55.3266 37.1137 55.1441 36.8937L55.1436 36.8937C54.962 36.6733 54.962 36.3139 55.1436 36.0938L55.8075 35.2937L55.1441 34.4939C54.962 34.2742 54.962 33.9145 55.1441 33.6944L55.1441 33.6941C55.3269 33.4744 55.6251 33.4744 55.8075 33.6941L56.4703 34.4939L57.1337 33.6941C57.3158 33.4744 57.6143 33.4744 57.7965 33.6941L57.7965 33.6944C57.9789 33.9145 57.9789 34.2742 57.7965 34.4939L57.1337 35.2937L57.7965 36.0938C57.9789 36.3139 57.9789 36.6733 57.7965 36.8937Z" fill="#141111"/>
<path fill-rule="evenodd" clip-rule="evenodd" d="M64.2062 36.8937C63.9873 37.1137 63.6291 37.1137 63.4105 36.8937L62.6149 36.0935L61.8186 36.8937C61.6004 37.1137 61.2425 37.1137 61.0236 36.8937L61.0229 36.8937C60.8047 36.6733 60.8047 36.3139 61.0229 36.0938L61.8189 35.2937L61.0236 34.4939C60.8047 34.2742 60.8047 33.9145 61.0236 33.6944L61.0236 33.6941C61.2425 33.4744 61.6004 33.4744 61.8189 33.6941L62.6149 34.4939L63.4098 33.6941C63.6291 33.4744 63.9869 33.4744 64.2055 33.6941L64.2055 33.6944C64.4244 33.9145 64.4244 34.2742 64.2055 34.4939L63.4098 35.2937L64.2062 36.0938C64.4251 36.3139 64.4251 36.6733 64.2062 36.8937Z" fill="#141111"/>
<path fill-rule="evenodd" clip-rule="evenodd" d="M70.0854 36.8937L70.0848 36.8937C69.9027 37.1137 69.6049 37.1137 69.4225 36.8937L68.759 36.0935L68.0963 36.8937C67.9139 37.1137 67.6158 37.1137 67.4331 36.8937C67.2507 36.6733 67.2507 36.3139 67.4331 36.0938L68.0963 35.2937L67.4337 34.4939C67.2513 34.2742 67.2513 33.9145 67.4337 33.6944L67.4337 33.6941C67.6158 33.4744 67.9139 33.4744 68.0963 33.6941L68.759 34.4939L69.4222 33.6941C69.6043 33.4744 69.9027 33.4744 70.0848 33.6941L70.0848 33.6944C70.2672 33.9145 70.2672 34.2742 70.0848 34.4939L69.4222 35.2937L70.0854 36.0938C70.2678 36.3139 70.2678 36.6733 70.0854 36.8937Z" fill="#141111"/>
<path fill-rule="evenodd" clip-rule="evenodd" d="M75.9372 36.8937C75.7548 37.1137 75.4569 37.1137 75.2745 36.8937L74.6111 36.0935L73.9477 36.8937C73.7656 37.1137 73.4671 37.1137 73.285 36.8937C73.1025 36.6733 73.1025 36.3139 73.285 36.0938L73.9477 35.2937L73.285 34.4939C73.1031 34.2742 73.1031 33.9145 73.285 33.6944L73.285 33.6941C73.4677 33.4744 73.7656 33.4744 73.9477 33.6941L74.6111 34.4939L75.2742 33.6941C75.4563 33.4744 75.7548 33.4744 75.9372 33.6941L75.9372 33.6944C76.1197 33.9145 76.1197 34.2742 75.9372 34.4939L75.2742 35.2937L75.9372 36.0938C76.1197 36.3139 76.1197 36.6733 75.9372 36.8937Z" fill="#141111"/>
<path fill-rule="evenodd" clip-rule="evenodd" d="M33.2187 30.4508C33.0362 30.6339 32.7382 30.6339 32.5557 30.4508L31.8922 29.7837L31.2286 30.4508C31.0461 30.6339 30.7478 30.6339 30.5656 30.4508C30.3843 30.2674 30.3843 29.9674 30.5656 29.7843L31.2286 29.1174L30.5659 28.4508C30.3843 28.2677 30.3843 27.9679 30.5659 27.7845C30.7484 27.6011 31.0461 27.6011 31.2286 27.7845L31.8922 28.4508L32.5554 27.7845C32.7379 27.6011 33.0362 27.6011 33.2187 27.7845C33.4012 27.9679 33.4012 28.2677 33.2187 28.4508L32.5554 29.1174L33.2187 29.7843C33.4012 29.9674 33.4012 30.2674 33.2187 30.4508Z" fill="#E92D22"/>
<path fill-rule="evenodd" clip-rule="evenodd" d="M54.8706 30.4508C54.6885 30.6339 54.39 30.6339 54.2079 30.4508L53.5446 29.7837L52.8813 30.4508C52.6989 30.6339 52.401 30.6339 52.2186 30.4508L52.2183 30.4508C52.0359 30.2674 52.0359 29.9674 52.2183 29.7843L52.8819 29.1174L52.2186 28.4508C52.0362 28.2677 52.0362 27.9679 52.2186 27.7845C52.401 27.6011 52.6995 27.6011 52.8819 27.7845L53.5446 28.4508L54.2073 27.7845C54.39 27.6011 54.6879 27.6011 54.8703 27.7845C55.0527 27.9679 55.0527 28.2677 54.8703 28.4508L54.2073 29.1174L54.8706 29.7843C55.053 29.9674 55.053 30.2674 54.8706 30.4508Z" fill="#E92D22"/>
<path fill-rule="evenodd" clip-rule="evenodd" d="M54.8706 39.8623C54.6885 40.0459 54.39 40.0459 54.2079 39.8623L53.5446 39.1955L52.8813 39.8623C52.6989 40.0459 52.401 40.0459 52.2186 39.8623L52.2183 39.8623C52.0359 39.6792 52.0359 39.3794 52.2183 39.1957L52.8819 38.5289L52.2186 37.8627C52.0362 37.6796 52.0362 37.3795 52.2186 37.1962C52.401 37.0131 52.6995 37.0131 52.8819 37.1962L53.5446 37.8627L54.2073 37.1962C54.39 37.0131 54.6879 37.0131 54.8703 37.1962C55.0527 37.3795 55.0527 37.6796 54.8703 37.8627L54.2073 38.5289L54.8706 39.1957C55.053 39.3794 55.053 39.6792 54.8706 39.8623Z" fill="#E92D22"/>
<path fill-rule="evenodd" clip-rule="evenodd" d="M75.9372 39.8623C75.7548 40.0459 75.4569 40.0459 75.2745 39.8623L74.6111 39.1955L73.9477 39.8623C73.7656 40.0459 73.4671 40.0459 73.285 39.8623C73.1025 39.6792 73.1025 39.3794 73.285 39.1957L73.9477 38.5289L73.285 37.8627C73.1031 37.6796 73.1031 37.3795 73.285 37.1962C73.4677 37.0131 73.7656 37.0131 73.9477 37.1962L74.6111 37.8627L75.2742 37.1962C75.4563 37.0131 75.7548 37.0131 75.9372 37.1962C76.1197 37.3795 76.1197 37.6796 75.9372 37.8627L75.2742 38.5289L75.9372 39.1957C76.1197 39.3794 76.1197 39.6792 75.9372 39.8623Z" fill="#E92D22"/>
<path fill-rule="evenodd" clip-rule="evenodd" d="M36.1449 30.4508L36.1443 30.4508C35.9619 30.6339 35.664 30.6339 35.4816 30.4508L34.8186 29.7837L34.1551 30.4508C33.9729 30.6339 33.6751 30.6339 33.4927 30.4508L33.4924 30.4508C33.31 30.2674 33.31 29.9674 33.4924 29.7843L34.1557 29.1174L33.4927 28.4508C33.3105 28.2677 33.3105 27.9679 33.4927 27.7845C33.6751 27.6011 33.9733 27.6011 34.1557 27.7845L34.8186 28.4508L35.481 27.7845C35.664 27.6011 35.9619 27.6011 36.1443 27.7845C36.3267 27.9679 36.3267 28.2677 36.1443 28.4508L35.481 29.1174L36.1449 29.7843C36.327 29.9674 36.327 30.2674 36.1449 30.4508Z" fill="#E92D22"/>
<path fill-rule="evenodd" clip-rule="evenodd" d="M36.1449 39.8623L36.1443 39.8623C35.9619 40.0459 35.664 40.0459 35.4816 39.8623L34.8186 39.1955L34.1551 39.8623C33.9729 40.0459 33.6751 40.0459 33.4927 39.8623L33.4924 39.8623C33.31 39.6792 33.31 39.3794 33.4924 39.1957L34.1557 38.5289L33.4927 37.8627C33.3105 37.6796 33.3105 37.3795 33.4927 37.1962C33.6751 37.0131 33.9733 37.0131 34.1557 37.1962L34.8186 37.8627L35.481 37.1962C35.664 37.0131 35.9619 37.0131 36.1443 37.1962C36.3267 37.3795 36.3267 37.6796 36.1443 37.8627L35.481 38.5289L36.1449 39.1957C36.327 39.3794 36.327 39.6792 36.1449 39.8623Z" fill="#E92D22"/>
<path fill-rule="evenodd" clip-rule="evenodd" d="M57.7965 30.4508C57.6143 30.6339 57.3158 30.6339 57.1337 30.4508L56.4703 29.7837L55.8069 30.4508C55.6251 30.6339 55.3266 30.6339 55.1441 30.4508L55.1436 30.4508C54.962 30.2674 54.962 29.9674 55.1436 29.7843L55.8075 29.1174L55.1441 28.4508C54.962 28.2677 54.962 27.9679 55.1441 27.7845C55.3269 27.6011 55.6251 27.6011 55.8075 27.7845L56.4703 28.4508L57.1337 27.7845C57.3158 27.6011 57.6143 27.6011 57.7965 27.7845C57.9789 27.9679 57.9789 28.2677 57.7965 28.4508L57.1337 29.1174L57.7965 29.7843C57.9789 29.9674 57.9789 30.2674 57.7965 30.4508Z" fill="#E92D22"/>
<path fill-rule="evenodd" clip-rule="evenodd" d="M57.7965 39.8623C57.6143 40.0459 57.3158 40.0459 57.1337 39.8623L56.4703 39.1955L55.8069 39.8623C55.6251 40.0459 55.3266 40.0459 55.1441 39.8623L55.1436 39.8623C54.962 39.6792 54.962 39.3794 55.1436 39.1957L55.8075 38.5289L55.1441 37.8627C54.962 37.6796 54.962 37.3795 55.1441 37.1962C55.3269 37.0131 55.6251 37.0131 55.8075 37.1962L56.4703 37.8627L57.1337 37.1962C57.3158 37.0131 57.6143 37.0131 57.7965 37.1962C57.9789 37.3795 57.9789 37.6796 57.7965 37.8627L57.1337 38.5289L57.7965 39.1957C57.9789 39.3794 57.9789 39.6792 57.7965 39.8623Z" fill="#E92D22"/>
<path fill-rule="evenodd" clip-rule="evenodd" d="M78.8634 39.8623L78.8628 39.8623C78.6804 40.0459 78.3826 40.0459 78.2002 39.8623L77.537 39.1955L76.8738 39.8623C76.6917 40.0459 76.3935 40.0459 76.2109 39.8623C76.0285 39.6792 76.0285 39.3794 76.2109 39.1957L76.8738 38.5289L76.2112 37.8627C76.0291 37.6796 76.0291 37.3795 76.2112 37.1962C76.3935 37.0131 76.692 37.0131 76.8738 37.1962L77.537 37.8627L78.1996 37.1962C78.3826 37.0131 78.6804 37.0131 78.8628 37.1962C79.0452 37.3795 79.0452 37.6796 78.8628 37.8627L78.1996 38.5289L78.8634 39.1957C79.0455 39.3794 79.0455 39.6792 78.8634 39.8623Z" fill="#E92D22"/>
<path fill-rule="evenodd" clip-rule="evenodd" d="M39.6287 30.4508C39.4098 30.6339 39.0516 30.6339 38.8327 30.4508L38.0371 29.7837L37.2408 30.4508C37.0226 30.6339 36.6644 30.6339 36.4455 30.4508L36.4451 30.4508C36.2269 30.2674 36.2269 29.9674 36.4451 29.7843L37.2415 29.1174L36.4455 28.4508C36.2269 28.2677 36.2269 27.9679 36.4455 27.7845C36.6644 27.6011 37.0226 27.6011 37.2415 27.7845L38.0371 28.4508L38.8327 27.7845C39.0516 27.6011 39.4091 27.6011 39.6287 27.7845C39.8472 27.9679 39.8472 28.2677 39.6287 28.4508L38.8327 29.1174L39.6287 29.7843C39.8472 29.9674 39.8472 30.2674 39.6287 30.4508Z" fill="#E92D22"/>
<path fill-rule="evenodd" clip-rule="evenodd" d="M39.6287 39.8623C39.4098 40.0459 39.0516 40.0459 38.8327 39.8623L38.0371 39.1955L37.2408 39.8623C37.0226 40.0459 36.6644 40.0459 36.4455 39.8623L36.4451 39.8623C36.2269 39.6792 36.2269 39.3794 36.4451 39.1957L37.2415 38.5289L36.4455 37.8627C36.2269 37.6796 36.2269 37.3795 36.4455 37.1962C36.6644 37.0131 37.0226 37.0131 37.2415 37.1962L38.0371 37.8627L38.8327 37.1962C39.0516 37.0131 39.4091 37.0131 39.6287 37.1962C39.8472 37.3795 39.8472 37.6796 39.6287 37.8627L38.8327 38.5289L39.6287 39.1957C39.8472 39.3794 39.8472 39.6792 39.6287 39.8623Z" fill="#E92D22"/>
<path fill-rule="evenodd" clip-rule="evenodd" d="M60.722 30.4508C60.5399 30.6339 60.2417 30.6339 60.0593 30.4508L59.3961 29.7837L58.7331 30.4508C58.5507 30.6339 58.2531 30.6339 58.0701 30.4508C57.8877 30.2674 57.8877 29.9674 58.0701 29.7843L58.7331 29.1174L58.0707 28.4508C57.8883 28.2677 57.8883 27.9679 58.0707 27.7845C58.2531 27.6011 58.5507 27.6011 58.7331 27.7845L59.3961 28.4508L60.059 27.7845C60.2415 27.6011 60.5399 27.6011 60.722 27.7845C60.9044 27.9679 60.9044 28.2677 60.722 28.4508L60.059 29.1174L60.722 29.7843C60.905 29.9674 60.905 30.2674 60.722 30.4508Z" fill="#E92D22"/>
<path fill-rule="evenodd" clip-rule="evenodd" d="M60.722 39.8623C60.5399 40.0459 60.2417 40.0459 60.0593 39.8623L59.3961 39.1955L58.7331 39.8623C58.5507 40.0459 58.2531 40.0459 58.0701 39.8623C57.8877 39.6792 57.8877 39.3794 58.0701 39.1957L58.7331 38.5289L58.0707 37.8627C57.8883 37.6796 57.8883 37.3795 58.0707 37.1962C58.2531 37.0131 58.5507 37.0131 58.7331 37.1962L59.3961 37.8627L60.059 37.1962C60.2415 37.0131 60.5399 37.0131 60.722 37.1962C60.9044 37.3795 60.9044 37.6796 60.722 37.8627L60.059 38.5289L60.722 39.1957C60.905 39.3794 60.905 39.6792 60.722 39.8623Z" fill="#E92D22"/>
<path fill-rule="evenodd" clip-rule="evenodd" d="M42.5815 30.4508C42.3991 30.6339 42.1015 30.6339 41.919 30.4508L41.2554 29.7837L40.5924 30.4508C40.41 30.6339 40.1115 30.6339 39.9294 30.4508C39.747 30.2674 39.747 29.9674 39.9294 29.7843L40.5924 29.1174L39.9297 28.4508C39.7473 28.2677 39.7473 27.9679 39.9297 27.7845C40.1121 27.6011 40.41 27.6011 40.5924 27.7845L41.2554 28.4508L41.9185 27.7845C42.1009 27.6011 42.3991 27.6011 42.5815 27.7845C42.7636 27.9679 42.7636 28.2677 42.5815 28.4508L41.9185 29.1174L42.5815 29.7843C42.7642 29.9674 42.7642 30.2674 42.5815 30.4508Z" fill="#E92D22"/>
<path fill-rule="evenodd" clip-rule="evenodd" d="M42.5815 39.8623C42.3991 40.0459 42.1015 40.0459 41.919 39.8623L41.2554 39.1955L40.5924 39.8623C40.41 40.0459 40.1115 40.0459 39.9294 39.8623C39.747 39.6792 39.747 39.3794 39.9294 39.1957L40.5924 38.5289L39.9297 37.8627C39.7473 37.6796 39.7473 37.3795 39.9297 37.1962C40.1121 37.0131 40.41 37.0131 40.5924 37.1962L41.2554 37.8627L41.9185 37.1962C42.1009 37.0131 42.3991 37.0131 42.5815 37.1962C42.7636 37.3795 42.7636 37.6796 42.5815 37.8627L41.9185 38.5289L42.5815 39.1957C42.7642 39.3794 42.7642 39.6792 42.5815 39.8623Z" fill="#E92D22"/>
<path fill-rule="evenodd" clip-rule="evenodd" d="M64.2062 30.4508C63.9873 30.6339 63.6291 30.6339 63.4105 30.4508L62.6149 29.7837L61.8186 30.4508C61.6004 30.6339 61.2425 30.6339 61.0236 30.4508L61.0229 30.4508C60.8047 30.2674 60.8047 29.9674 61.0229 29.7843L61.8189 29.1174L61.0236 28.4508C60.8047 28.2677 60.8047 27.9679 61.0236 27.7845C61.2425 27.6011 61.6004 27.6011 61.8189 27.7845L62.6149 28.4508L63.4098 27.7845C63.6291 27.6011 63.9869 27.6011 64.2055 27.7845C64.4244 27.9679 64.4244 28.2677 64.2055 28.4508L63.4098 29.1174L64.2062 29.7843C64.4251 29.9674 64.4251 30.2674 64.2062 30.4508Z" fill="#E92D22"/>
<path fill-rule="evenodd" clip-rule="evenodd" d="M64.2062 39.8623C63.9873 40.0459 63.6291 40.0459 63.4105 39.8623L62.6149 39.1955L61.8186 39.8623C61.6004 40.0459 61.2425 40.0459 61.0236 39.8623L61.0229 39.8623C60.8047 39.6792 60.8047 39.3794 61.0229 39.1957L61.8189 38.5289L61.0236 37.8627C60.8047 37.6796 60.8047 37.3795 61.0236 37.1962C61.2425 37.0131 61.6004 37.0131 61.8189 37.1962L62.6149 37.8627L63.4098 37.1962C63.6291 37.0131 63.9869 37.0131 64.2055 37.1962C64.4244 37.3795 64.4244 37.6796 64.2055 37.8627L63.4098 38.5289L64.2062 39.1957C64.4251 39.3794 64.4251 39.6792 64.2062 39.8623Z" fill="#E92D22"/>
<path fill-rule="evenodd" clip-rule="evenodd" d="M45.5076 30.4508L45.5073 30.4508C45.3255 30.6339 45.0273 30.6339 44.8449 30.4508L44.1813 29.7837L43.518 30.4508C43.3356 30.6339 43.038 30.6339 42.8556 30.4508L42.8553 30.4508C42.6729 30.2674 42.6729 29.9674 42.8553 29.7843L43.5186 29.1174L42.8556 28.4508C42.6735 28.2677 42.6735 27.9679 42.8556 27.7845C43.038 27.6011 43.3362 27.6011 43.5186 27.7845L44.1813 28.4508L44.8443 27.7845C45.0273 27.6011 45.3249 27.6011 45.5073 27.7845C45.6898 27.9679 45.6898 28.2677 45.5073 28.4508L44.8443 29.1174L45.5076 29.7843C45.69 29.9674 45.69 30.2674 45.5076 30.4508Z" fill="#E92D22"/>
<path fill-rule="evenodd" clip-rule="evenodd" d="M45.5076 39.8623L45.5073 39.8623C45.3255 40.0459 45.0273 40.0459 44.8449 39.8623L44.1813 39.1955L43.518 39.8623C43.3356 40.0459 43.038 40.0459 42.8556 39.8623L42.8553 39.8623C42.6729 39.6792 42.6729 39.3794 42.8553 39.1957L43.5186 38.5289L42.8556 37.8627C42.6735 37.6796 42.6735 37.3795 42.8556 37.1962C43.038 37.0131 43.3362 37.0131 43.5186 37.1962L44.1813 37.8627L44.8443 37.1962C45.0273 37.0131 45.3249 37.0131 45.5073 37.1962C45.6898 37.3795 45.6898 37.6796 45.5073 37.8627L44.8443 38.5289L45.5076 39.1957C45.69 39.3794 45.69 39.6792 45.5076 39.8623Z" fill="#E92D22"/>
<path fill-rule="evenodd" clip-rule="evenodd" d="M67.1595 30.4508C66.9771 30.6339 66.6786 30.6339 66.4968 30.4508L65.8333 29.7837L65.17 30.4508C64.9882 30.6339 64.6897 30.6339 64.5073 30.4508L64.5067 30.4508C64.3249 30.2674 64.3249 29.9674 64.5067 29.7843L65.1706 29.1174L64.5073 28.4508C64.3249 28.2677 64.3249 27.9679 64.5073 27.7845C64.69 27.6011 64.9882 27.6011 65.1706 27.7845L65.8333 28.4508L66.4965 27.7845C66.6786 27.6011 66.9771 27.6011 67.1595 27.7845C67.3419 27.9679 67.3419 28.2677 67.1595 28.4508L66.4965 29.1174L67.1595 29.7843C67.3419 29.9674 67.3419 30.2674 67.1595 30.4508Z" fill="#E92D22"/>
<path fill-rule="evenodd" clip-rule="evenodd" d="M67.1595 39.8623C66.9771 40.0459 66.6786 40.0459 66.4968 39.8623L65.8333 39.1955L65.17 39.8623C64.9882 40.0459 64.6897 40.0459 64.5073 39.8623L64.5067 39.8623C64.3249 39.6792 64.3249 39.3794 64.5067 39.1957L65.1706 38.5289L64.5073 37.8627C64.3249 37.6796 64.3249 37.3795 64.5073 37.1962C64.69 37.0131 64.9882 37.0131 65.1706 37.1962L65.8333 37.8627L66.4965 37.1962C66.6786 37.0131 66.9771 37.0131 67.1595 37.1962C67.3419 37.3795 67.3419 37.6796 67.1595 37.8627L66.4965 38.5289L67.1595 39.1957C67.3419 39.3794 67.3419 39.6792 67.1595 39.8623Z" fill="#E92D22"/>
<path fill-rule="evenodd" clip-rule="evenodd" d="M48.4338 30.4508C48.2513 30.6339 47.9528 30.6339 47.7704 30.4508L47.1073 29.7837L46.4436 30.4508C46.2618 30.6339 45.9636 30.6339 45.7811 30.4508L45.7808 30.4508C45.599 30.2674 45.599 29.9674 45.7808 29.7843L46.4442 29.1174L45.7811 28.4508C45.599 28.2677 45.599 27.9679 45.7811 27.7845C45.9636 27.6011 46.2618 27.6011 46.4442 27.7845L47.1073 28.4508L47.7698 27.7845C47.9528 27.6011 48.2513 27.6011 48.4338 27.7845C48.6159 27.9679 48.6159 28.2677 48.4338 28.4508L47.7698 29.1174L48.4338 29.7843C48.6159 29.9674 48.6159 30.2674 48.4338 30.4508Z" fill="#E92D22"/>
<path fill-rule="evenodd" clip-rule="evenodd" d="M48.4338 39.8623C48.2513 40.0459 47.9528 40.0459 47.7704 39.8623L47.1073 39.1955L46.4436 39.8623C46.2618 40.0459 45.9636 40.0459 45.7811 39.8623L45.7808 39.8623C45.599 39.6792 45.599 39.3794 45.7808 39.1957L46.4442 38.5289L45.7811 37.8627C45.599 37.6796 45.599 37.3795 45.7811 37.1962C45.9636 37.0131 46.2618 37.0131 46.4442 37.1962L47.1073 37.8627L47.7698 37.1962C47.9528 37.0131 48.2513 37.0131 48.4338 37.1962C48.6159 37.3795 48.6159 37.6796 48.4338 37.8627L47.7698 38.5289L48.4338 39.1957C48.6159 39.3794 48.6159 39.6792 48.4338 39.8623Z" fill="#E92D22"/>
<path fill-rule="evenodd" clip-rule="evenodd" d="M70.0854 30.4508L70.0848 30.4508C69.9027 30.6339 69.6049 30.6339 69.4225 30.4508L68.759 29.7837L68.0963 30.4508C67.9139 30.6339 67.6158 30.6339 67.4331 30.4508C67.2507 30.2674 67.2507 29.9674 67.4331 29.7843L68.0963 29.1174L67.4337 28.4508C67.2513 28.2677 67.2513 27.9679 67.4337 27.7845C67.6158 27.6011 67.9139 27.6011 68.0963 27.7845L68.759 28.4508L69.4222 27.7845C69.6043 27.6011 69.9027 27.6011 70.0848 27.7845C70.2672 27.9679 70.2672 28.2677 70.0848 28.4508L69.4222 29.1174L70.0854 29.7843C70.2678 29.9674 70.2678 30.2674 70.0854 30.4508Z" fill="#E92D22"/>
<path fill-rule="evenodd" clip-rule="evenodd" d="M70.0854 39.8623L70.0848 39.8623C69.9027 40.0459 69.6049 40.0459 69.4225 39.8623L68.759 39.1955L68.0963 39.8623C67.9139 40.0459 67.6158 40.0459 67.4331 39.8623C67.2507 39.6792 67.2507 39.3794 67.4331 39.1957L68.0963 38.5289L67.4337 37.8627C67.2513 37.6796 67.2513 37.3795 67.4337 37.1962C67.6158 37.0131 67.9139 37.0131 68.0963 37.1962L68.759 37.8627L69.4222 37.1962C69.6043 37.0131 69.9027 37.0131 70.0848 37.1962C70.2672 37.3795 70.2672 37.6796 70.0848 37.8627L69.4222 38.5289L70.0854 39.1957C70.2678 39.3794 70.2678 39.6792 70.0854 39.8623Z" fill="#E92D22"/>
<path fill-rule="evenodd" clip-rule="evenodd" d="M12.4248 21.902L12.4248 21.9022C12.2436 22.0856 12.2436 22.3854 12.4248 22.5682L13.0885 23.2353L12.4248 23.9021C12.2436 24.0855 12.2436 24.3849 12.4248 24.5683C12.6061 24.7517 12.9043 24.7517 13.0885 24.5683L13.7522 23.9015L14.4159 24.568C14.5972 24.7517 14.8954 24.7517 15.0767 24.568C15.2609 24.3849 15.2609 24.0852 15.0767 23.9015L14.4159 23.2353L15.0767 22.5688C15.2609 22.3854 15.2609 22.0856 15.0767 21.9022C14.8954 21.7189 14.5972 21.7189 14.4159 21.9022L13.7522 22.5688L13.0885 21.902C12.9043 21.7189 12.6061 21.7189 12.4248 21.902Z" fill="#141111"/>
<path fill-rule="evenodd" clip-rule="evenodd" d="M21.4887 21.902L21.4887 21.9022C21.7062 22.0856 21.7062 22.3854 21.4887 22.5682L20.6923 23.2353L21.4887 23.9021C21.7062 24.0855 21.7062 24.3849 21.4887 24.5683C21.2712 24.7517 20.9133 24.7517 20.6923 24.5683L19.8959 23.9015L19.0994 24.568C18.8819 24.7517 18.524 24.7517 18.3065 24.568C18.0855 24.3849 18.0855 24.0852 18.3065 23.9015L19.0994 23.2353L18.3065 22.5688C18.0855 22.3854 18.0855 22.0856 18.3065 21.9022C18.524 21.7189 18.8819 21.7189 19.0994 21.9022L19.8959 22.5688L20.6923 21.902C20.9133 21.7189 21.2712 21.7189 21.4887 21.902Z" fill="#141111"/>
<path fill-rule="evenodd" clip-rule="evenodd" d="M15.3529 21.902L15.3529 21.9022C15.1688 22.0856 15.1688 22.3854 15.3529 22.5682L16.0161 23.2353L15.3529 23.9021C15.1688 24.0855 15.1688 24.3849 15.3529 24.5683C15.534 24.7517 15.832 24.7517 16.0161 24.5683L16.6793 23.9015L17.3395 24.568C17.5236 24.7517 17.8216 24.7517 18.0027 24.568C18.1868 24.3849 18.1868 24.0852 18.0027 23.9015L17.3395 23.2353L18.0027 22.5688C18.1868 22.3854 18.1868 22.0856 18.0027 21.9022C17.8216 21.7189 17.5236 21.7189 17.3395 21.9022L16.6793 22.5688L16.0161 21.902C15.832 21.7189 15.534 21.7189 15.3529 21.902Z" fill="#E92D22"/>
<path fill-rule="evenodd" clip-rule="evenodd" d="M0.165775 21.902L0.165775 21.9022C-0.0552585 22.0856 -0.0552586 22.3854 0.165775 22.5682L0.962205 23.2353L0.165775 23.9021C-0.0552587 24.0855 -0.0552587 24.3849 0.165775 24.5683C0.3833 24.7517 0.741171 24.7517 0.962204 24.5683L1.7586 23.9015L2.55153 24.568C2.77257 24.7517 3.13044 24.7517 3.34796 24.568C3.56549 24.3849 3.56549 24.0852 3.34796 23.9015L2.55153 23.2353L3.34796 22.5688C3.56549 22.3854 3.56549 22.0856 3.34796 21.9022C3.13044 21.7189 2.77257 21.7189 2.55153 21.9022L1.7586 22.5688L0.962205 21.902C0.741171 21.7189 0.3833 21.7189 0.165775 21.902Z" fill="#141111"/>
<path fill-rule="evenodd" clip-rule="evenodd" d="M33.2187 21.902L33.2187 21.9022C33.4012 22.0856 33.4012 22.3854 33.2187 22.5682L32.5554 23.2353L33.2187 23.9021C33.4012 24.0855 33.4012 24.3849 33.2187 24.5683C33.0362 24.7517 32.7379 24.7517 32.5554 24.5683L31.8922 23.9015L31.2286 24.568C31.0461 24.7517 30.7478 24.7517 30.5656 24.568C30.3843 24.3849 30.3843 24.0852 30.5656 23.9015L31.2286 23.2353L30.5656 22.5688C30.3843 22.3854 30.3843 22.0856 30.5656 21.9022C30.7478 21.7189 31.0461 21.7189 31.2286 21.9022L31.8922 22.5688L32.5554 21.902C32.7379 21.7189 33.0362 21.7189 33.2187 21.902Z" fill="#141111"/>
<path fill-rule="evenodd" clip-rule="evenodd" d="M3.64926 21.902L3.64926 21.9022C3.46507 22.0856 3.46507 22.3854 3.64926 22.5682L4.31004 23.2353L3.64926 23.9021C3.46507 24.0855 3.46507 24.3849 3.64926 24.5683C3.83053 24.7517 4.12877 24.7517 4.31004 24.5683L4.9737 23.9015L5.6374 24.568C5.81867 24.7517 6.11689 24.7517 6.30109 24.568C6.48236 24.3849 6.48236 24.0852 6.30109 23.9015L5.6374 23.2353L6.30109 22.5688C6.48236 22.3854 6.48236 22.0856 6.30109 21.9022C6.11689 21.7189 5.81867 21.7189 5.6374 21.9022L4.9737 22.5688L4.31004 21.902C4.12877 21.7189 3.83053 21.7189 3.64926 21.902Z" fill="#E92D22"/>
<path fill-rule="evenodd" clip-rule="evenodd" d="M30.2945 21.902L30.2945 21.9022C30.4747 22.0856 30.4747 22.3854 30.2945 22.5682L29.6279 23.2353L30.2945 23.9021C30.4747 24.0855 30.4747 24.3849 30.2945 24.5683C30.1103 24.7517 29.8121 24.7517 29.6308 24.5683L28.9671 23.9015L28.3034 24.568C28.1221 24.7517 27.8239 24.7517 27.6397 24.568C27.4584 24.3849 27.4584 24.0852 27.6397 23.9015L28.3034 23.2353L27.6397 22.5688C27.4584 22.3854 27.4584 22.0856 27.6397 21.9022C27.8239 21.7189 28.1221 21.7189 28.3034 21.9022L28.9671 22.5688L29.6308 21.902C29.8121 21.7189 30.1103 21.7189 30.2945 21.902Z" fill="#E92D22"/>
<path fill-rule="evenodd" clip-rule="evenodd" d="M12.4248 18.4004L12.4248 18.4007C12.2436 18.6208 12.2436 18.9801 12.4248 19.2001L13.0885 20.0002L12.4248 20.8003C12.2436 21.02 12.2436 21.3796 12.4248 21.6C12.6061 21.8197 12.9043 21.8197 13.0885 21.6L13.7522 20.7996L14.4159 21.5997C14.5972 21.8193 14.8954 21.8193 15.0767 21.5997C15.2609 21.3793 15.2609 21.0196 15.0767 20.7996L14.4159 20.0002L15.0767 19.2004C15.2609 18.9804 15.2609 18.6207 15.0767 18.4011C14.8954 18.1807 14.5972 18.1807 14.4159 18.4011L13.7522 19.2004L13.0885 18.4004C12.9043 18.1803 12.6061 18.1803 12.4248 18.4004Z" fill="#E92D22"/>
<path fill-rule="evenodd" clip-rule="evenodd" d="M12.4248 27.5097L12.4248 27.5094C12.2436 27.326 12.2436 27.0262 12.4248 26.8432L13.0885 26.1764L12.4248 25.5093C12.2436 25.3262 12.2436 25.0265 12.4248 24.8434L12.4248 24.8431C12.6061 24.66 12.9043 24.66 13.0885 24.8431L13.7522 25.5099L14.4159 24.8434C14.5972 24.66 14.8954 24.66 15.0767 24.8434C15.2609 25.0268 15.2609 25.3265 15.0767 25.5099L14.4159 26.1764L15.0767 26.8429C15.2609 27.0263 15.2609 27.326 15.0767 27.5091C14.8954 27.6927 14.5972 27.6927 14.4159 27.5091L13.7522 26.8429L13.0885 27.5097C12.9043 27.6928 12.6061 27.6928 12.4248 27.5097Z" fill="#E92D22"/>
<path fill-rule="evenodd" clip-rule="evenodd" d="M21.4887 18.4004L21.4887 18.4007C21.7062 18.6208 21.7062 18.9801 21.4887 19.2001L20.6923 20.0002L21.4887 20.8003C21.7062 21.02 21.7062 21.3796 21.4887 21.6C21.2712 21.8197 20.9133 21.8197 20.6923 21.6L19.8959 20.7996L19.0994 21.5997C18.8819 21.8193 18.524 21.8193 18.3065 21.5997C18.0855 21.3793 18.0855 21.0196 18.3065 20.7996L19.0994 20.0002L18.3065 19.2004C18.0855 18.9804 18.0855 18.6207 18.3065 18.4011C18.524 18.1807 18.8819 18.1807 19.0994 18.4011L19.8959 19.2004L20.6923 18.4004C20.9133 18.1803 21.2712 18.1803 21.4887 18.4004Z" fill="#E92D22"/>
<path fill-rule="evenodd" clip-rule="evenodd" d="M21.4887 27.5097L21.4887 27.5094C21.7062 27.326 21.7062 27.0262 21.4887 26.8432L20.6923 26.1764L21.4887 25.5093C21.7062 25.3262 21.7062 25.0265 21.4887 24.8434L21.4887 24.8431C21.2712 24.66 20.9133 24.66 20.6923 24.8431L19.8959 25.5099L19.0994 24.8434C18.8819 24.66 18.524 24.66 18.3065 24.8434C18.0855 25.0268 18.0855 25.3265 18.3065 25.5099L19.0994 26.1764L18.3065 26.8429C18.0855 27.0263 18.0855 27.326 18.3065 27.5091C18.524 27.6927 18.8819 27.6927 19.0994 27.5091L19.8959 26.8429L20.6923 27.5097C20.9133 27.6928 21.2712 27.6928 21.4887 27.5097Z" fill="#E92D22"/>
<path fill-rule="evenodd" clip-rule="evenodd" d="M15.3529 18.4004L15.3529 18.4007C15.1688 18.6208 15.1688 18.9801 15.3529 19.2001L16.0161 20.0002L15.3529 20.8003C15.1688 21.02 15.1688 21.3796 15.3529 21.6C15.534 21.8197 15.832 21.8197 16.0161 21.6L16.6793 20.7996L17.3395 21.5997C17.5236 21.8193 17.8216 21.8193 18.0027 21.5997C18.1868 21.3793 18.1868 21.0196 18.0027 20.7996L17.3395 20.0002L18.0027 19.2004C18.1868 18.9804 18.1868 18.6207 18.0027 18.4011C17.8216 18.1807 17.5236 18.1807 17.3395 18.4011L16.6793 19.2004L16.0161 18.4004C15.832 18.1803 15.534 18.1803 15.3529 18.4004Z" fill="#141111"/>
<path fill-rule="evenodd" clip-rule="evenodd" d="M15.3529 27.5097L15.3529 27.5094C15.1688 27.326 15.1688 27.0262 15.3529 26.8432L16.0161 26.1764L15.3529 25.5093C15.1688 25.3262 15.1688 25.0265 15.3529 24.8434L15.3529 24.8431C15.534 24.66 15.832 24.66 16.0161 24.8431L16.6793 25.5099L17.3395 24.8434C17.5236 24.66 17.8216 24.66 18.0027 24.8434C18.1868 25.0268 18.1868 25.3265 18.0027 25.5099L17.3395 26.1764L18.0027 26.8429C18.1868 27.0263 18.1868 27.326 18.0027 27.5091C17.8216 27.6927 17.5236 27.6927 17.3395 27.5091L16.6793 26.8429L16.0161 27.5097C15.832 27.6928 15.534 27.6928 15.3529 27.5097Z" fill="#141111"/>
<path fill-rule="evenodd" clip-rule="evenodd" d="M3.64926 18.4004L3.64926 18.4007C3.46507 18.6208 3.46507 18.9801 3.64926 19.2001L4.31004 20.0002L3.64926 20.8003C3.46507 21.02 3.46507 21.3796 3.64926 21.6C3.83053 21.8197 4.12877 21.8197 4.31004 21.6L4.9737 20.7996L5.6374 21.5997C5.81867 21.8193 6.11689 21.8193 6.30109 21.5997C6.48236 21.3793 6.48236 21.0196 6.30109 20.7996L5.6374 20.0002L6.30109 19.2004C6.48236 18.9804 6.48236 18.6207 6.30109 18.4011C6.11689 18.1807 5.81867 18.1807 5.6374 18.4011L4.9737 19.2004L4.31004 18.4004C4.12877 18.1803 3.83053 18.1803 3.64926 18.4004Z" fill="#141111"/>
<path fill-rule="evenodd" clip-rule="evenodd" d="M3.64926 27.5097L3.64926 27.5094C3.46507 27.326 3.46507 27.0262 3.64926 26.8432L4.31004 26.1764L3.64926 25.5093C3.46507 25.3262 3.46507 25.0265 3.64926 24.8434L3.64926 24.8431C3.83053 24.66 4.12877 24.66 4.31004 24.8431L4.9737 25.5099L5.6374 24.8434C5.81867 24.66 6.11689 24.66 6.30109 24.8434C6.48236 25.0268 6.48236 25.3265 6.30109 25.5099L5.6374 26.1764L6.30109 26.8429C6.48236 27.0263 6.48236 27.326 6.30109 27.5091C6.11689 27.6927 5.81867 27.6927 5.6374 27.5091L4.9737 26.8429L4.31004 27.5097C4.12877 27.6928 3.83053 27.6928 3.64926 27.5097Z" fill="#141111"/>
<path fill-rule="evenodd" clip-rule="evenodd" d="M30.2945 18.4004L30.2945 18.4007C30.4747 18.6208 30.4747 18.9801 30.2945 19.2001L29.6279 20.0002L30.2945 20.8003C30.4747 21.02 30.4747 21.3796 30.2945 21.6C30.1103 21.8197 29.8121 21.8197 29.6308 21.6L28.9671 20.7996L28.3034 21.5997C28.1221 21.8193 27.8239 21.8193 27.6397 21.5997C27.4584 21.3793 27.4584 21.0196 27.6397 20.7996L28.3034 20.0002L27.6397 19.2004C27.4584 18.9804 27.4584 18.6207 27.6397 18.4011C27.8239 18.1807 28.1221 18.1807 28.3034 18.4011L28.9671 19.2004L29.6308 18.4004C29.8121 18.1803 30.1103 18.1803 30.2945 18.4004Z" fill="#141111"/>
<path fill-rule="evenodd" clip-rule="evenodd" d="M30.2945 27.5097L30.2945 27.5094C30.4747 27.326 30.4747 27.0262 30.2945 26.8432L29.6279 26.1764L30.2945 25.5093C30.4747 25.3262 30.4747 25.0265 30.2945 24.8434L30.2945 24.8431C30.1103 24.66 29.8121 24.66 29.6308 24.8431L28.9671 25.5099L28.3034 24.8434C28.1221 24.66 27.8239 24.66 27.6397 24.8434C27.4584 25.0268 27.4584 25.3265 27.6397 25.5099L28.3034 26.1764L27.6397 26.8429C27.4584 27.0263 27.4584 27.326 27.6397 27.5091C27.8239 27.6927 28.1221 27.6927 28.3034 27.5091L28.9671 26.8429L29.6308 27.5097C29.8121 27.6928 30.1103 27.6928 30.2945 27.5097Z" fill="#141111"/>
<path fill-rule="evenodd" clip-rule="evenodd" d="M6.5752 18.4004L6.5752 18.4007C6.391 18.6208 6.391 18.9801 6.5752 19.2001L7.23595 20.0002L6.5752 20.8003C6.391 21.02 6.391 21.3796 6.5752 21.6C6.75647 21.8197 7.05468 21.8197 7.23595 21.6L7.89965 20.7996L8.56335 21.5997C8.74462 21.8193 9.04282 21.8193 9.22702 21.5997C9.40829 21.3793 9.40829 21.0196 9.22702 20.7996L8.56335 20.0002L9.22702 19.2004C9.40829 18.9804 9.40829 18.6207 9.22702 18.4011C9.04282 18.1807 8.74462 18.1807 8.56335 18.4011L7.89965 19.2004L7.23595 18.4004C7.05468 18.1803 6.75647 18.1803 6.5752 18.4004Z" fill="#E92D22"/>
<path fill-rule="evenodd" clip-rule="evenodd" d="M6.5752 27.5097L6.5752 27.5094C6.391 27.326 6.391 27.0262 6.5752 26.8432L7.23595 26.1764L6.5752 25.5093C6.391 25.3262 6.391 25.0265 6.5752 24.8434L6.5752 24.8431C6.75647 24.66 7.05468 24.66 7.23595 24.8431L7.89965 25.5099L8.56335 24.8434C8.74462 24.66 9.04282 24.66 9.22702 24.8434C9.40829 25.0268 9.40829 25.3265 9.22702 25.5099L8.56335 26.1764L9.22702 26.8429C9.40829 27.0263 9.40829 27.326 9.22702 27.5091C9.04282 27.6927 8.74462 27.6927 8.56335 27.5091L7.89965 26.8429L7.23595 27.5097C7.05468 27.6928 6.75647 27.6928 6.5752 27.5097Z" fill="#E92D22"/>
<path fill-rule="evenodd" clip-rule="evenodd" d="M27.3678 18.4004L27.3678 18.4007C27.549 18.6208 27.549 18.9801 27.3678 19.2001L26.7043 20.0002L27.3678 20.8003C27.549 21.02 27.549 21.3796 27.3678 21.6C27.1836 21.8197 26.8855 21.8197 26.7043 21.6L26.0407 20.7996L25.3772 21.5997C25.196 21.8193 24.8978 21.8193 24.7137 21.5997C24.5325 21.3793 24.5325 21.0196 24.7137 20.7996L25.3772 20.0002L24.7137 19.2004C24.5325 18.9804 24.5325 18.6207 24.7137 18.4011C24.8978 18.1807 25.196 18.1807 25.3772 18.4011L26.0407 19.2004L26.7043 18.4004C26.8855 18.1803 27.1836 18.1803 27.3678 18.4004Z" fill="#E92D22"/>
<path fill-rule="evenodd" clip-rule="evenodd" d="M27.3678 27.5097L27.3678 27.5094C27.549 27.326 27.549 27.0262 27.3678 26.8432L26.7043 26.1764L27.3678 25.5093C27.549 25.3262 27.549 25.0265 27.3678 24.8434L27.3678 24.8431C27.1836 24.66 26.8855 24.66 26.7043 24.8431L26.0407 25.5099L25.3772 24.8434C25.196 24.66 24.8978 24.66 24.7137 24.8434C24.5325 25.0268 24.5325 25.3265 24.7137 25.5099L25.3772 26.1764L24.7137 26.8429C24.5325 27.0263 24.5325 27.326 24.7137 27.5091C24.8978 27.6927 25.196 27.6927 25.3772 27.5091L26.0407 26.8429L26.7043 27.5097C26.8855 27.6928 27.1836 27.6928 27.3678 27.5097Z" fill="#E92D22"/>
<path fill-rule="evenodd" clip-rule="evenodd" d="M9.49891 15.4317L9.49891 15.432C9.31764 15.6154 9.31764 15.9151 9.49891 16.0981L10.1626 16.7649L9.49891 17.4313C9.31763 17.6147 9.31763 17.9144 9.49891 18.0978L9.49891 18.0981C9.6831 18.2811 9.9813 18.2811 10.1626 18.0981L10.8263 17.4313L11.49 18.0975C11.6712 18.2809 11.9695 18.2809 12.1507 18.0975C12.3349 17.9141 12.3349 17.6147 12.1507 17.4313L11.49 16.7649L12.1507 16.0984C12.3349 15.9154 12.3349 15.6154 12.1507 15.432C11.9695 15.2486 11.6712 15.2486 11.49 15.432L10.8263 16.0984L10.1626 15.4317C9.9813 15.2483 9.6831 15.2483 9.49891 15.4317Z" fill="#E92D22"/>
<path fill-rule="evenodd" clip-rule="evenodd" d="M9.49891 30.451L9.49891 30.4508C9.31763 30.2674 9.31763 29.9676 9.49891 29.7845L10.1626 29.1176L9.49891 28.4508C9.31764 28.2674 9.31764 27.9676 9.49891 27.7845C9.6831 27.6011 9.9813 27.6011 10.1626 27.7845L10.8263 28.4511L11.49 27.7845C11.6712 27.6014 11.9695 27.6014 12.1507 27.7845C12.3349 27.9679 12.3349 28.2677 12.1507 28.4511L11.49 29.1176L12.1507 29.7842C12.3349 29.9673 12.3349 30.2671 12.1507 30.4508C11.9695 30.6339 11.6712 30.6339 11.49 30.4508L10.8263 29.7842L10.1626 30.451C9.9813 30.6338 9.6831 30.6338 9.49891 30.451Z" fill="#E92D22"/>
<path fill-rule="evenodd" clip-rule="evenodd" d="M24.4419 15.4317L24.4419 15.432C24.6231 15.6154 24.6231 15.9151 24.4419 16.0981L23.7783 16.7649L24.4419 17.4313C24.6231 17.6147 24.6231 17.9144 24.4419 18.0978L24.4419 18.0981C24.2577 18.2811 23.9596 18.2811 23.7783 18.0981L23.1148 17.4313L22.4513 18.0975C22.2701 18.2809 21.9719 18.2809 21.7878 18.0975C21.6066 17.9141 21.6066 17.6147 21.7878 17.4313L22.4513 16.7649L21.7878 16.0984C21.6066 15.9154 21.6066 15.6154 21.7878 15.432C21.9719 15.2486 22.2701 15.2486 22.4513 15.432L23.1148 16.0984L23.7783 15.4317C23.9596 15.2483 24.2577 15.2483 24.4419 15.4317Z" fill="#E92D22"/>
<path fill-rule="evenodd" clip-rule="evenodd" d="M24.4419 30.451L24.4419 30.4508C24.6231 30.2674 24.6231 29.9676 24.4419 29.7845L23.7783 29.1176L24.4419 28.4508C24.6231 28.2674 24.6231 27.9676 24.4419 27.7845C24.2577 27.6011 23.9596 27.6011 23.7783 27.7845L23.1148 28.4511L22.4513 27.7845C22.2701 27.6014 21.9719 27.6014 21.7878 27.7845C21.6066 27.9679 21.6066 28.2677 21.7878 28.4511L22.4513 29.1176L21.7878 29.7842C21.6066 29.9673 21.6066 30.2671 21.7878 30.4508C21.9719 30.6339 22.2701 30.6339 22.4513 30.4508L23.1148 29.7842L23.7783 30.451C23.9596 30.6338 24.2577 30.6338 24.4419 30.451Z" fill="#E92D22"/>
<path fill-rule="evenodd" clip-rule="evenodd" d="M6.5752 15.4317L6.5752 15.432C6.391 15.6154 6.391 15.9151 6.5752 16.0981L7.23595 16.7649L6.5752 17.4313C6.391 17.6147 6.391 17.9144 6.5752 18.0978L6.5752 18.0981C6.75647 18.2811 7.05468 18.2811 7.23595 18.0981L7.89965 17.4313L8.56335 18.0975C8.74462 18.2809 9.04282 18.2809 9.22702 18.0975C9.40829 17.9141 9.40829 17.6147 9.22702 17.4313L8.56335 16.7649L9.22702 16.0984C9.40829 15.9154 9.40829 15.6154 9.22702 15.432C9.04282 15.2486 8.74462 15.2486 8.56335 15.432L7.89965 16.0984L7.23595 15.4317C7.05468 15.2483 6.75647 15.2483 6.5752 15.4317Z" fill="#141111"/>
<path fill-rule="evenodd" clip-rule="evenodd" d="M6.5752 30.451L6.5752 30.4508C6.391 30.2674 6.391 29.9676 6.5752 29.7845L7.23595 29.1176L6.5752 28.4508C6.391 28.2674 6.391 27.9676 6.5752 27.7845C6.75647 27.6011 7.05468 27.6011 7.23595 27.7845L7.89965 28.4511L8.56335 27.7845C8.74462 27.6014 9.04282 27.6014 9.22702 27.7845C9.40829 27.9679 9.40829 28.2677 9.22702 28.4511L8.56335 29.1176L9.22702 29.7842C9.40829 29.9673 9.40829 30.2671 9.22702 30.4508C9.04282 30.6339 8.74462 30.6339 8.56335 30.4508L7.89965 29.7842L7.23595 30.451C7.05468 30.6338 6.75647 30.6338 6.5752 30.451Z" fill="#141111"/>
<path fill-rule="evenodd" clip-rule="evenodd" d="M27.3678 15.4317L27.3678 15.432C27.549 15.6154 27.549 15.9151 27.3678 16.0981L26.7043 16.7649L27.3678 17.4313C27.549 17.6147 27.549 17.9144 27.3678 18.0978L27.3678 18.0981C27.1836 18.2811 26.8855 18.2811 26.7043 18.0981L26.0407 17.4313L25.3772 18.0975C25.196 18.2809 24.8978 18.2809 24.7137 18.0975C24.5325 17.9141 24.5325 17.6147 24.7137 17.4313L25.3772 16.7649L24.7137 16.0984C24.5325 15.9154 24.5325 15.6154 24.7137 15.432C24.8978 15.2486 25.196 15.2486 25.3772 15.432L26.0407 16.0984L26.7043 15.4317C26.8855 15.2483 27.1836 15.2483 27.3678 15.4317Z" fill="#141111"/>
<path fill-rule="evenodd" clip-rule="evenodd" d="M27.3678 30.451L27.3678 30.4508C27.549 30.2674 27.549 29.9676 27.3678 29.7845L26.7043 29.1176L27.3678 28.4508C27.549 28.2674 27.549 27.9676 27.3678 27.7845C27.1836 27.6011 26.8855 27.6011 26.7043 27.7845L26.0407 28.4511L25.3772 27.7845C25.196 27.6014 24.8978 27.6014 24.7137 27.7845C24.5325 27.9679 24.5325 28.2677 24.7137 28.4511L25.3772 29.1176L24.7137 29.7842C24.5325 29.9673 24.5325 30.2671 24.7137 30.4508C24.8978 30.6339 25.196 30.6339 25.3772 30.4508L26.0407 29.7842L26.7043 30.451C26.8855 30.6338 27.1836 30.6338 27.3678 30.451Z" fill="#141111"/>
<path fill-rule="evenodd" clip-rule="evenodd" d="M9.49891 12.4905C9.31764 12.6739 9.31764 12.9737 9.49891 13.157L10.1626 13.8238L9.49891 14.4902C9.31763 14.6736 9.31763 14.9733 9.49891 15.1567C9.6831 15.34 9.9813 15.34 10.1626 15.1567L10.8263 14.4899L11.49 15.1564C11.6712 15.3398 11.9695 15.3398 12.1507 15.1564C12.3349 14.973 12.3349 14.6733 12.1507 14.4899L11.49 13.8238L12.1507 13.157C12.3349 12.974 12.3349 12.6742 12.1507 12.4909C11.9695 12.3075 11.6712 12.3075 11.49 12.4909L10.8263 13.157L10.1626 12.4905C9.9813 12.3072 9.6831 12.3072 9.49891 12.4905Z" fill="#141111"/>
<path fill-rule="evenodd" clip-rule="evenodd" d="M9.49891 33.392L9.49891 33.3917C9.31763 33.2084 9.31763 32.9087 9.49891 32.7256L10.1626 32.0589L9.49891 31.3922C9.31764 31.2091 9.31764 30.9094 9.49891 30.726L9.49891 30.7254C9.6831 30.5424 9.9813 30.5424 10.1626 30.7254L10.8263 31.3922L11.49 30.726C11.6712 30.5427 11.9695 30.5427 12.1507 30.726C12.3349 30.9094 12.3349 31.2091 12.1507 31.3922L11.49 32.0589L12.1507 32.7253C12.3349 32.9087 12.3349 33.2084 12.1507 33.3917C11.9695 33.5751 11.6712 33.5751 11.49 33.3917L10.8263 32.7253L10.1626 33.392C9.9813 33.5751 9.6831 33.5751 9.49891 33.392Z" fill="#141111"/>
<path fill-rule="evenodd" clip-rule="evenodd" d="M24.4419 12.4905C24.6231 12.6739 24.6231 12.9737 24.4419 13.157L23.7783 13.8238L24.4419 14.4902C24.6231 14.6736 24.6231 14.9733 24.4419 15.1567C24.2577 15.34 23.9596 15.34 23.7783 15.1567L23.1148 14.4899L22.4513 15.1564C22.2701 15.3398 21.9719 15.3398 21.7878 15.1564C21.6066 14.973 21.6066 14.6733 21.7878 14.4899L22.4513 13.8238L21.7878 13.157C21.6066 12.974 21.6066 12.6742 21.7878 12.4909C21.9719 12.3075 22.2701 12.3075 22.4513 12.4909L23.1148 13.157L23.7783 12.4905C23.9596 12.3072 24.2577 12.3072 24.4419 12.4905Z" fill="#141111"/>
<path fill-rule="evenodd" clip-rule="evenodd" d="M24.4419 33.392L24.4419 33.3917C24.6231 33.2084 24.6231 32.9087 24.4419 32.7256L23.7783 32.0589L24.4419 31.3922C24.6231 31.2091 24.6231 30.9094 24.4419 30.726L24.4419 30.7254C24.2577 30.5424 23.9596 30.5424 23.7783 30.7254L23.1148 31.3922L22.4513 30.726C22.2701 30.5427 21.9719 30.5427 21.7878 30.726C21.6066 30.9094 21.6066 31.2091 21.7878 31.3922L22.4513 32.0589L21.7878 32.7253C21.6066 32.9087 21.6066 33.2084 21.7878 33.3917C21.9719 33.5751 22.2701 33.5751 22.4513 33.3917L23.1148 32.7253L23.7783 33.392C23.9596 33.5751 24.2577 33.5751 24.4419 33.392Z" fill="#141111"/>
<path fill-rule="evenodd" clip-rule="evenodd" d="M12.4248 12.4905C12.2436 12.6739 12.2436 12.9737 12.4248 13.157L13.0885 13.8238L12.4248 14.4902C12.2436 14.6736 12.2436 14.9733 12.4248 15.1567C12.6061 15.34 12.9043 15.34 13.0885 15.1567L13.7522 14.4899L14.4159 15.1564C14.5972 15.3398 14.8954 15.3398 15.0767 15.1564C15.2609 14.973 15.2609 14.6733 15.0767 14.4899L14.4159 13.8238L15.0767 13.157C15.2609 12.974 15.2609 12.6742 15.0767 12.4909C14.8954 12.3075 14.5972 12.3075 14.4159 12.4909L13.7522 13.157L13.0885 12.4905C12.9043 12.3072 12.6061 12.3072 12.4248 12.4905Z" fill="#E92D22"/>
<path fill-rule="evenodd" clip-rule="evenodd" d="M12.4248 33.392L12.4248 33.3917C12.2436 33.2084 12.2436 32.9087 12.4248 32.7256L13.0885 32.0589L12.4248 31.3922C12.2436 31.2091 12.2436 30.9094 12.4248 30.726L12.4248 30.7254C12.6061 30.5424 12.9043 30.5424 13.0885 30.7254L13.7522 31.3922L14.4159 30.726C14.5972 30.5427 14.8954 30.5427 15.0767 30.726C15.2609 30.9094 15.2609 31.2091 15.0767 31.3922L14.4159 32.0589L15.0767 32.7253C15.2609 32.9087 15.2609 33.2084 15.0767 33.3917C14.8954 33.5751 14.5972 33.5751 14.4159 33.3917L13.7522 32.7253L13.0885 33.392C12.9043 33.5751 12.6061 33.5751 12.4248 33.392Z" fill="#E92D22"/>
<path fill-rule="evenodd" clip-rule="evenodd" d="M21.4887 12.4905C21.7062 12.6739 21.7062 12.9737 21.4887 13.157L20.6923 13.8238L21.4887 14.4902C21.7062 14.6736 21.7062 14.9733 21.4887 15.1567C21.2712 15.34 20.9133 15.34 20.6923 15.1567L19.8959 14.4899L19.0994 15.1564C18.8819 15.3398 18.524 15.3398 18.3065 15.1564C18.0855 14.973 18.0855 14.6733 18.3065 14.4899L19.0994 13.8238L18.3065 13.157C18.0855 12.974 18.0855 12.6742 18.3065 12.4909C18.524 12.3075 18.8819 12.3075 19.0994 12.4909L19.8959 13.157L20.6923 12.4905C20.9133 12.3072 21.2712 12.3072 21.4887 12.4905Z" fill="#E92D22"/>
<path fill-rule="evenodd" clip-rule="evenodd" d="M21.4887 33.392L21.4887 33.3917C21.7062 33.2084 21.7062 32.9087 21.4887 32.7256L20.6923 32.0589L21.4887 31.3922C21.7062 31.2091 21.7062 30.9094 21.4887 30.726L21.4887 30.7254C21.2712 30.5424 20.9133 30.5424 20.6923 30.7254L19.8959 31.3922L19.0994 30.726C18.8819 30.5427 18.524 30.5427 18.3065 30.726C18.0855 30.9094 18.0855 31.2091 18.3065 31.3922L19.0994 32.0589L18.3065 32.7253C18.0855 32.9087 18.0855 33.2084 18.3065 33.3917C18.524 33.5751 18.8819 33.5751 19.0994 33.3917L19.8959 32.7253L20.6923 33.392C20.9133 33.5751 21.2712 33.5751 21.4887 33.392Z" fill="#E92D22"/>
<path fill-rule="evenodd" clip-rule="evenodd" d="M6.5752 12.4905C6.391 12.6739 6.391 12.9737 6.5752 13.157L7.23595 13.8238L6.5752 14.4902C6.391 14.6736 6.391 14.9733 6.5752 15.1567C6.75647 15.34 7.05468 15.34 7.23595 15.1567L7.89965 14.4899L8.56335 15.1564C8.74462 15.3398 9.04282 15.3398 9.22702 15.1564C9.40829 14.973 9.40829 14.6733 9.22702 14.4899L8.56335 13.8238L9.22702 13.157C9.40829 12.974 9.40829 12.6742 9.22702 12.4909C9.04282 12.3075 8.74462 12.3075 8.56335 12.4909L7.89965 13.157L7.23595 12.4905C7.05468 12.3072 6.75647 12.3072 6.5752 12.4905Z" fill="#E92D22"/>
<path fill-rule="evenodd" clip-rule="evenodd" d="M6.5752 33.392L6.5752 33.3917C6.391 33.2084 6.391 32.9087 6.5752 32.7256L7.23595 32.0589L6.5752 31.3922C6.391 31.2091 6.391 30.9094 6.5752 30.726L6.5752 30.7254C6.75647 30.5424 7.05468 30.5424 7.23595 30.7254L7.89965 31.3922L8.56335 30.726C8.74462 30.5427 9.04282 30.5427 9.22702 30.726C9.40829 30.9094 9.40829 31.2091 9.22702 31.3922L8.56335 32.0589L9.22702 32.7253C9.40829 32.9087 9.40829 33.2084 9.22702 33.3917C9.04282 33.5751 8.74462 33.5751 8.56335 33.3917L7.89965 32.7253L7.23595 33.392C7.05468 33.5751 6.75647 33.5751 6.5752 33.392Z" fill="#E92D22"/>
<path fill-rule="evenodd" clip-rule="evenodd" d="M27.3678 12.4905C27.549 12.6739 27.549 12.9737 27.3678 13.157L26.7043 13.8238L27.3678 14.4902C27.549 14.6736 27.549 14.9733 27.3678 15.1567C27.1836 15.34 26.8855 15.34 26.7043 15.1567L26.0407 14.4899L25.3772 15.1564C25.196 15.3398 24.8978 15.3398 24.7137 15.1564C24.5325 14.973 24.5325 14.6733 24.7137 14.4899L25.3772 13.8238L24.7137 13.157C24.5325 12.974 24.5325 12.6742 24.7137 12.4909C24.8978 12.3075 25.196 12.3075 25.3772 12.4909L26.0407 13.157L26.7043 12.4905C26.8855 12.3072 27.1836 12.3072 27.3678 12.4905Z" fill="#E92D22"/>
<path fill-rule="evenodd" clip-rule="evenodd" d="M27.3678 33.392L27.3678 33.3917C27.549 33.2084 27.549 32.9087 27.3678 32.7256L26.7043 32.0589L27.3678 31.3922C27.549 31.2091 27.549 30.9094 27.3678 30.726L27.3678 30.7254C27.1836 30.5424 26.8855 30.5424 26.7043 30.7254L26.0407 31.3922L25.3772 30.726C25.196 30.5427 24.8978 30.5427 24.7137 30.726C24.5325 30.9094 24.5325 31.2091 24.7137 31.3922L25.3772 32.0589L24.7137 32.7253C24.5325 32.9087 24.5325 33.2084 24.7137 33.3917C24.8978 33.5751 25.196 33.5751 25.3772 33.3917L26.0407 32.7253L26.7043 33.392C26.8855 33.5751 27.1836 33.5751 27.3678 33.392Z" fill="#E92D22"/>
<path fill-rule="evenodd" clip-rule="evenodd" d="M12.4248 9.54939C12.2436 9.73275 12.2436 10.0325 12.4248 10.2155L13.0885 10.8823L12.4248 11.5494C12.2436 11.7324 12.2436 12.0322 12.4248 12.2152L12.4248 12.2155C12.6061 12.3989 12.9043 12.3989 13.0885 12.2155L13.7522 11.5488L14.4159 12.2152C14.5972 12.3986 14.8954 12.3986 15.0767 12.2152C15.2609 12.0322 15.2609 11.7324 15.0767 11.5488L14.4159 10.8823L15.0767 10.2159C15.2609 10.0328 15.2609 9.73305 15.0767 9.54939C14.8954 9.36661 14.5972 9.36661 14.4159 9.54939L13.7522 10.2159L13.0885 9.54939C12.9043 9.36602 12.6061 9.36602 12.4248 9.54939Z" fill="#141111"/>
<path fill-rule="evenodd" clip-rule="evenodd" d="M12.4248 36.8939L12.4248 36.8936C12.2436 36.6736 12.2436 36.3139 12.4248 36.0942L13.0885 35.2941L12.4248 34.494C12.2436 34.2744 12.2436 33.9147 12.4248 33.6947L12.4248 33.6943C12.6061 33.4743 12.9043 33.4743 13.0885 33.6943L13.7522 34.4944L14.4159 33.695C14.5972 33.4746 14.8954 33.4746 15.0767 33.695C15.2609 33.915 15.2609 34.2744 15.0767 34.4944L14.4159 35.2941L15.0767 36.0935C15.2609 36.3139 15.2609 36.6732 15.0767 36.8933C14.8954 37.1136 14.5972 37.1136 14.4159 36.8933L13.7522 36.0935L13.0885 36.8939C12.9043 37.1136 12.6061 37.1136 12.4248 36.8939Z" fill="#141111"/>
<path fill-rule="evenodd" clip-rule="evenodd" d="M21.4887 9.54939C21.7062 9.73275 21.7062 10.0325 21.4887 10.2155L20.6923 10.8823L21.4887 11.5494C21.7062 11.7324 21.7062 12.0322 21.4887 12.2152L21.4887 12.2155C21.2712 12.3989 20.9133 12.3989 20.6923 12.2155L19.8959 11.5488L19.0994 12.2152C18.8819 12.3986 18.524 12.3986 18.3065 12.2152C18.0855 12.0322 18.0855 11.7324 18.3065 11.5488L19.0994 10.8823L18.3065 10.2159C18.0855 10.0328 18.0855 9.73305 18.3065 9.54939C18.524 9.36661 18.8819 9.36661 19.0994 9.54939L19.8959 10.2159L20.6923 9.54939C20.9133 9.36602 21.2712 9.36602 21.4887 9.54939Z" fill="#141111"/>
<path fill-rule="evenodd" clip-rule="evenodd" d="M21.4887 36.8939L21.4887 36.8936C21.7062 36.6736 21.7062 36.3139 21.4887 36.0942L20.6923 35.2941L21.4887 34.494C21.7062 34.2744 21.7062 33.9147 21.4887 33.6947L21.4887 33.6943C21.2712 33.4743 20.9133 33.4743 20.6923 33.6943L19.8959 34.4944L19.0994 33.695C18.8819 33.4746 18.524 33.4746 18.3065 33.695C18.0855 33.915 18.0855 34.2744 18.3065 34.4944L19.0994 35.2941L18.3065 36.0935C18.0855 36.3139 18.0855 36.6732 18.3065 36.8933C18.524 37.1136 18.8819 37.1136 19.0994 36.8933L19.8959 36.0935L20.6923 36.8939C20.9133 37.1136 21.2712 37.1136 21.4887 36.8939Z" fill="#141111"/>
<path fill-rule="evenodd" clip-rule="evenodd" d="M15.3529 9.54939C15.1688 9.73275 15.1688 10.0325 15.3529 10.2155L16.0161 10.8823L15.3529 11.5494C15.1688 11.7324 15.1688 12.0322 15.3529 12.2152L15.3529 12.2155C15.534 12.3989 15.832 12.3989 16.0161 12.2155L16.6793 11.5488L17.3395 12.2152C17.5236 12.3986 17.8216 12.3986 18.0027 12.2152C18.1868 12.0322 18.1868 11.7324 18.0027 11.5488L17.3395 10.8823L18.0027 10.2159C18.1868 10.0328 18.1868 9.73305 18.0027 9.54939C17.8216 9.36661 17.5236 9.36661 17.3395 9.54939L16.6793 10.2159L16.0161 9.54939C15.832 9.36602 15.534 9.36602 15.3529 9.54939Z" fill="#E92D22"/>
<path fill-rule="evenodd" clip-rule="evenodd" d="M15.3529 36.8939L15.3529 36.8936C15.1688 36.6736 15.1688 36.3139 15.3529 36.0942L16.0161 35.2941L15.3529 34.494C15.1688 34.2744 15.1688 33.9147 15.3529 33.6947L15.3529 33.6943C15.534 33.4743 15.832 33.4743 16.0161 33.6943L16.6793 34.4944L17.3395 33.695C17.5236 33.4746 17.8216 33.4746 18.0027 33.695C18.1868 33.915 18.1868 34.2744 18.0027 34.4944L17.3395 35.2941L18.0027 36.0935C18.1868 36.3139 18.1868 36.6732 18.0027 36.8933C17.8216 37.1136 17.5236 37.1136 17.3395 36.8933L16.6793 36.0935L16.0161 36.8939C15.832 37.1136 15.534 37.1136 15.3529 36.8939Z" fill="#E92D22"/>
<path fill-rule="evenodd" clip-rule="evenodd" d="M0.165775 9.54939C-0.0552585 9.73275 -0.0552586 10.0325 0.165775 10.2155L0.962205 10.8823L0.165775 11.5494C-0.0552587 11.7324 -0.0552587 12.0322 0.165775 12.2152L0.165775 12.2155C0.3833 12.3989 0.741171 12.3989 0.962204 12.2155L1.7586 11.5488L2.55153 12.2152C2.77257 12.3986 3.13044 12.3986 3.34796 12.2152C3.56549 12.0322 3.56549 11.7324 3.34796 11.5488L2.55153 10.8823L3.34796 10.2159C3.56549 10.0328 3.56549 9.73305 3.34796 9.54939C3.13044 9.36661 2.77257 9.36661 2.55153 9.54939L1.7586 10.2159L0.962205 9.54939C0.741171 9.36602 0.3833 9.36602 0.165775 9.54939Z" fill="#141111"/>
<path fill-rule="evenodd" clip-rule="evenodd" d="M0.165775 36.8939L0.165775 36.8936C-0.0552588 36.6736 -0.0552588 36.3139 0.165775 36.0942L0.962205 35.2941L0.165775 34.494C-0.0552586 34.2744 -0.0552585 33.9147 0.165775 33.6947L0.165775 33.6943C0.3833 33.4743 0.741171 33.4743 0.962205 33.6943L1.7586 34.4944L2.55153 33.695C2.77257 33.4746 3.13044 33.4746 3.34796 33.695C3.56549 33.915 3.56549 34.2744 3.34796 34.4944L2.55153 35.2941L3.34796 36.0935C3.56549 36.3139 3.56549 36.6732 3.34796 36.8933C3.13044 37.1136 2.77257 37.1136 2.55153 36.8933L1.7586 36.0935L0.962204 36.8939C0.741171 37.1136 0.3833 37.1136 0.165775 36.8939Z" fill="#141111"/>
<path fill-rule="evenodd" clip-rule="evenodd" d="M33.2187 9.54939C33.4012 9.73275 33.4012 10.0325 33.2187 10.2155L32.5554 10.8823L33.2187 11.5494C33.4012 11.7324 33.4012 12.0322 33.2187 12.2152L33.2187 12.2155C33.0362 12.3989 32.7379 12.3989 32.5554 12.2155L31.8922 11.5488L31.2286 12.2152C31.0461 12.3986 30.7478 12.3986 30.5656 12.2152C30.3843 12.0322 30.3843 11.7324 30.5656 11.5488L31.2286 10.8823L30.5656 10.2159C30.3843 10.0328 30.3843 9.73305 30.5656 9.54939C30.7478 9.36661 31.0461 9.36661 31.2286 9.54939L31.8922 10.2159L32.5554 9.54939C32.7379 9.36602 33.0362 9.36602 33.2187 9.54939Z" fill="#141111"/>
<path fill-rule="evenodd" clip-rule="evenodd" d="M33.2187 36.8939L33.2187 36.8936C33.4012 36.6736 33.4012 36.3139 33.2187 36.0942L32.5554 35.2941L33.2187 34.494C33.4012 34.2744 33.4012 33.9147 33.2187 33.6947L33.2187 33.6943C33.0362 33.4743 32.7379 33.4743 32.5554 33.6943L31.8922 34.4944L31.2286 33.695C31.0461 33.4746 30.7478 33.4746 30.5656 33.695C30.3843 33.915 30.3843 34.2744 30.5656 34.4944L31.2286 35.2941L30.5656 36.0935C30.3843 36.3139 30.3843 36.6732 30.5656 36.8933C30.7478 37.1136 31.0461 37.1136 31.2286 36.8933L31.8922 36.0935L32.5554 36.8939C32.7379 37.1136 33.0362 37.1136 33.2187 36.8939Z" fill="#141111"/>
<path fill-rule="evenodd" clip-rule="evenodd" d="M3.64926 9.54939C3.46507 9.73275 3.46507 10.0325 3.64926 10.2155L4.31004 10.8823L3.64926 11.5494C3.46507 11.7324 3.46507 12.0322 3.64926 12.2152L3.64926 12.2155C3.83053 12.3989 4.12877 12.3989 4.31004 12.2155L4.9737 11.5488L5.6374 12.2152C5.81867 12.3986 6.11689 12.3986 6.30109 12.2152C6.48236 12.0322 6.48236 11.7324 6.30109 11.5488L5.6374 10.8823L6.30109 10.2159C6.48236 10.0328 6.48236 9.73305 6.30109 9.54939C6.11689 9.36661 5.81867 9.36661 5.6374 9.54939L4.9737 10.2159L4.31004 9.54939C4.12877 9.36602 3.83053 9.36602 3.64926 9.54939Z" fill="#E92D22"/>
<path fill-rule="evenodd" clip-rule="evenodd" d="M3.64926 36.8939L3.64926 36.8936C3.46507 36.6736 3.46507 36.3139 3.64926 36.0942L4.31004 35.2941L3.64926 34.494C3.46507 34.2744 3.46507 33.9147 3.64926 33.6947L3.64926 33.6943C3.83053 33.4743 4.12877 33.4743 4.31004 33.6943L4.9737 34.4944L5.6374 33.695C5.81867 33.4746 6.11689 33.4746 6.30109 33.695C6.48236 33.915 6.48236 34.2744 6.30109 34.4944L5.6374 35.2941L6.30109 36.0935C6.48236 36.3139 6.48236 36.6732 6.30109 36.8933C6.11689 37.1136 5.81867 37.1136 5.6374 36.8933L4.9737 36.0935L4.31004 36.8939C4.12877 37.1136 3.83053 37.1136 3.64926 36.8939Z" fill="#E92D22"/>
<path fill-rule="evenodd" clip-rule="evenodd" d="M30.2945 9.54939C30.4747 9.73275 30.4747 10.0325 30.2945 10.2155L29.6279 10.8823L30.2945 11.5494C30.4747 11.7324 30.4747 12.0322 30.2945 12.2152L30.2945 12.2155C30.1103 12.3989 29.8121 12.3989 29.6308 12.2155L28.9671 11.5488L28.3034 12.2152C28.1221 12.3986 27.8239 12.3986 27.6397 12.2152C27.4584 12.0322 27.4584 11.7324 27.6397 11.5488L28.3034 10.8823L27.6397 10.2159C27.4584 10.0328 27.4584 9.73305 27.6397 9.54939C27.8239 9.36661 28.1221 9.36661 28.3034 9.54939L28.9671 10.2159L29.6308 9.54939C29.8121 9.36602 30.1103 9.36602 30.2945 9.54939Z" fill="#E92D22"/>
<path fill-rule="evenodd" clip-rule="evenodd" d="M30.2945 36.8939L30.2945 36.8936C30.4747 36.6736 30.4747 36.3139 30.2945 36.0942L29.6279 35.2941L30.2945 34.494C30.4747 34.2744 30.4747 33.9147 30.2945 33.6947L30.2945 33.6943C30.1103 33.4743 29.8121 33.4743 29.6308 33.6943L28.9671 34.4944L28.3034 33.695C28.1221 33.4746 27.8239 33.4746 27.6397 33.695C27.4584 33.915 27.4584 34.2744 27.6397 34.4944L28.3034 35.2941L27.6397 36.0935C27.4584 36.3139 27.4584 36.6732 27.6397 36.8933C27.8239 37.1136 28.1221 37.1136 28.3034 36.8933L28.9671 36.0935L29.6308 36.8939C29.8121 37.1136 30.1103 37.1136 30.2945 36.8939Z" fill="#E92D22"/>
<path fill-rule="evenodd" clip-rule="evenodd" d="M15.3529 6.60824C15.1688 6.79161 15.1688 7.09136 15.3529 7.27445L16.0161 7.94126L15.3529 8.60836C15.1688 8.79144 15.1688 9.09087 15.3529 9.27425L15.3529 9.27457C15.534 9.45765 15.832 9.45765 16.0161 9.27457L16.6793 8.60775L17.3395 9.27425C17.5236 9.45733 17.8216 9.45733 18.0027 9.27425C18.1868 9.09087 18.1868 8.79113 18.0027 8.60775L17.3395 7.94126L18.0027 7.27505C18.1868 7.09138 18.1868 6.7919 18.0027 6.60852C17.8216 6.42515 17.5236 6.42515 17.3395 6.60852L16.6793 7.27505L16.0161 6.60824C15.832 6.42486 15.534 6.42486 15.3529 6.60824Z" fill="#141111"/>
<path fill-rule="evenodd" clip-rule="evenodd" d="M15.3529 39.8625L15.3529 39.8622C15.1688 39.6791 15.1688 39.3794 15.3529 39.1961L16.0161 38.5293L15.3529 37.8626C15.1688 37.6795 15.1688 37.3798 15.3529 37.1964L15.3529 37.1961C15.534 37.0131 15.832 37.0131 16.0161 37.1961L16.6793 37.8629L17.3395 37.1964C17.5236 37.0134 17.8216 37.0134 18.0027 37.1964C18.1868 37.3798 18.1868 37.6798 18.0027 37.8629L17.3395 38.5293L18.0027 39.1958C18.1868 39.3794 18.1868 39.6789 18.0027 39.8619C17.8216 40.0456 17.5236 40.0456 17.3395 39.8619L16.6793 39.1958L16.0161 39.8625C15.832 40.0459 15.534 40.0459 15.3529 39.8625Z" fill="#141111"/>
<path fill-rule="evenodd" clip-rule="evenodd" d="M3.64926 6.60824C3.46507 6.79161 3.46507 7.09136 3.64926 7.27445L4.31004 7.94126L3.64926 8.60836C3.46507 8.79144 3.46507 9.09087 3.64926 9.27425L3.64926 9.27457C3.83053 9.45765 4.12877 9.45765 4.31004 9.27457L4.9737 8.60775L5.6374 9.27425C5.81867 9.45733 6.11689 9.45733 6.30109 9.27425C6.48236 9.09087 6.48236 8.79113 6.30109 8.60775L5.6374 7.94126L6.30109 7.27505C6.48236 7.09138 6.48236 6.7919 6.30109 6.60852C6.11689 6.42515 5.81867 6.42515 5.6374 6.60852L4.9737 7.27505L4.31004 6.60824C4.12877 6.42486 3.83053 6.42486 3.64926 6.60824Z" fill="#141111"/>
<path fill-rule="evenodd" clip-rule="evenodd" d="M3.64926 39.8625L3.64926 39.8622C3.46507 39.6791 3.46507 39.3794 3.64926 39.1961L4.31004 38.5293L3.64926 37.8626C3.46507 37.6795 3.46507 37.3798 3.64926 37.1964L3.64926 37.1961C3.83053 37.0131 4.12877 37.0131 4.31004 37.1961L4.9737 37.8629L5.6374 37.1964C5.81867 37.0134 6.11689 37.0134 6.30109 37.1964C6.48236 37.3798 6.48236 37.6798 6.30109 37.8629L5.6374 38.5293L6.30109 39.1958C6.48236 39.3794 6.48236 39.6789 6.30109 39.8619C6.11689 40.0456 5.81867 40.0456 5.6374 39.8619L4.9737 39.1958L4.31004 39.8625C4.12877 40.0459 3.83053 40.0459 3.64926 39.8625Z" fill="#141111"/>
<path fill-rule="evenodd" clip-rule="evenodd" d="M30.2945 6.60824C30.4747 6.79161 30.4747 7.09136 30.2945 7.27445L29.6279 7.94126L30.2945 8.60836C30.4747 8.79144 30.4747 9.09087 30.2945 9.27425L30.2945 9.27457C30.1103 9.45765 29.8121 9.45765 29.6308 9.27457L28.9671 8.60775L28.3034 9.27425C28.1221 9.45733 27.8239 9.45733 27.6397 9.27425C27.4584 9.09087 27.4584 8.79113 27.6397 8.60775L28.3034 7.94126L27.6397 7.27505C27.4584 7.09138 27.4584 6.7919 27.6397 6.60852C27.8239 6.42515 28.1221 6.42515 28.3034 6.60852L28.9671 7.27505L29.6308 6.60824C29.8121 6.42486 30.1103 6.42486 30.2945 6.60824Z" fill="#141111"/>
<path fill-rule="evenodd" clip-rule="evenodd" d="M30.2945 39.8625L30.2945 39.8622C30.4747 39.6791 30.4747 39.3794 30.2945 39.1961L29.6279 38.5293L30.2945 37.8626C30.4747 37.6795 30.4747 37.3798 30.2945 37.1964L30.2945 37.1961C30.1103 37.0131 29.8121 37.0131 29.6308 37.1961L28.9671 37.8629L28.3034 37.1964C28.1221 37.0134 27.8239 37.0134 27.6397 37.1964C27.4584 37.3798 27.4584 37.6798 27.6397 37.8629L28.3034 38.5293L27.6397 39.1958C27.4584 39.3794 27.4584 39.6789 27.6397 39.8619C27.8239 40.0456 28.1221 40.0456 28.3034 39.8619L28.9671 39.1958L29.6308 39.8625C29.8121 40.0459 30.1103 40.0459 30.2945 39.8625Z" fill="#141111"/>
</svg>
