<?xml version="1.0" encoding="UTF-8"?><!DOCTYPE svg PUBLIC "-//W3C//DTD SVG 1.1//EN" "http://www.w3.org/Graphics/SVG/1.1/DTD/svg11.dtd"><svg xmlns="http://www.w3.org/2000/svg" xmlns:xlink="http://www.w3.org/1999/xlink"><defs>
        <clipPath id="a">
            <path transform="rotate(-180 22 22)" d="M0 0h44v44H0z"/>
        </clipPath>
    
        <clipPath id="a">
            <path d="M0 0h41v41H0z"/>
        </clipPath>
    
        <clipPath id="a">
            <path d="M0 0h25v25H0z"/>
        </clipPath>
    
        <clipPath id="a">
            <path transform="translate(0 .034)" d="M0 0h32.397v32.397H0z"/>
        </clipPath>
    
        <clipPath id="a">
            <path transform="translate(7.194 6.66)" d="M0 0h19.144v19.144H0z"/>
        </clipPath>
    
        <clipPath id="a">
            <path transform="translate(.355 .034)" d="M0 0h32.397v32.397H0z"/>
        </clipPath>
    
        <clipPath id="a">
            <path transform="translate(.177 .034)" d="M0 0h32.397v32.397H0z"/>
        </clipPath>
    </defs><symbol id="icon-arrow-down" viewBox="0 0 20 20">
    <path d="M14 8l-4.03 6L6 8h8z"/>
</symbol><symbol id="icon-arrow-left-black" viewBox="0 0 44 44">
    <path d="M22 0a22 22 0 1 0 0 44 22 22 0 0 0 0-44zm9.625 20.625a1.375 1.375 0 0 1 0 2.75h-15.93l5.904 5.901a1.376 1.376 0 1 1-1.948 1.948l-8.25-8.25a1.377 1.377 0 0 1 0-1.948l8.25-8.25a1.377 1.377 0 0 1 1.948 1.947l-5.905 5.902h15.931z"/>
</symbol><symbol id="icon-arrow-right-black" viewBox="0 0 44 44">
    <g clip-path="url(#a)">
        <path d="M22 44a22 22 0 1 0 0-44 22 22 0 0 0 0 44zm-9.625-20.625a1.375 1.375 0 0 1 0-2.75h15.93l-5.904-5.902a1.377 1.377 0 0 1 1.948-1.947l8.25 8.25a1.376 1.376 0 0 1 0 1.948l-8.25 8.25a1.377 1.377 0 0 1-1.948-1.948l5.905-5.901H12.375z"/>
    </g>
    
</symbol><symbol id="icon-arrow-right" viewBox="0 0 20 20">
    <path d="M8 6l6 4.03L8 14V6z"/>
</symbol><symbol id="icon-burger-menu" viewBox="0 0 20 14">
    <rect class="top-line" width="20" height="2" rx="1"/>
    <rect class="center-line" x="5" y="6" width="15" height="2" rx="1"/>
    <rect class="bottom-line" y="12" width="20" height="2" rx="1"/>
</symbol><symbol id="icon-camera" viewBox="0 0 41 41">
    <path d="M20.5 25.625a5.125 5.125 0 1 0 0-10.25 5.125 5.125 0 0 0 0 10.25z"/>
    <path d="M15.375 3.417l-3.126 3.416H3.417v27.334h34.166V6.833h-8.832l-3.126-3.416h-10.25zM20.5 29.042a8.545 8.545 0 0 1-8.542-8.542 8.545 8.545 0 0 1 8.542-8.542 8.545 8.545 0 0 1 8.542 8.542 8.545 8.545 0 0 1-8.542 8.542z"/>
</symbol><symbol id="icon-close" viewBox="0 0 25 25">
    <path fill-rule="evenodd" clip-rule="evenodd" d="M10.6 12.5L3 4.9 4.9 3l7.6 7.6L20.1 3 22 4.9l-7.6 7.6 7.6 7.6-1.9 1.9-7.6-7.6L4.9 22 3 20.1l7.6-7.6z"/>
</symbol><symbol id="icon-facebook" viewBox="0 0 8 16">
    <path d="M6.49 2.636h1.449V.112C7.689.077 6.829 0 5.827 0c-2.09 0-3.521 1.314-3.521 3.73v2.223H0v2.822h2.306v7.101h2.827v-7.1h2.213l.351-2.822H5.133V4.01c0-.816.22-1.374 1.356-1.374z"/>
</symbol><symbol id="icon-instagram" viewBox="0 0 17 16">
    <path fill-rule="evenodd" clip-rule="evenodd" d="M5.97 0h6a5 5 0 0 1 5 5v6a5 5 0 0 1-5 5h-6a5 5 0 0 1-5-5V5a5 5 0 0 1 5-5zm6 14.5c1.93 0 3.5-1.57 3.5-3.5V5c0-1.93-1.57-3.5-3.5-3.5h-6c-1.93 0-3.5 1.57-3.5 3.5v6c0 1.93 1.57 3.5 3.5 3.5h6z"/>
    <path fill-rule="evenodd" clip-rule="evenodd" d="M4.97 8a4 4 0 1 1 8 0 4 4 0 0 1-8 0zm1.5 0c0 1.378 1.121 2.5 2.5 2.5 1.377 0 2.5-1.122 2.5-2.5 0-1.379-1.123-2.5-2.5-2.5A2.503 2.503 0 0 0 6.47 8z"/>
    <circle cx="13.269" cy="3.7" r=".533"/>
</symbol><symbol id="icon-pagination-left" viewBox="0 0 26 9">
    <path fill-rule="evenodd" clip-rule="evenodd" d="M25.185 5.038V3.024H4.857V0L0 4.034l4.86 3.992v-2.98l20.325-.008z"/>
</symbol><symbol id="icon-pagination-right" viewBox="0 0 26 9">
    <path fill-rule="evenodd" clip-rule="evenodd" d="M.003 2.987v2.015h20.328v3.024l4.857-4.035L20.33 0v2.98L.003 2.987z"/>
</symbol><symbol id="icon-play-big" viewBox="0 0 95 95">
    <path d="M47.5 89.063a41.562 41.562 0 1 1 0-83.125 41.562 41.562 0 0 1 0 83.124zm0 5.937a47.5 47.5 0 1 0 0-95 47.5 47.5 0 0 0 0 95z"/>
    <path d="M37.234 30.014a2.968 2.968 0 0 1 3.088.226l20.78 14.843a2.969 2.969 0 0 1 0 4.834L40.323 64.76a2.97 2.97 0 0 1-4.697-2.416V32.656a2.968 2.968 0 0 1 1.61-2.642z"/>
</symbol><symbol id="icon-play" viewBox="0 0 41 41">
    <g clip-path="url(#a)">
        <path d="M20.5 38.438a17.937 17.937 0 1 1 0-35.875 17.937 17.937 0 0 1 0 35.874zm0 2.562a20.5 20.5 0 1 0 0-41 20.5 20.5 0 0 0 0 41z"/>
        <path d="M16.07 12.953a1.282 1.282 0 0 1 1.332.098l8.969 6.406a1.281 1.281 0 0 1 0 2.086l-8.97 6.406a1.28 1.28 0 0 1-2.026-1.043V14.094a1.282 1.282 0 0 1 .694-1.14z"/>
    </g>
    
</symbol><symbol id="icon-quote" viewBox="0 0 24 24">
    <path d="M6.5 10c-.223 0-.437.034-.65.065.069-.232.14-.468.254-.68.114-.308.292-.575.469-.844.148-.291.409-.488.601-.737.201-.242.475-.403.692-.604.213-.21.492-.315.714-.463.232-.133.434-.28.65-.35l.539-.222.474-.197-.485-1.938-.597.144c-.191.048-.424.104-.689.171-.271.05-.56.187-.882.312-.318.142-.686.238-1.028.466-.344.218-.741.4-1.091.692-.339.301-.748.562-1.05.945-.33.358-.656.734-.909 1.162-.293.408-.492.856-.702 1.299-.19.443-.343.896-.468 1.336-.237.882-.343 1.72-.384 2.437-.034.718-.014 1.315.028 1.747.015.204.043.402.063.539l.025.168.026-.006A4.5 4.5 0 1 0 6.5 10zm11 0c-.223 0-.437.034-.65.065.069-.232.14-.468.254-.68.114-.308.292-.575.469-.844.148-.291.409-.488.601-.737.201-.242.475-.403.692-.604.213-.21.492-.315.714-.463.232-.133.434-.28.65-.35l.539-.222.474-.197-.485-1.938-.597.144c-.191.048-.424.104-.689.171-.271.05-.56.187-.882.312-.317.143-.686.238-1.028.467-.344.218-.741.4-1.091.692-.339.301-.748.562-1.05.944-.33.358-.656.734-.909 1.162-.293.408-.492.856-.702 1.299-.19.443-.343.896-.468 1.336-.237.882-.343 1.72-.384 2.437-.034.718-.014 1.315.028 1.747.015.204.043.402.063.539l.025.168.026-.006A4.5 4.5 0 1 0 17.5 10z"/>
</symbol><symbol id="icon-search" viewBox="0 0 25 25">
    <g clip-path="url(#a)">
        <path d="M24.658 21.616l-4.868-4.868a1.17 1.17 0 0 0-.83-.342h-.796a10.107 10.107 0 0 0 2.148-6.25C20.313 4.546 15.768 0 10.156 0 4.546 0 0 4.546 0 10.156s4.546 10.156 10.156 10.156c2.359 0 4.527-.8 6.25-2.148v.796c0 .313.122.61.342.83l4.868 4.868a1.167 1.167 0 0 0 1.655 0l1.382-1.382a1.177 1.177 0 0 0 .005-1.66zm-14.502-5.21a6.246 6.246 0 0 1-6.25-6.25 6.246 6.246 0 0 1 6.25-6.25 6.246 6.246 0 0 1 6.25 6.25 6.246 6.246 0 0 1-6.25 6.25z"/>
    </g>
    
</symbol><symbol id="icon-share-fb" viewBox="0 0 33 33">
    <g clip-path="url(#a)">
        <path d="M16.198 0C7.248 0-.036 7.281-.036 16.233c0 8.951 7.284 16.233 16.234 16.233 8.95 0 16.234-7.282 16.234-16.233C32.432 7.28 25.149 0 16.198 0zm0 31.384c-8.354 0-15.15-6.797-15.15-15.151S7.844 1.08 16.198 1.08s15.15 6.798 15.15 15.152-6.796 15.151-15.15 15.151z"/>
        <path d="M19.742 7.121H17.04c-3.44-.034-3.88 2.095-3.88 4.4v1.675h-1.518a.45.45 0 0 0-.507.506v3.037a.45.45 0 0 0 .507.506h1.518v7.593a.454.454 0 0 0 .51.506h3.092c.299.035.54-.207.446-.506l.002-7.593h2.53a.45.45 0 0 0 .507-.506v-3.037a.45.45 0 0 0-.506-.506h-2.534l.003-1.519c.098-.647.098-.541.698-.506h1.811c.141-.031.291-.014.396-.116.106-.103.166-.242.13-.39V7.628a.45.45 0 0 0-.504-.507zm-.542 2.98l-1.27-.048c-1.572 0-1.703.854-1.703 1.727l-.004 1.92a.541.541 0 0 0 .54.542h2.472v1.956h-2.47a.541.541 0 0 0-.541.54l-.001 7.594h-2.05V16.74c0-.299-.203-.54-.503-.54H12.15v-1.957h1.521a.54.54 0 0 0 .383-.157c.101-.103.12-.24.12-.384v-2.182c0-2.27.458-3.35 2.867-3.35h2.159v1.933h.001z"/>
    </g>
    
</symbol><symbol id="icon-share-link" viewBox="0 0 33 33">
    <path d="M16.766 0C7.816 0 .532 7.281.532 16.233c0 8.951 7.283 16.233 16.234 16.233 8.95 0 16.234-7.282 16.234-16.233C33 7.28 25.717 0 16.766 0zm0 31.384c-8.354 0-15.15-6.797-15.15-15.151 0-8.355 6.796-15.152 15.15-15.152s15.15 6.797 15.15 15.152c0 8.354-6.796 15.151-15.15 15.151z"/>
    <g clip-path="url(#a)">
        <path d="M24.693 10.705a3.59 3.59 0 0 0-5.085 0l.85.85a2.398 2.398 0 0 1 3.391 3.392l-4.786 4.786a2.397 2.397 0 0 1-3.392-3.386l.844-.85-.844-.85-.85.85a3.59 3.59 0 0 0 0 5.085 3.59 3.59 0 0 0 2.543 1.035 3.588 3.588 0 0 0 2.555-1.053l4.786-4.786a3.59 3.59 0 0 0-.012-5.073z"/>
        <path d="M9.701 21.51a2.394 2.394 0 0 1 0-3.393l4.786-4.786a2.39 2.39 0 0 1 3.392 0 2.358 2.358 0 0 1 .682 1.705 2.392 2.392 0 0 1-.7 1.705l-1.268 1.287.85.849 1.267-1.268a3.6 3.6 0 0 0-5.09-5.091l-4.786 4.786a3.59 3.59 0 0 0 0 5.09 3.59 3.59 0 0 0 2.548 1.018c.96 0 1.88-.378 2.56-1.053l-.849-.85a2.395 2.395 0 0 1-3.392 0z"/>
    </g>
    
</symbol><symbol id="icon-share-tg" viewBox="0 0 33 33">
    <g clip-path="url(#a)">
        <path d="M16.553 0C7.603 0 .32 7.281.32 16.233c0 8.951 7.284 16.233 16.234 16.233 8.95 0 16.234-7.282 16.234-16.233C32.787 7.28 25.504 0 16.553 0zm0 31.384c-8.354 0-15.15-6.797-15.15-15.151 0-8.355 6.796-15.152 15.15-15.152s15.15 6.797 15.15 15.152c0 8.354-6.796 15.151-15.15 15.151z"/>
        <path d="M24.069 8.588a1.058 1.058 0 0 0-1.08-.184L8.993 13.902a1.062 1.062 0 0 0 .18 2.029l3.676.735v4.564a1.06 1.06 0 0 0 1.813.75l2.067-2.067 3.093 2.722a1.053 1.053 0 0 0 1.027.213 1.054 1.054 0 0 0 .709-.773l2.852-12.446a1.06 1.06 0 0 0-.342-1.042zM9.231 14.903a.14.14 0 0 1 .095-.154l11.71-4.6-7.836 5.659-3.848-.77a.141.141 0 0 1-.121-.135zm4.788 6.435a.152.152 0 0 1-.259-.108V17.3l2.286 2.01-2.027 2.028zm6.653.534a.152.152 0 0 1-.248.08l-6.39-5.624 9.477-6.844-2.839 12.388z"/>
    </g>
    
</symbol><symbol id="icon-share-twitter" viewBox="0 0 33 33">
    <g clip-path="url(#a)">
        <path d="M16.376.001C7.426.001.143 7.282.143 16.234c0 8.951 7.283 16.233 16.233 16.233 8.951 0 16.234-7.282 16.234-16.233C32.61 7.282 25.327 0 16.376 0zm0 31.384c-8.354 0-15.15-6.797-15.15-15.151 0-8.355 6.796-15.152 15.15-15.152 8.355 0 15.151 6.797 15.151 15.152 0 8.354-6.796 15.151-15.15 15.151z"/>
        <path d="M25.28 11.217a3.77 3.77 0 0 0 .276-.65.542.542 0 0 0-.79-.631 6.111 6.111 0 0 1-1.667.681 3.867 3.867 0 0 0-6.455 3.023 8.93 8.93 0 0 1-5.806-3.217.542.542 0 0 0-.887.07 3.86 3.86 0 0 0-.067 3.768.636.636 0 0 0-.217.079.578.578 0 0 0-.267.486c0 1.15.511 2.204 1.335 2.921l-.035.036a.541.541 0 0 0-.11.524 3.862 3.862 0 0 0 2.212 2.395 6.21 6.21 0 0 1-3.449.586.552.552 0 0 0-.573.356.543.543 0 0 0 .218.638 9.963 9.963 0 0 0 5.385 1.578c6.257 0 9.996-5.082 9.996-9.995v-.166a7.207 7.207 0 0 0 1.56-1.68.541.541 0 0 0-.66-.802zm-1.767 1.777a.542.542 0 0 0-.225.467c.006.133.01.27.01.403 0 4.381-3.335 8.914-8.914 8.914a8.867 8.867 0 0 1-2.923-.494 7.16 7.16 0 0 0 3.083-1.407.542.542 0 0 0-.324-.967 2.786 2.786 0 0 1-2.221-1.177c.256-.017.507-.06.75-.125a.54.54 0 0 0-.036-1.053 2.775 2.775 0 0 1-2.106-1.929c.269.068.545.108.822.117a.557.557 0 0 0 .532-.376.54.54 0 0 0-.214-.614 2.78 2.78 0 0 1-1.158-2.982 10.006 10.006 0 0 0 6.65 3.009.55.55 0 0 0 .442-.193.543.543 0 0 0 .112-.47 2.783 2.783 0 0 1 4.74-2.537.543.543 0 0 0 .5.16c.167-.033.332-.071.495-.116-.074.055-.15.106-.229.153a.541.541 0 0 0 .342 1l.185-.023a5.683 5.683 0 0 1-.313.24z"/>
    </g>
    
</symbol><symbol id="icon-swipe" viewBox="0 0 44 44">
    <path d="M23.622 5.863c-.047-.023-4.624-2.197-8.266-2.474-3.828-.298-7.664 1.734-7.703 1.756l-.518-.972c.167-.089 4.158-2.19 8.305-1.882 3.849.295 8.461 2.487 8.656 2.58l-.474.992z"/>
    <path d="M19.753 8.027l-.482-.99L23.044 5.2l-2.437-3.35.89-.647 3.209 4.41-4.953 2.415z"/>
    <path d="M3.325 10.905l-.474-.992c.194-.092 4.807-2.285 8.657-2.58 4.133-.3 8.136 1.794 8.303 1.883l-.518.971c-.038-.02-3.886-2.054-7.702-1.756-3.642.278-8.22 2.452-8.266 2.474z"/>
    <path d="M7.196 13.07l-4.953-2.417 3.209-4.408.89.646-2.438 3.35 3.773 1.84-.48.988z"/>
    <path d="M27.872 43.382c-1.4 0-2.82-.152-4.105-.438-2.192-.488-6.805-4.007-7.78-5.018-.883-.914-3.245-4.423-3.592-7.278-.152-1.243.802-4.947 1.969-6.264.23-.259.47-.433.717-.518l-.15-.34c-.76-1.651-1.884-3.56-2.876-5.245-1.68-2.853-2.306-3.993-2.2-4.642.177-1.1 1.08-2.37 2.28-2.592l.213-.043c.31-.074.626-.116.945-.123 1.048 0 2.008.599 3.024 1.882.878 1.112 2.302 4.182 3.5 6.96-.055-.7-.034-1.284.113-1.625.594-1.378 2.25-1.92 2.756-1.952l.124-.004c.32 0 1.958.08 2.717 1.674.12.255.236.53.343.808.136-.473.33-.885.606-1.12.85-.722 2.012-1.096 2.803-.874.85.239 1.566 1.138 1.825 2.297.11-.251.245-.455.404-.573.768-.577 2.106-.639 2.953-.051 1.034.717 3.412 5.014 3.83 8.771.342 3.09.728 8.609-.546 10.884-1.325 2.36-4.034 4.192-5.991 4.895-.953.34-2.331.529-3.882.529zM15.475 24.924c-.73.072-2.162 4.164-1.989 5.589.31 2.56 2.51 5.836 3.293 6.648.931.966 5.342 4.288 7.225 4.707 1.21.27 2.545.413 3.867.413 1.407 0 2.685-.17 3.508-.468 1.48-.531 4.137-2.14 5.403-4.399.823-1.464.974-5.19.414-10.22-.398-3.585-2.715-7.54-3.363-7.991-.52-.36-1.387-.184-1.668.027-.155.177-.385 1.213-.474 2.2l-.276 3.044-.802-2.95s-.356-1.308-.58-2.346c-.192-.876-.68-1.389-1.053-1.492-.41-.117-1.235.177-1.792.652-.304.259-.53 1.752-.54 2.93l-.041 4.572-1.044-4.453c-.004-.02-.441-1.873-1.03-3.102-.475-.996-1.52-1.047-1.723-1.047-.32.022-1.492.416-1.87 1.293-.264.614.334 3.823 1.04 6.442l-1.044.344c-.036-.096-3.87-9.837-5.48-11.875-1.037-1.311-1.73-1.463-2.161-1.463-.242 0-.475.048-.72.1l-.237.047c-.618.115-1.268.904-1.397 1.688.01.42 1.148 2.354 2.063 3.908 1.005 1.707 2.144 3.642 2.926 5.344.2.432.384.882.555 1.342l.002.008c1.194 1.644 1.788 7.053 1.852 7.674l-1.092.127c-.004-.039-.508-3.89-1.73-7.252a.422.422 0 0 0-.042-.041z"/>
</symbol><symbol id="icon-tg" viewBox="0 0 24 24">
    <path d="M12 0C5.373 0 0 5.373 0 12s5.373 12 12 12 12-5.373 12-12S18.627 0 12 0zm0 2c5.514 0 10 4.486 10 10s-4.486 10-10 10S2 17.514 2 12 6.486 2 12 2zm2.692 14.889a.59.59 0 0 0 .553.073.576.576 0 0 0 .362-.42c.435-2.042 1.489-7.211 1.884-9.068a.39.39 0 0 0-.129-.379.404.404 0 0 0-.399-.07c-2.096.776-8.553 3.198-11.192 4.175a.412.412 0 0 0 .025.781c1.184.354 2.738.847 2.738.847s.725 2.193 1.104 3.308a.431.431 0 0 0 .707.184l1.548-1.461s1.786 1.309 2.799 2.03zm-5.505-4.338l.84 2.769.186-1.754 5.092-4.593a.137.137 0 0 0 .017-.188.143.143 0 0 0-.188-.032l-5.947 3.798z"/>
</symbol><symbol id="icon-twitter" viewBox="0 0 21 16">
    <path d="M20.525 1.881a8.358 8.358 0 0 1-2.31.633A3.987 3.987 0 0 0 19.979.298a8.013 8.013 0 0 1-2.543.97 4.008 4.008 0 0 0-6.935 2.741c0 .319.027.624.093.915A11.348 11.348 0 0 1 2.331.731a4.036 4.036 0 0 0-.549 2.026c0 1.389.715 2.62 1.78 3.332a3.96 3.96 0 0 1-1.81-.494v.044a4.028 4.028 0 0 0 3.212 3.94c-.327.089-.682.132-1.052.132-.256 0-.515-.015-.759-.069.52 1.588 1.994 2.755 3.747 2.793a8.055 8.055 0 0 1-4.971 1.71c-.329 0-.644-.015-.96-.055a11.287 11.287 0 0 0 6.15 1.799c7.378 0 11.411-6.111 11.411-11.408 0-.178-.006-.349-.014-.519a7.998 7.998 0 0 0 2.009-2.081z"/>
</symbol><symbol id="icon-user" viewBox="0 0 28 28">
    <path d="M4.083 26S2 26 2 23.917c0-2.084 2.083-8.334 12.5-8.334S27 21.833 27 23.917C27 26 24.917 26 24.917 26H4.083zM14.5 13.5a6.25 6.25 0 1 0 0-12.5 6.25 6.25 0 0 0 0 12.5z"/>
</symbol></svg>